<svg xmlns="http://www.w3.org/2000/svg" width="30" height="30" viewBox="0 0 30 30">
    <path data-name="패스 3136" d="m20.911 32.5 3.331 6.427a1.842 1.842 0 0 1-1.623 2.449H1.212a1.842 1.842 0 0 1-1.623-2.449L2.8 32.5" transform="translate(3.169 -16.401)" style="fill:#deecfb"/>
    <path data-name="사각형 2658" transform="translate(6 6)" style="fill:none" d="M0 0h18v18H0z"/>
    <g data-name="사각형 3218" style="stroke:#333;fill:#fff">
        <path d="M3 0h14a3 3 0 0 1 3 3v9H0V3a3 3 0 0 1 3-3z" style="stroke:none" transform="translate(5 5)"/>
        <path d="M3 .5h14A2.5 2.5 0 0 1 19.5 3v8.5H.5V3A2.5 2.5 0 0 1 3 .5z" style="fill:none" transform="translate(5 5)"/>
    </g>
    <path data-name="패스 3138" d="m21.181 32.463 3.229 6.53a1.857 1.857 0 0 1-1.634 2.47H1.223a1.857 1.857 0 0 1-1.634-2.47l3.344-6.53" transform="translate(3 -16.401)" style="stroke-miterlimit:10;stroke:#333;fill:none"/>
    <path data-name="선 81" transform="translate(8 11.5)" style="stroke-linecap:round;stroke-miterlimit:10;stroke:#333;fill:none" d="M0 0h8"/>
    <path data-name="선 82" transform="translate(8 9)" style="stroke-linecap:round;stroke-miterlimit:10;stroke:#333;fill:none" d="M0 0h4"/>
</svg>
