<svg xmlns="http://www.w3.org/2000/svg" width="45.001" height="45" viewBox="0 0 45.001 45">
    <g data-name="그룹 17114" transform="translate(16106.488 -18231.383)">
        <path data-name="패스 18543" d="M352.932 501.842a14.959 14.959 0 1 1-14.959-14.959 14.959 14.959 0 0 1 14.959 14.959" transform="translate(-16414.92 17759.08)" style="fill:#6f55a5"/>
        <path data-name="선 178" transform="translate(-16105.987 18238.375)" style="fill:none;stroke:#000;stroke-miterlimit:10" d="M0 0v28.486"/>
        <ellipse data-name="타원 2351" cx="15.839" cy="6.493" rx="15.839" ry="6.493" transform="translate(-16105.987 18231.883)" style="fill:none;stroke:#000;stroke-miterlimit:10"/>
        <path data-name="패스 18562" d="M324.117 492.688q-.626.02-1.265.02c-8.748 0-15.839-2.907-15.839-6.493" transform="translate(-16413 17759.16)" style="fill:none;stroke:#000;stroke-miterlimit:10"/>
        <path data-name="패스 18563" d="M327.115 516.663c-.577.051-2.585.079-4.263.045-8.748 0-15.839-2.907-15.839-6.494" transform="translate(-16413 17756.279)" style="fill:none;stroke:#000;stroke-miterlimit:10"/>
        <path data-name="패스 18564" d="M321.2 500.626c-7.972-.338-14.19-3.1-14.19-6.459" transform="translate(-16413 17758.205)" style="fill:none;stroke:#000;stroke-miterlimit:10"/>
        <path data-name="패스 18565" d="M321.78 508.59c-8.131-.275-14.767-3.068-14.767-6.471" transform="translate(-16413 17757.25)" style="fill:none;stroke:#000;stroke-miterlimit:10"/>
        <path data-name="선 193" transform="translate(-16074.309 18238.375)" style="fill:none;stroke:#000;stroke-miterlimit:10" d="M0 0v7.367"/>
        <circle data-name="타원 2352" cx="15" cy="15" r="15" transform="translate(-16091.987 18245.883)" style="fill:none;stroke:#000;stroke-miterlimit:10"/>
        <text transform="translate(-16075.988 18266.883)" style="fill:#fff;font-size:16px;font-family:SpoqaHanSansNeo-Bold,Spoqa Han Sans Neo;font-weight:700"><tspan x="-5.336" y="0">P</tspan></text>
    </g>
</svg>
