<svg xmlns="http://www.w3.org/2000/svg" width="42" height="41.996" viewBox="0 0 42 41.996">
    <g data-name="그룹 17115" transform="translate(-201 -430.5)">
        <path data-name="패스 18550" d="M141.174 505.715h-27.329a6.832 6.832 0 0 1-6.832-6.832v10.248a6.832 6.832 0 0 0 6.832 6.832h27.329a6.832 6.832 0 0 0 6.832-6.832v-10.248a6.832 6.832 0 0 1-6.832 6.832" transform="translate(94.49 -43.967)" style="fill:#6f55a5"/>
        <rect data-name="사각형 9812" width="41" height="31" rx="8" transform="translate(201.5 431)" style="stroke:#000;stroke-miterlimit:10;fill:none"/>
        <path data-name="패스 18560" d="M148.006 495v8.4a6.832 6.832 0 0 1-6.832 6.832h-27.329a6.832 6.832 0 0 1-6.832-6.832v-8.684" transform="translate(94.49 -43.358)" style="stroke:#000;stroke-miterlimit:10;fill:none"/>
        <path data-name="패스 18561" d="M148.006 495.523v13.1a6.832 6.832 0 0 1-6.832 6.832h-27.329a6.832 6.832 0 0 1-6.832-6.832v-13.242" transform="translate(94.49 -43.456)" style="stroke:#000;stroke-miterlimit:10;fill:none"/>
        <g data-name="Upload - 192x192">
            <path data-name="패스 5696" d="m7 9.68 3.55 3.55m0 0 3.55-3.55m-3.55 3.55V4" transform="translate(211.45 437.32)" style="stroke:#6f55a5;stroke-linecap:round;stroke-linejoin:round;stroke-width:2px;fill:none"/>
            <path data-name="패스 5697" d="M6 20h8.52" transform="translate(211.74 432.679)" style="stroke:#6f55a5;stroke-linecap:round;stroke-linejoin:round;stroke-width:2px;fill:none"/>
        </g>
    </g>
</svg>
