<?xml version="1.0" encoding="UTF-8"?> <!-- Generator: Adobe Illustrator 25.4.1, SVG Export Plug-In . SVG Version: 6.00 Build 0) --> <svg xmlns="http://www.w3.org/2000/svg" xmlns:xlink="http://www.w3.org/1999/xlink" version="1.1" id="Layer_1" x="0px" y="0px" viewBox="0 0 365 112" style="enable-background:new 0 0 365 112;" xml:space="preserve"> <style type="text/css"> .st0{fill-rule:evenodd;clip-rule:evenodd;fill:#E91720;} </style> <path class="st0" d="M348.3,17.1c0,0,3.6-1.9,6.2-3.6c0,0,5.8-3.6,7.4-5.8c0,0-3.1,7.5-15.1,15.6c0,0-4.6,3.4-11,5.8 c0,0-5.3,2.2-9.1,2.4c-3.6,0.5-9.4,0.7-11.3,0c0,0,3.1-3.6,7-8.6c0,0,5.8,0.2,12-0.5C340.9,21.2,345.2,18.8,348.3,17.1L348.3,17.1z M251.8,9.2L251.8,9.2c-0.7-0.6-1.6-0.9-2.5-1c-5.5,0-12.7,4.3-12.7,4.3c-21.1,12.5-38.2,38-38.2,38c-17.8,23.8-16.6,39.4-16.6,39.4 c0,14.4,10.6,13.2,10.6,13.2c16.8-1.7,28.1-26.2,28.1-26.2c2.4-6,2.2-9.1,2.2-9.1c0-2.9-1.2-5.1-4.1-5.1c-4.3-0.2-8.2,5.3-8.2,5.3 c-3.6,5-4.1,11.3-4.1,11.3c-3.6,0-8.9,3.6-13.5,8.2c0,0,0.5-15.1,14.2-26.2c0,0,10.8-8.2,17.1-2.4c0,0,5,4.1,1,15.6 c0,0-3.8,11.8-13,21.6c0,0-7.2,7-13.5,10.1c0,0-14.2,7.7-24.3,0.5c0,0-7.2-4.8-7.2-16.6c0,0-0.2-13.4,11.5-32c0,0,13-21.9,30.3-35.6 c0,0,15.1-12.3,27.6-16.3c0,0,12.3-5.3,18.7-0.5c0,0,0.6,0.4,1.3,1.4l0,0c0.8-0.3,1.6-0.5,2.5-0.7c0,0,14.2-5,27.9,0.7 c0,0,9.9,4.3,20.4,10.6c-1.9,1.9-4.6,4.6-7.4,8.2c-19.7-11.5-24.5-13.4-24.5-13.4s-5-2.4-11-2.6c-2-0.1-4.1,0.3-6,0.9l0,0 c1.1,3.5,1.4,9.1-2.4,17.4c-2.6,6.3-11.8,19.5-22.3,19c0,0-7.2,0-6.5-8.7c0,0,0-8.6,11.5-19.5C238.7,19.1,243.8,13.1,251.8,9.2 L251.8,9.2z M254.2,12.4L254.2,12.4c-3.7,1.6-6.3,3.5-6.3,3.5c-6.7,4.8-11.1,11.3-11.1,11.3c-11.1,15.4-1.7,16.1-1.7,16.1 c7-0.7,15.1-12.3,17.5-17.1C255.3,20.8,255.5,15.7,254.2,12.4L254.2,12.4z M9.3,102.2c4.6,4.3,10.8,6,10.8,6 c12.5,3.1,27.4-1.2,27.4-1.2c11.3-2.6,15.9-3.4,15.9-3.4c5.3-1.2,14.9-2.6,14.9-2.6c32.4-6,39.4,9.1,39.4,9.1 c13-14.4,40.8-0.5,40.8-0.5c-9.8-11.3-27.9-18.3-43.5-18.3c-5.8,0-14.7,0.2-22.6,2.2c-5.8,1.2-30.3,7-30.3,7 c-14.9,3.6-21.9,3.6-21.9,3.6c-13.5,0-18.5-6.2-18.5-6.2C9.2,83.7,21,60.9,32.8,44.1c8.7-12.5,18-21.4,18-21.4 c7-7.5,16.3-12.5,16.3-12.5C78.6,3.5,81,9.5,81,9.5c0.5,0.5,0.2,3.1-0.2,3.6c-0.2,0.2-2.2,0.7-4.3,1.9c-4.1,2.9-3.4,6-3.4,6h-0.2 c0,2.9,3.4,2.9,3.4,2.9c2.2,0,4.3-2.4,4.3-2.4c5.8-6.5,4.1-12.7,4.1-12.7C81.3-1.3,63.8,5.7,63.8,5.7c-13,3.8-29.3,18.5-29.3,18.5 C17.4,39-11.6,78.9,9.3,102.2L9.3,102.2z M172.4,39.2H183l5-8.2h-10.6L172.4,39.2L172.4,39.2z M132.1,74.3c-0.2,0-3.6,3.6-8.2,6.2 c-7.4,4.6-11.5,1.2-11.8,1.2c-4.8-3.1,0-13.7,0-13.7C96.2,84.8,86.4,83.1,86.4,83.1c-7.7-0.7-11.1-5.5-10.8-11 c0.7-10.6,6.5-18,6.5-18c0.2-0.5-3.4,1.2-5.5,0.7c-8.4,16.6-18.3,22.8-18.3,22.8c-3.4,2.9-14.7,8.4-20.2,2.6 c-8.2-8.6,8.7-31,12.3-35.3c0,0,7.7-8.4,13.5-11.5c0,0,10.6-7,16.1-1.9c4.6,3.9,1.4,13,1.4,13c-1.2,3.1-1.7,4.1-2.6,6 c5.3,0,8.4-3.8,13.5-7.9c0,0,18-19.7,28.4-10.1c0,0,4.8,4.6-2.2,13.2c0,0-4.3,5-6.7,2.4c0,0-2.4-2.4,1.9-7.2c0,0,2.2-2.2,4.6-1.9 c0,0,1,0,1-1c0,0,0.5-1.7-1-3.1c-1-1.2-3.4-1.4-6.2,0c0,0-7.7,4.1-16.6,17.1c0,0-10.6,14.7-6.5,21.4c0,0,7.2,9.6,27.6-14.7 c0,0,7.4-9.6,13.7-16.3c0,0,16.6-18.3,25.2-10.1l0.7,1c0,0,0.5,0.7,1,0l1.4-2.2h10.1L145,69.5c-1.4,2.6-0.2,3.9-0.2,3.9 c2.4,2.4,7.9-3.1,7.9-3.1c6.2-5.5,10.8-13.2,10.8-13.2h3.1c-2.9,5.5-6.2,9.9-6.2,9.9c-7,8.9-9.4,10.1-11.1,11.3 c-8.9,7.2-14.9,5-16.3,4.1C130.1,80.6,132.1,74.3,132.1,74.3L132.1,74.3z M283.7,71.2c18.7-10.2,37.6-30.7,42.5-37 c1.2,0.5,4.8-0.7,4.6-0.5c-18.1,22.8-37.7,37.4-50.2,43.4c-6.3,12.5-7,17.8-7,20.9c0,1.5,0.5,3.6,3.4,3.8c0,0,4.3-0.2,14.6-16.6 c0,0,10.3-14.4,19.7-21.4c3.4-2.4,11.3-9.1,18.3-4.1c0.7,0.5,1,1.2,1,1.2s0.5,0.7,1-0.2l2.2-3.4c0,0.2,10.6,0,10.6,0 c-0.2,0-24.5,40.1-24.5,40.1c-1,2.2,0,3.6,0,3.6c2.6,2.4,8.4-3.6,8.4-3.6c6.2-5.8,10.3-13.2,10.3-13.2l3.4,0.2c-1.9,4.3-6,9.9-6,9.9 c-4.8,6-10.3,10.1-10.3,10.1c-11.5,9.4-16.3,5-16.3,5c-2.6-3.1-1.9-7-1.9-7s-3.1,2.4-5.5,4.1c-3.6,2.9-9.9,5.8-13.9,2.6 c-4.6-3.6-3.1-8.9-3.1-8.9c0.2-1.5-5.8,8.9-15.1,9.4c-1.2,0-3.6-0.2-5.5-1.9c-1.2-1-1.9-2.6-2.2-6.2c-0.1-5.8,2.1-12.9,5.4-20.5 c-1.8,0.3-4.1,0.4-6.8,0.5c-8.2,16.6-18.3,22.6-18.3,22.6c-3.1,3.1-14.7,8.4-19.9,2.9c-8.4-8.9,8.4-31.2,12.3-35.6 c0,0,7.7-8.2,13.5-11.5c0,0,10.6-7,16.1-1.9c4.3,3.8,1.4,13,1.4,13c-1.2,3.1-1.7,4.3-2.6,6c2,0.1,4.3-0.1,6.6-0.5 c7.2-14.7,18-29.9,24.7-37.9c0,0,27.1-33.4,41.8-33.4c0,0,4.6-0.5,4.6,4.1c0,0,0,4.3-2.6,9.1c0,0-2.2,1-4.3,0.5 c0.7-1,1.9-3.6,1.9-3.6s1.4-2.2,1.4-4.6c0-1.9-0.7-1.9-2.4-1.9c-4.1,0-12.5,9.4-12.5,9.4c-17.1,17.3-28.8,37-28.8,37 C289.3,61.5,286.2,66.7,283.7,71.2L283.7,71.2z M328.4,63.5c-4.6-6-19.9,14.2-19.9,14.2c-14.9,21.1-8.9,23.1-8.9,23.1 c3.6,2.9,11.3-6.2,11.3-6.2l16.8-26.9C329.3,65.2,328.4,63.5,328.4,63.5L328.4,63.5z M252.4,63.7c0,0-8.6,7.2,1,12 c0,0,2.6,1.2,5.5,1.2C266.9,61.8,257.7,58.7,252.4,63.7L252.4,63.7z M248.1,77.7c-3.1-2.6-3.4-4.6-3.4-4.6c-3.4,3.6-4.6,5.5-4.6,5.5 c-11.3,16.3-6,20.2-6,20.2c4.8,4.6,12.3-3.8,12.3-3.8c5.5-5.8,8.4-9.9,10.3-13.9C252.2,80.6,249.6,78.9,248.1,77.7L248.1,77.7z M68.4,37.1c0,0-8.6,7,1.2,11.8c0,0,2.4,1.4,5.3,1.4C82.8,35.2,73.9,32,68.4,37.1L68.4,37.1z M64.1,51C61,48.4,61,46.4,61,46.4 c-3.4,3.4-4.8,5.3-4.8,5.3C45.1,68,50.4,72.1,50.4,72.1c4.8,4.6,12-4.1,12-4.1c5.5-5.5,8.4-9.6,10.6-13.7 C68.4,53.7,65.7,52.2,64.1,51L64.1,51z M153.4,35.4c-4.6-6.2-17.5,12.5-17.5,12.5c-10.8,14.2-12.7,17.8-12.7,22.8 c0,1.9,0.7,2.4,0.7,2.4c4.8,2.9,12.3-7.7,12.3-7.7l17.1-26.2C154.9,36.8,153.4,35.4,153.4,35.4L153.4,35.4z"></path> </svg> 