<?xml version="1.0" encoding="UTF-8"?> <svg xmlns="http://www.w3.org/2000/svg" viewBox="0 0 288.01 119.1"><defs><style>.cls-1{fill-rule:evenodd;}</style></defs><g id="Layer_2" data-name="Layer 2"><g id="Layer_1-2" data-name="Layer 1"><path class="cls-1" d="M144.89,13a8.77,8.77,0,0,1,5.31,2.12,7.25,7.25,0,0,1,1.59,7.65c-3.72,7.65-12.55,12.76-18.59,14.45a21,21,0,0,1-11.47-.42c-1.59,1-2.94,4.05-4.89,2.76-2.82-2.2-.38-5.65-2-8.09-.34-.5-1.18-.54-1.61-1.36-2.23-4.89.53-9.56,3.61-13.28C122,11.09,136.71,4.71,144.89,13Zm-17.11,3.82c-2.87.53-6.11,1.78-7.86,3.83s-2.87,4-1.81,6.16c3.72-2.76,5.52-6.59,9.67-8.92,0-.43.64-.75,0-1.07Zm17.32,1.06c-7.33-.64-12.85,4.89-18.06,10.2-.32.85-2.23,1.81-.74,2.76a24.1,24.1,0,0,0,18.81-6.06c1.49-1.38,2.55-3.19,1.81-5.1a3.88,3.88,0,0,0-1.82-1.8Zm63.53,31.66h0c-2.13-4.14-4.14-9.14-8.92-11.26-1.81,1.06-.85,3.93-.75,5.63,1.81,6.59,3.72,13,4.57,19.87.07,1.76,1.17,4.67-1.06,5.63-2.55-3-4.35-6.69-6.59-10-3.08-4.36-5.63-10.3-10.94-12.43-3.3,2.87-3.93,7.33-5.42,11.16-.64,7.54-3.19,15.4-.74,22.95a3.83,3.83,0,0,0,4.36,2.55c5-5.74,2-15.3,3.61-22.63.32-.32.32-1.17,1-.85,4.36,7.22,7.33,15.3,14.34,20.93,1.91,1.44,4.89-.32,6.59-2.23,6.26-8,3.39-21,0-29.33ZM176.55,47h0c-.32-1-1.27-1.28-2.13-1.59C161.88,43.06,146.91,42.32,137,51c-1.91,2.12-1.91,5.63-1.06,8.18.44,1.2,2.34,2.23,3.82,2.55,7.76.74,15.72.74,22.95,2.55,2.44,1,6.27,1.7,6.59,5.1a3.34,3.34,0,0,1-2.23,2.23c-8.29,2.34-17.64,5-26,1.28-1.12-.56-.42-2.34.53-3,6.8-3.29,12.32,5.74,19.65,1.49,1.1-.75,3.4-.64,3-2.76-6.59-3.93-16-5.63-23.69-2.55A6.35,6.35,0,0,0,137.45,72c.21,3.4,3.12,6.15,6.16,7.86,8,4.57,20,4.78,27.84-.21a10.86,10.86,0,0,0,4.25-9.45C175.38,66,173.86,61,169.64,60c-8-2-16.57-2.34-24.75-3.61-.74-.32-2.12-.53-1.81-1.7,9.56-3.19,20.93-2.23,31.13-3.83,1.06-.24,2.34-2.23,2.34-3.83Zm-46.43,4h0c-.11-2.55-.53-5.1-3.08-6.38-1-.64-2.14.26-2.55,1.28-2.12,7-2,15.19-2.34,22.74.21,4.78-.64,10.09,1.81,14,.67.91,2.87,1.28,4.57,1,1.06-.53,2.66-.85,2.87-2.23A259.07,259.07,0,0,0,130.12,51Zm118-1.49h0c-1.06-1.59-2.76-4.1-4-4.36a64.34,64.34,0,0,0-19.66,1.28c-2.76.42-5.74,0-8.18,1.27-.53,4.46,4.57,4.36,6.59,6.59-1.81,2-1.06,6.37-4.57,6.37a2.53,2.53,0,0,0-1.81,3.08c2,3.4-1.28,6.48-2,9.67-1.17,4.46.37,9.71,3.82,11.26,9.21,3.85,17.85-1.59,24.54-6.91.74-1.7-.32-3.19-1.06-4.57-3.93-.85-8.29.32-12.22,1-2.14.29-4,1.49-5.84.32,1-2.66.74-6,3.29-7.65,2-1,8.82,0,13-.53,1.52-.08,2.14-3.62,1.59-4.57-2.23-3.19-7.33-1.38-10.73-1.59-.59.06-1.06-.43-1.6-.74-.53-1.91.64-4,2.13-5.31,5.53-.64,12,.32,16.79-1.81,1.06-.57.53-1.9,0-2.76ZM96.44,25.32c9.8,8,22.52,21.67,20.93,37.4-1.91,12.43-15.09,21.78-26.24,24.76-10.84,3.19-24.43,2.87-35.49.32-.74,2-1.49,4.46-3.82,5.31a5,5,0,0,1-4.57-.74c-3.29-3.08-.64-9-5.42-10.94C32.48,77.5,22.39,69.74,17.61,60.18a5.72,5.72,0,0,1,1.27-5.31c7.33-5.84,16.57-8.18,25.82-10,.53.21.32-.53.74-.74.53-6.37.74-12.85,2.76-18.59A1.66,1.66,0,0,1,50.54,25c5.84,4.46,3.08,12.86,5.63,18.91,11.16.53,22.31,1.06,31.13,7.33A9.65,9.65,0,0,1,90.06,61c-.94,2.67-4,4.57-6.91,4.78-1.91,0-5.53.18-5.31-1.27s6.5-3.85,4.57-5.84c-2.77-2.86-16.66-4.57-25.27-5.63-1.06-.21-2,.11-2,1.27-.21,8.07-.85,17,.53,24.75a1.93,1.93,0,0,0,1.28,1.28C72.1,82.81,88.14,81.43,100,72.72c5.53-4.46,7.33-10.73,6.38-17.64-4.78-19.23-24.86-30.81-41.33-38.25a116.32,116.32,0,0,0-52.8-9.67c-3,.22-7.83,1.27-7.86,2.34s5.44.74,4.78,2.76-6.21.82-7.86.32S-.14,9.71.29,8.22C4.43.89,16,.3,21.22,0,50.12-.71,78.06,10.3,96.44,25.32Zm-52,28.47c-7.33.11-15.09.85-21.89,3.4-1.38.53-3.08,2-2,3.82a35.06,35.06,0,0,0,10.41,8.92c3.7,2.15,8.61,4.89,13.07,5.52a124.14,124.14,0,0,0,1-20.82c-.43-.2,0-.62-.53-.84ZM264,44.13c-.32,9.24-8.93,15-8.93,24.22.32.32.53.74,1,.53,6.91-7.54,13.71-18.27,23.8-21.46,2.66-.21,5.06,2.1,6.05,3.83a23.21,23.21,0,0,1-2.23,23.27c-5,6.26-13.81,12.54-23.8,11.47a136.73,136.73,0,0,0-8.61,32.08c-.85,2.23-2.87.21-4.14-.21-8.6-6.8-1.54-24.8-1-27.09s2.89-7.69,4.57-12.22c-4-7.22-1.49-15.94,1.8-22.63A45.22,45.22,0,0,1,262.7,43.6a1.41,1.41,0,0,1,1.29.53Zm17.1,11.47c-1.27-.21-1.81,1.49-2.87,1.81-4.89,5.52-9.77,11-12.22,17.63,3.29.42,6.05-1.7,8.93-2.87a15.53,15.53,0,0,0,7.65-14c-.22-1-1.06-1.7-1.49-2.55Z"></path></g></g></svg> 