<?xml version="1.0" encoding="UTF-8"?> <svg xmlns="http://www.w3.org/2000/svg" xmlns:xlink="http://www.w3.org/1999/xlink" width="265px" height="154px" viewBox="0 0 265 154" version="1.1"><title>Hyundai_hyundai</title><defs><polygon id="path-1" points="0.112561983 0.940902439 226.568512 0.940902439 226.568512 154 0.112561983 154"></polygon></defs><g id="Page-1" stroke="none" stroke-width="1" fill="none" fill-rule="evenodd"><g id="Group" transform="translate(-68.000000, -123.000000)"><g id="Hyundai_hyundai" transform="translate(68.000000, 123.000000)"><g id="Group-4"><mask id="mask-2" fill="white"><use xlink:href="#path-1"></use></mask><g id="Clip-2"></g><path d="M99.0489174,11.8936829 C100.994364,11.5143171 102.273818,11.5218293 102.73157,12.013878 C103.009223,12.3256341 103.097397,12.8420976 102.727818,13.4862683 C102.517702,13.8299512 102.309463,14.1341951 101.91362,14.6037073 C85.4139091,34.0790732 72.8501157,62.7963171 69.2781488,71.0860244 C69.006124,71.6607073 68.7322231,72.2222439 68.5221074,72.5997317 C68.1975537,73.189439 67.7491818,73.6683415 66.9612479,73.7171707 C66.5222562,73.7453415 65.9256777,73.6382927 65.0082975,73.0842683 C54.0522645,66.3232927 47.5499339,57.8983659 47.5499339,48.7654146 C47.5499339,32.2667561 68.7453554,18.0893659 99.0489174,11.8936829 Z M115.96886,24.3113415 C117.520339,20.6998537 120.20119,12.9810732 126.354579,9.91985366 C128.215603,8.99021951 130.519372,8.54512195 132.58676,8.48878049 C133.048264,8.47 133.374694,8.48878049 133.506017,8.48878049 C150.735504,8.48878049 166.766207,10.8720244 180.194851,14.9811951 C180.296157,15.0056098 180.611331,15.129561 180.703256,15.1614878 C181.941438,15.5765366 182.575537,16.1493415 182.579289,16.8573659 C182.579289,17.4714878 182.256612,17.9316098 181.810116,18.3729512 C181.624388,18.558878 181.337355,18.8049024 180.960273,19.1204146 C177.86857,21.7177561 168.531554,28.4768537 150.958752,35.2077805 C144.784727,37.5666098 137.070479,40.503878 128.999785,42.2147805 C124.253421,43.2232927 106.684372,45.893878 115.96886,24.3113415 Z M197.964636,24.9198293 C198.294818,24.3357561 198.74319,23.8587317 199.533,23.8042683 C199.973868,23.7742195 200.57795,23.8793902 201.48595,24.4390488 C212.438231,31.1906341 218.934934,39.617439 218.934934,48.7503902 C218.934934,65.256561 197.74514,79.426439 167.454711,85.6333902 C165.505512,86.007122 164.218554,85.9996098 163.768306,85.507561 C163.475645,85.1958049 163.394975,84.6793415 163.768306,84.0257805 C163.965289,83.6858537 164.182909,83.3834878 164.582504,82.9102195 C181.080339,63.4367317 193.646008,34.725122 197.217975,26.4335366 C197.491876,25.8607317 197.760149,25.293561 197.964636,24.9198293 Z M150.816174,73.1349756 C149.264694,76.7520976 146.587595,84.467122 140.430455,87.5339756 C138.565678,88.4579756 136.265661,88.9124634 134.198273,88.9631707 C133.740521,88.9781951 133.410339,88.9669268 133.271512,88.9669268 C116.038273,88.9669268 100.015074,86.5799268 86.5901818,82.4820244 C86.4813719,82.4463415 86.1737025,82.3261463 86.0780248,82.2923415 C84.839843,81.8772927 84.2057438,81.3044878 84.2057438,80.6020976 C84.2057438,79.9767073 84.5246694,79.5147073 84.9711653,79.080878 C85.1587686,78.887439 85.4476777,78.6489268 85.8210083,78.3277805 C88.9164628,75.7360732 98.2497273,68.9694634 115.837537,62.2422927 C122.000306,59.8834634 129.710802,56.9443171 137.792752,55.2315366 C142.52786,54.2342927 160.096909,51.552439 150.816174,73.1349756 Z M133.252752,96.6030732 C184.79676,96.6030732 226.568512,75.191439 226.568512,48.7729268 C226.568512,22.3506585 184.79676,0.940902439 133.252752,0.940902439 C81.7143719,0.940902439 39.9351157,22.3506585 39.9351157,48.7729268 C39.9351157,75.191439 81.7143719,96.6030732 133.252752,96.6030732 L133.252752,96.6030732 Z" id="Fill-1" fill="#06396A" mask="url(#mask-2)"></path><polyline id="Fill-3" fill="#06396A" mask="url(#mask-2)" points="25.6078512 115.732878 25.6078512 130.317805 9.09500826 130.317805 9.09500826 115.732878 0 115.732878 0 154 9.09500826 154 9.09500826 138.620659 25.6078512 138.620659 25.6078512 154 34.7103636 154 34.7103636 115.732878 25.6078512 115.732878"></polyline></g><polyline id="Fill-5" fill="#06396A" points="68.1252779 116 58.4981011 131.050059 48.8709244 116 38 116 53.9028807 140.844719 53.9028807 154 63.1047147 154 63.1047147 140.844719 79 116 68.1252779 116"></polyline><path d="M107.829909,116 L107.829909,143.860326 C107.829909,144.919611 107.025681,145.773753 105.878947,145.773753 L91.1700908,145.773753 L91.1700908,116 L82,116 L82,154 L109.112889,154 C111.525573,154 113.470859,153.293188 114.882515,151.911268 C116.290387,150.518159 117,148.606596 117,146.236258 L117,116 L107.829909,116" id="Fill-6" fill="#06396A"></path><path d="M153.116299,116 L126,116 L126,154 L135.173692,154 L135.173692,124.228112 L149.891321,124.228112 C151.073498,124.228112 151.837657,125.145662 151.837657,126.134079 L151.837657,154 L161,154 L161,123.776796 C161,121.398999 160.283128,119.489301 158.879648,118.105516 C157.461035,116.706812 155.529831,116 153.116299,116" id="Fill-7" fill="#06396A"></path><path d="M194.831801,126.203082 L194.831801,143.806243 C194.831801,144.833824 194.06542,145.773753 192.869485,145.773753 L178.166306,145.773753 L178.166306,124.228112 L192.816501,124.228112 C194.018112,124.228112 194.831801,125.065469 194.831801,126.203082 Z M196.124243,116 L169,116 L169,154 L196.124243,154 C198.53125,154 200.463289,153.293188 201.874946,151.911268 C203.286603,150.523753 204,148.610326 204,146.236258 L204,123.776796 C204,121.398999 203.286603,119.485571 201.871161,118.096192 C200.459505,116.706812 198.527465,116 196.124243,116 L196.124243,116 Z" id="Fill-8" fill="#06396A"></path><path d="M237.831711,124.228112 L237.831711,134.022772 L221.15504,134.022772 L221.15504,126.160188 C221.15504,125.223989 221.891304,124.228112 223.112103,124.228112 L237.831711,124.228112 Z M219.881246,116 C217.469933,116 215.529905,116.706812 214.121728,118.105516 C212.709766,119.494896 212,121.400864 212,123.776796 L212,154 L221.15504,154 L221.15504,142.247154 L237.831711,142.247154 L237.831711,154 L247,154 L247,116 L219.881246,116 L219.881246,116 Z" id="Fill-9" fill="#06396A"></path><polygon id="Fill-10" fill="#06396A" points="256 154 265 154 265 116 256 116"></polygon></g></g></g></svg> 