<?xml version="1.0" encoding="UTF-8"?> <svg xmlns="http://www.w3.org/2000/svg" viewBox="0 0 340.88 80.15"><g id="Layer_2" data-name="Layer 2"><g id="Layer_1-2" data-name="Layer 1"><path d="M197.79,71c0,.63.19,1,.57,1a1.55,1.55,0,0,0,.82-.32l106.24-69A10.26,10.26,0,0,1,311.54.84h23.35a5.66,5.66,0,0,1,6,6V51.41c0,5.39-1.2,8.5-6,11.37l-28.32,17a1.92,1.92,0,0,1-.95.35c-.34,0-.66-.26-.66-1.23v-52c0-.56-.19-1-.58-1a1.62,1.62,0,0,0-.82.31L225.91,76.64a10.22,10.22,0,0,1-6,1.84h-51.5a5.66,5.66,0,0,1-6-6V8.24c0-.47-.21-.9-.57-.9a1.65,1.65,0,0,0-.84.31L109.82,38.42c-.51.31-.65.56-.65.81s.09.43.45.79l36.59,36.59c.49.49.82.86.82,1.24s-.54.63-1.16.63H112.76c-2.59,0-4.59-.4-6-1.8L84.58,54.5a.93.93,0,0,0-.64-.35,1.4,1.4,0,0,0-.69.24L46.13,76.69a10.42,10.42,0,0,1-6,1.79H6a5.66,5.66,0,0,1-6-6V28.72c0-5.39,1.21-8.48,6-11.35L34.48.25A1.44,1.44,0,0,1,35.25,0c.43,0,.67.46.67,1.44V60c0,.61.17.9.57.9a1.82,1.82,0,0,0,.85-.36L133.63,2.63A10.41,10.41,0,0,1,140,.83H191.8a5.66,5.66,0,0,1,6,6Z"></path></g></g></svg> 