<?xml version="1.0" encoding="UTF-8"?> <svg xmlns="http://www.w3.org/2000/svg" viewBox="0 0 152.41 108"><defs><style>.cls-1{fill:none;}.cls-2{fill:#ff5f00;}.cls-3{fill:#eb001b;}.cls-4{fill:#f79e1b;}</style></defs><g id="Layer_2" data-name="Layer 2"><g id="Layer_1-2" data-name="Layer 1"><rect class="cls-1" width="152.41" height="108"></rect><rect class="cls-2" x="60.41" y="25.7" width="31.5" height="56.61"></rect><path class="cls-3" d="M62.41,54A35.94,35.94,0,0,1,76.16,25.7a36,36,0,1,0,0,56.6A35.94,35.94,0,0,1,62.41,54Z"></path><path class="cls-4" d="M134.4,54A36,36,0,0,1,76.15,82.3a36,36,0,0,0,0-56.6A36,36,0,0,1,134.4,54Z"></path><path class="cls-4" d="M131,76.31V75.15h.47v-.24h-1.19v.24h.47v1.16Zm2.31,0v-1.4h-.36l-.42,1-.42-1h-.36v1.4H132v-1l.39.91h.27l.39-.91v1.06h.25Z"></path></g></g></svg> 