<?xml version="1.0" encoding="UTF-8"?> <svg xmlns="http://www.w3.org/2000/svg" xmlns:xlink="http://www.w3.org/1999/xlink" width="208px" height="164px" viewBox="0 0 208 164" version="1.1"><title>McDonalds_mcdonalds</title><g id="Page-1" stroke="none" stroke-width="1" fill="none" fill-rule="evenodd"><g id="Group" transform="translate(-107.000000, -118.000000)" fill="#F3B532"><g id="McDonalds_mcdonalds" transform="translate(107.000000, 118.000000)"><path d="M132.968428,11.5677497 C148.931433,11.5677497 161.873713,78.9192472 161.873713,162 L185,162 C185,72.532778 161.703894,0 132.968428,0 C116.624618,0 102.040751,21.8015515 92.5,55.8816049 C82.964395,21.8015515 68.3805285,0 52.0315716,0 C23.3012517,0 0,72.532778 0,162 L23.1314325,162 C23.1314325,78.9192472 36.0737135,11.5677497 52.0315716,11.5677497 C67.9997218,11.5677497 80.9420028,73.7379666 80.9420028,150.4271 L104.063143,150.4271 C104.063143,73.7379666 117.005424,11.5677497 132.968428,11.5677497" id="Fill-1"></path><path d="M200.02033,148 C204.360864,148 208,151.444197 208,155.961844 C208,160.555803 204.360864,164 200.02033,164 C195.669632,164 192,160.555803 192,155.961844 C192,151.444197 195.669632,148 200.02033,148 L200.02033,148 Z M200.02033,162.829889 C203.700127,162.829889 206.551461,159.874086 206.551461,155.961844 C206.551461,152.125914 203.700127,149.175199 200.02033,149.175199 C196.304956,149.175199 193.453621,152.125914 193.453621,155.961844 C193.453621,159.874086 196.304956,162.829889 200.02033,162.829889 L200.02033,162.829889 Z M196.919949,151.317011 L200.518424,151.317011 C202.719187,151.317011 203.761118,152.197138 203.761118,153.987917 C203.761118,155.682035 202.703939,156.389189 201.321474,156.536725 L203.97967,160.667727 L202.419314,160.667727 L199.898348,156.648649 L198.363405,156.648649 L198.363405,160.667727 L196.919949,160.667727 L196.919949,151.317011 Z M198.363405,155.47345 L199.878018,155.47345 C201.148666,155.47345 202.317662,155.407313 202.317662,153.926868 C202.317662,152.685533 201.2554,152.497297 200.27446,152.497297 L198.363405,152.497297 L198.363405,155.47345 L198.363405,155.47345 Z" id="Fill-3"></path></g></g></g></svg> 