<?xml version="1.0" encoding="UTF-8"?> <svg xmlns="http://www.w3.org/2000/svg" viewBox="0 0 1024 276.74"><defs><style>.cls-1{fill:#d81f26;}</style></defs><g id="Layer_2" data-name="Layer 2"><g id="Layer_1-2" data-name="Layer 1"><path class="cls-1" d="M140.8,258.9c-15.4,2.71-31.08,3.52-47.29,5.68L44.05,119.72V270.8c-15.4,1.62-29.46,3.78-44,5.94V0H41.08L97.29,157V0H140.8V258.9Zm85.13-157.55c16.76,0,42.43-.81,57.84-.81v43.24c-19.19,0-41.62,0-57.84.81v64.32c25.41-1.62,50.81-3.79,76.49-4.6v41.62l-119.73,9.46V0H302.42V43.24H225.93ZM463.22,43.24H418.36V242.15c-14.6,0-29.19,0-43.24.54V43.24H330.26V0h133Zm70.26,55.13h59.19v43.24H533.48v98.11H491.05V0H611.86V43.24H533.48ZM682.13,201.88c24.59.54,49.45,2.44,73.51,3.78v42.71c-38.65-2.44-77.3-4.87-116.75-5.68V0h43.24V201.88Zm110,49.46c13.78.81,28.38,1.62,42.43,3.24V0H792.12ZM1024,0,969.14,131.62,1024,276.74c-16.22-2.16-32.43-5.13-48.65-7.84l-31.08-80-31.61,73.51c-15.68-2.7-30.82-3.52-46.49-5.68L921.84,130,871.58,0h46.48l28.38,72.7L976.71,0Z"></path></g></g></svg> 