<?xml version="1.0" encoding="UTF-8"?> <svg xmlns="http://www.w3.org/2000/svg" xmlns:xlink="http://www.w3.org/1999/xlink" width="210px" height="211px" viewBox="0 0 210 211" version="1.1"><title>Starbucks_starbucks</title><defs><polygon id="path-1" points="0 0.3798 210 0.3798 210 210.91269 0 210.91269"></polygon></defs><g id="Page-1" stroke="none" stroke-width="1" fill="none" fill-rule="evenodd"><g id="Group" transform="translate(-95.000000, -95.000000)"><g id="Starbucks_starbucks" transform="translate(95.000000, 95.000000)"><g id="Group-3"><mask id="mask-2" fill="white"><use xlink:href="#path-1"></use></mask><g id="Clip-2"></g><path d="M210,105.690628 C210,163.850959 162.992083,211 105.001458,211 C47.0108333,211 0,163.850959 0,105.690628 C0,47.5288414 47.0108333,0.3798 105.001458,0.3798 C162.992083,0.3798 210,47.5288414 210,105.690628" id="Fill-1" fill="#FFFFFE" mask="url(#mask-2)"></path></g><path d="M100.628975,91.6741433 C100.782421,92.2996059 100.240245,93.2407089 101.098082,93.5578039 C103.6146,93.0123423 108.177067,94.8901846 109.584388,91.9141464 C108.603794,90.8188596 107.000646,90.3228533 105.317122,90.3228533 C103.636521,90.3228533 101.891618,90.8101322 100.628975,91.6741433 Z M96.377784,98.0131338 L96.6057613,99.4298792 C99.6790698,101.467724 100.626052,104.925222 104.88455,104.611037 C108.659327,104.833585 111.490044,101.31354 113.372318,98.4960491 C108.261828,97.7934946 102.046526,98.8785994 96.377784,98.0145883 L96.377784,98.0131338 Z M180.42393,86.9715375 C188.444053,89.0850192 196.49048,97.7818581 204.985555,92.1396038 C197.586524,79.9227198 186.579316,68.6396659 189.639472,52.6641881 C189.959517,51.573265 189.252203,50.4677963 188.233612,50.3136125 C183.43586,52.2670921 179.718078,56.9711525 177.819729,61.5966664 C177.039345,64.3312469 176.576084,67.2389206 175.475655,69.8178628 C169.727998,66.84037 163.593072,63.9559694 156.590079,64.6541602 C154.064793,64.9668914 150.444924,65.1312572 149.97874,67.7116539 C157.925792,71.9386173 164.46114,78.9947079 169.333422,86.5075316 C172.723853,85.9577063 176.882976,86.4275305 180.42393,86.9715375 Z M153.519694,41.8480493 C147.694583,41.5411362 142.816455,44.8328148 137.463374,46.3208339 C136.99719,41.7884121 140.457767,36.999987 141.246919,32.4501105 C132.594014,33.0042994 125.738622,38.1883659 118.579259,42.32951 C116.923502,38.3454588 115.260437,34.3410438 113.61637,30.3409925 L123.058428,21.4114233 L123.301019,20.2332264 L110.545985,19.5263082 C108.34805,15.6935317 107.481445,11.0796543 104.886011,7.55379091 C102.759685,11.548024 101.331905,15.7764419 99.2099628,19.7663113 L86.4695426,20.4761386 L86.4695426,21.4099688 L96.1381156,30.0995348 C94.9558491,34.5650467 93.8583433,39.4218363 90.9472494,42.7964251 C85.2814305,39.4189272 79.6974496,35.7446982 73.4865313,33.3970317 C71.9915267,32.9170255 69.8608164,32.1359246 68.5236422,33.1570286 C70.4877538,37.4669021 73.2380946,42.1011434 72.7762945,46.8052038 C70.1779386,46.3281068 68.1349118,44.6699037 65.6929249,43.9731674 C62.774524,43.18043 59.3095623,41.6313192 56.4773835,42.5724222 C61.2006042,49.1485066 65.0542964,56.031504 66.3885477,63.9443329 C82.0546758,56.4169635 100.325005,52.277274 119.29388,55.4947699 C128.183531,56.9027879 136.358561,60.5071978 144.308536,63.4759632 C144.618352,55.180584 149.891056,48.5114075 153.519694,41.8480493 Z M119.257346,74.9655652 C118.944608,74.9742926 118.640638,74.9888383 118.333746,75.0004748 C116.685295,76.094307 111.880236,75.3073878 113.613448,78.9903442 C116.60638,76.6354048 120.777194,78.2863351 123.767203,79.4558047 C124.873477,78.9103431 124.632347,77.8136018 124.706878,76.8666805 C123.745282,75.0892032 121.452357,74.9233829 119.257346,74.9655652 Z M123.993719,67.2432843 C121.797246,62.3850401 116.761287,60.419924 112.190051,59.2446362 C109.948275,58.9711781 107.624661,58.7849939 105.317122,58.7631755 C104.886011,58.7588118 104.454901,58.7529935 104.02379,58.7631755 C97.5732031,58.8926317 91.4090494,60.5406528 87.6445022,65.8265388 C87.103787,67.3174671 84.7261013,69.413494 86.932804,70.7502384 C91.8913089,70.4360526 97.5483594,69.8164082 100.854029,74.052099 C100.854029,77.8150564 103.296016,82.8216661 99.2055786,84.623871 C95.8166093,81.5009218 91.802164,85.9547972 88.1136092,83.4471286 C86.3803977,82.4274792 85.2814305,83.6187672 84.5726551,85.1053317 C83.5467575,94.8160018 88.6572472,105.53323 97.7836436,110.935481 C101.480967,112.262044 106.454086,113.52606 110.315085,111.6424 C119.600773,107.338344 123.447158,97.474945 125.175985,88.3868284 C124.943624,86.6588062 125.026923,83.2900357 122.589321,83.205671 C119.836057,84.9395114 115.821612,83.9154983 112.903211,83.205671 C111.178768,83.7613145 111.099852,86.2733467 109.137202,86.7489892 L107.940322,85.7991588 C106.915886,81.4965581 106.284564,75.3859343 110.301932,72.4098961 C114.79133,70.6076911 120.062573,69.8207719 124.705417,71.2346083 C125.573484,69.7465892 124.23631,68.575665 123.993719,67.2432843 Z M85.5137919,77.3335956 C85.3559615,78.3488814 85.5912457,80.15545 87.1622427,79.4558047 C89.605691,76.0884887 93.9314129,78.7532502 96.6057613,78.9903442 L96.6057613,78.0434229 C95.1370618,75.7495753 92.1192862,74.5990151 89.054746,74.7124711 C88.3459706,74.7371987 87.6269655,74.8404727 86.9342654,75.0004748 C85.9098293,75.2273868 85.1952083,76.1612169 85.5137919,77.3335956 Z M60.4830605,66.760369 C52.2963395,61.4323006 41.9189911,66.4490923 34.2890606,69.3509477 C33.5817466,62.2192198 30.6721141,55.7216819 24.6044123,51.0219852 C24.0154711,50.7310724 23.2014754,50.1172463 22.4707792,50.0736094 C22.0309,50.0459727 21.6144031,50.2219749 21.289974,50.7805275 C24.0388534,67.6185618 13.0418745,79.3670763 5.2497295,92.1396038 C7.84516265,94.2501764 12.0130542,93.934536 15.1608937,93.3148917 C23.4221457,90.0261222 31.2917445,84.3024123 41.1283777,86.2646193 C44.0380103,81.3307378 48.9249069,76.5510401 52.9320452,72.6353535 C55.3813391,70.5262355 58.7454648,69.186582 60.4830605,66.760369 Z M208.7691,110.358019 C208.846554,113.008235 209.096452,115.287537 208.057402,118.000299 C197.273786,121.051975 190.193339,109.690375 179.729769,111.403851 L180.912035,117.293381 C190.5923,117.610476 196.638081,126.849868 206.63839,126.451317 C205.216455,129.274626 207.271173,136.716176 200.976955,133.741592 C194.44453,132.17939 189.719848,126.451317 182.560486,126.451317 C181.696803,128.029519 182.244825,130.214274 182.092841,132.084844 C189.645317,133.261586 195.075852,139.616577 202.626867,140.788956 C201.91663,143.372261 201.213701,146.263935 199.087374,147.839228 C192.945142,146.349754 188.145928,140.860229 181.607658,141.015868 L180.442928,146.425392 C186.658231,146.582484 190.672676,152.056009 196.258118,153.699667 C196.410103,155.980423 194.362692,158.019722 193.181887,160.054657 C188.224844,158.572457 184.444221,154.332402 178.778402,154.646588 C178.699487,152.52147 179.966514,150.109802 179.487178,147.839228 C173.125736,149.721434 168.85847,143.836267 164.142556,140.307495 C164.008108,128.755347 151.789405,121.177067 151.144931,110.358019 C151.020712,108.199446 151.350987,105.896871 152.338888,103.422658 C156.353334,94.1818119 155.093613,82.184567 150.690438,73.5691837 C149.353264,71.3000636 146.981423,69.5109498 144.771798,68.178569 C148.004398,74.9961111 151.944313,83.0514872 149.97874,91.4326857 C149.750762,97.9040415 145.914607,104.119394 145.869304,110.358019 C145.85469,112.582048 146.332565,114.806077 147.617129,117.051924 C152.736387,126.228769 161.944622,134.915426 158.482583,146.422482 C157.529755,149.958528 154.696115,152.690199 153.987339,156.287336 C159.976126,161.224127 165.639022,166.787835 173.584613,167.100566 C176.415331,165.30127 174.844334,157.318622 180.666521,161.000124 L189.170365,165.23436 C188.552196,167.500571 186.645078,169.531143 184.919174,171.09189 C181.692419,169.528233 178.546041,167.654755 174.522827,167.807484 C173.336176,169.059864 172.314663,170.466427 172.405269,172.264269 C175.235987,172.728275 177.834343,173.916653 180.198876,175.566129 C179.10137,177.919614 176.96043,179.394542 174.993396,181.196747 L168.39667,178.84908 C167.296241,180.418555 165.006239,182.066576 165.808544,183.787326 C167.299164,184.421516 168.949076,185.279708 170.04512,186.379359 C167.132565,189.511035 163.442549,191.527061 159.891365,193.653634 C156.832671,183.701506 146.753446,176.725417 147.620052,165.21836 L147.149484,164.74999 C144.782028,167.403115 145.572641,171.641715 145.726087,175.081759 C148.561189,182.289125 155.324513,187.857196 156.34895,195.762752 C155.166683,197.796233 152.496719,198.202056 150.447847,199.063158 C150.686054,184.811339 128.968299,174.003927 142.89537,159.587742 C147.541137,152.528743 155.323052,145.791202 152.565404,136.074713 C149.733226,126.69132 139.719764,120.875973 139.808909,110.358019 L139.824984,109.536191 C142.104757,98.5673227 149.03468,86.8959002 143.365938,75.2273868 C141.786173,70.5335083 138.255449,65.2010763 133.456236,63.2374147 C140.614136,71.3917012 143.449238,84.6951447 139.355877,95.6654673 C137.292391,100.030614 134.451444,105.229226 134.166472,110.359474 L134.148936,110.359474 C133.996951,113.038781 134.546434,115.703543 136.28403,118.228666 C141.717488,127.005506 151.156622,136.644902 145.726087,148.08214 C139.588239,157.242985 128.886461,166.562377 134.862095,178.627987 C139.19074,185.833897 145.885379,193.023808 144.080559,201.883558 L136.99719,204.231224 C141.72041,187.70883 118.579259,177.999615 128.266831,161.471403 C134.246849,152.62038 144.944242,144.316274 138.888232,132.567759 C135.268362,125.290575 127.787494,120.98361 128.025701,111.886766 L128.282906,110.359474 C130.719047,97.4589448 140.571756,85.2493336 133.682751,71.4629748 C131.872086,67.3916498 128.255139,63.243233 124.240694,60.8912028 L123.998103,61.1326604 C132.028455,68.8869418 134.471903,81.6449237 130.141797,91.9025099 C128.120691,97.9200417 123.686826,103.912846 122.786609,110.362383 C122.356959,113.402422 122.719385,116.553008 124.484747,119.872323 C129.599621,127.933518 138.566725,136.4849 132.971053,146.908307 C127.077257,155.516417 117.23624,163.893252 121.165924,175.087578 C125.497492,184.882612 134.537666,194.212187 129.655154,206.357797 L122.348191,208 C128.168917,196.164212 119.44002,184.420061 114.325146,174.155202 C108.106921,159.42774 127.689581,152.377468 128.005241,138.912568 C127.93071,130.221547 118.649406,125.28912 116.686756,117.297745 C112.670849,113.926065 108.504419,118.640308 103.702283,117.766115 C100.156945,118.474487 94.7117965,112.906416 92.5942387,118.941402 C90.074798,127.788061 78.5911754,134.291418 83.6373639,144.784643 C88.4409611,154.109854 99.9961919,160.92885 96.1366543,172.995914 C92.6804609,184.267332 81.2611396,194.999106 88.3445092,208 C85.4334153,207.061806 80.0028806,208.858193 80.0803344,204.232679 C75.5982435,188.489931 94.7176421,179.31745 88.8121549,163.581975 C86.0632755,153.944033 73.5420642,148.620329 76.2982505,137.027453 C78.3368931,127.484057 89.0927422,120.813426 87.5845851,110.362383 C87.4618281,109.486736 87.2455421,108.592179 86.9371882,107.656894 C82.9212815,96.3782037 74.7301764,85.0966044 79.6126888,71.932799 C80.9527858,68.1727508 83.6300569,64.9596186 85.9828989,61.5995755 C78.1922153,65.7494469 74.2610693,74.5262869 74.4232839,83.4529469 C74.0827795,93.1621624 81.2889061,101.477906 82.3133422,110.362383 C82.718148,113.946429 82.1277454,117.617749 79.6126888,121.513072 C74.5021991,128.414979 67.8163283,135.693617 70.8808684,144.783189 C73.7963465,153.951306 85.2843533,159.506287 84.5770393,170.162423 C84.4966627,182.769131 69.7819012,190.617959 73.9527155,204.715594 L66.6282161,202.350473 C63.720045,189.822312 77.0961709,183.413503 77.2496171,171.822081 C79.1421204,158.492455 62.0613644,153.545483 63.087262,140.553316 C63.0141924,130.679735 71.7445514,124.426564 75.6011663,116.122457 C76.2617157,114.102068 76.482386,112.192225 76.3947025,110.362383 C75.9226727,101.17972 67.6102719,94.0014459 68.9898265,83.6784043 C69.4530879,76.0812159 72.0514438,69.4207668 77.0099487,63.7072389 C70.1677088,66.4418195 67.3399143,74.2833747 65.4503337,80.8652773 C62.1709689,91.4166855 69.9996487,100.907716 70.7844165,110.362383 C71.1322279,114.536982 70.1092531,118.686854 66.1620319,122.929817 C60.4932902,129.580084 54.744172,137.97001 58.8360711,146.908307 C63.1705614,156.768797 76.787817,164.445986 70.8808684,176.745781 C67.6599592,184.501517 59.9423453,190.370683 60.2594674,199.532982 C58.2149793,198.67188 56.0944987,197.812233 54.3583644,196.250031 C54.3583644,184.580063 71.0343146,177.292697 63.0887234,164.995812 C62.3843322,167.42057 62.2338088,170.719522 61.6828638,173.45992 C58.9237547,180.593103 53.024113,186.300812 50.8159489,193.671089 C47.1244713,192.255798 43.2649336,189.273941 40.1930865,186.142265 L44.4472002,183.550232 C43.973709,181.979302 42.7169114,180.649831 41.6179442,179.318905 C38.8544509,178.931991 37.0408628,180.737105 34.7640132,181.444023 C32.7955175,179.717455 30.8971686,178.149435 29.3305558,176.034499 C30.7422609,172.032993 41.7743132,175.342126 36.1859481,168.760224 C32.4126326,166.412557 28.6247032,169.768237 25.3204946,171.334802 L20.8413265,165.70273 C24.69648,163.355063 28.5428652,160.057566 33.3391555,161.001579 C34.521422,163.120879 34.60326,166.236555 36.8801096,167.343478 C44.9879154,167.186385 50.7326495,161.083034 56.9479519,156.303336 C52.6149231,149.888709 49.0900443,141.031868 52.9378908,133.274677 C56.0199677,125.500032 64.0532425,118.951584 64.4171292,110.358019 C64.4989672,108.401631 64.1920748,106.343423 63.3327759,104.128121 C59.0859692,93.2392543 57.5865805,78.5219745 65.6929249,68.8840326 C61.285365,70.0636841 58.6855477,75.5313907 57.1890817,79.6841712 C52.3153376,90.317035 58.4794913,100.167343 58.6928546,110.358019 C58.7220825,112.189316 58.5730204,114.02643 58.1258343,115.876636 C53.9520972,124.259289 47.1916954,131.610656 46.095651,141.254416 C41.2920537,144.303182 37.350678,149.635615 30.5084381,147.836319 C30.2673084,149.635615 30.8197147,152.380377 31.4466521,154.416767 C26.0205017,154.191309 22.3202557,158.170997 17.7519427,160.051748 C15.3187241,159.275011 14.6859411,156.143334 13.7418815,153.951306 C19.0905782,152.153465 22.9486545,146.818124 29.0879646,146.902489 C29.7996628,144.934463 28.687543,143.130804 28.3762664,141.252961 C20.7375676,137.879827 8.63139184,157.932448 7.61426263,140.546043 C15.2456545,140.077674 20.1223214,133.024492 27.6806436,132.321938 L27.9071594,126.69132 C19.3302466,125.830218 13.8120284,134.605603 5.23803836,133.738683 L3.34699642,126.224405 C13.2640062,126.84114 19.175339,117.994481 28.620319,117.518839 C29.8741938,115.875181 30.0261786,113.447514 30.2673084,111.176939 C19.957184,109.840195 12.8825827,121.213432 1.94113679,117.758842 C1.94113679,117.758842 1.56263613,113.027145 1.35804117,110.358019 L1.37411649,110.358019 C1.29958547,109.313642 1.22797724,108.587815 1.22797724,108.587815 C10.9871566,112.355136 19.5596852,105.380501 27.9071594,101.779 C30.0305628,101.146265 33.3406169,102.243006 34.2934448,99.8953398 C34.2101454,98.0945894 37.5114312,95.986926 34.7640132,94.7301825 C22.5599241,93.0807068 14.4535797,107.731077 1.93821401,101.069173 L1,99.186967 C3.60127872,63.7843308 23.6588913,29.5613461 56.9450292,12.7189481 C70.4249139,5.05048605 87.1724724,1.14207225 104.063247,1.00388866 C124.446751,0.835159224 145.042156,6.15740935 160.363395,16.9531843 C175.241832,26.0369372 189.472873,41.0073112 197.199255,56.2031426 C204.585133,69.5196772 207.984332,84.4595053 209,100.365164 C196.090058,110.074379 187.429846,91.2188648 174.28462,95.4385553 C174.993396,97.4793087 175.383587,99.5898813 176.88736,101.31354 C188.537582,101.23063 196.560627,113.373331 208.755947,108.587815 L208.7691,110.358019 Z M104.406675,37.383992 C108.112766,39.5076556 112.039528,42.2436907 115.029537,45.142637 L113.854577,46.3164702 C107.953474,45.6924622 101.738172,46.4721086 96.1424998,46.5579279 C95.5184852,45.9310108 94.2616876,44.9884532 95.4322631,44.201534 L104.406675,37.383992 L104.406675,37.383992 Z" id="Fill-4" fill="#156D4F"></path><path d="M170.392387,200.202733 C170.566618,200.202733 170.756955,200.202733 170.963397,200.202733 C171.169839,200.202733 171.360176,200.179304 171.540264,200.130979 C171.717423,200.08412 171.863836,199.996258 171.978038,199.870322 C172.09224,199.742922 172.150805,199.552555 172.150805,199.299219 C172.150805,199.102994 172.112738,198.944842 172.036603,198.830622 C171.963397,198.716401 171.8653,198.628539 171.746706,198.5685 C171.628111,198.509925 171.493411,198.470387 171.34407,198.449886 C171.191801,198.432314 171.04246,198.422063 170.891654,198.422063 L169.455344,198.422063 L169.455344,200.202733 L170.392387,200.202733 Z M172.756955,203.005532 L172.020498,203.005532 L170.582723,200.690368 L169.455344,200.690368 L169.455344,203.005532 L168.838946,203.005532 L168.838946,197.981289 L171.035139,197.981289 C171.699854,197.981289 172.162518,198.101367 172.423133,198.338594 C172.685212,198.575822 172.81552,198.900911 172.81552,199.310934 C172.81552,199.556948 172.774524,199.767816 172.696925,199.942076 C172.617862,200.114871 172.506589,200.256915 172.364568,200.362349 C172.221083,200.469248 172.052709,200.548324 171.859444,200.599577 C171.664714,200.65083 171.458272,200.681582 171.235725,200.690368 L172.756955,203.005532 Z M170.510981,204.406931 C171.057101,204.406931 171.562225,204.304426 172.026354,204.103807 C172.489019,203.901725 172.885798,203.624959 173.219619,203.272047 C173.551977,202.919134 173.812592,202.506183 174.002928,202.031728 C174.191801,201.555809 174.286969,201.041816 174.286969,200.486821 C174.286969,199.942076 174.191801,199.429548 174.002928,198.955093 C173.812592,198.480638 173.551977,198.069151 173.219619,197.720631 C172.885798,197.372112 172.489019,197.098275 172.026354,196.896193 C171.562225,196.69411 171.057101,196.593069 170.510981,196.593069 C169.964861,196.593069 169.459736,196.69411 168.992679,196.896193 C168.525622,197.098275 168.124451,197.372112 167.787701,197.720631 C167.450952,198.069151 167.187408,198.480638 166.998536,198.955093 C166.808199,199.429548 166.713031,199.942076 166.713031,200.486821 C166.713031,201.041816 166.808199,201.555809 166.998536,202.031728 C167.187408,202.506183 167.450952,202.919134 167.787701,203.272047 C168.124451,203.624959 168.525622,203.901725 168.992679,204.103807 C169.459736,204.304426 169.964861,204.406931 170.510981,204.406931 Z M170.510981,205 C169.887262,205 169.300146,204.881386 168.75549,204.644159 C168.20937,204.406931 167.732064,204.083306 167.325037,203.676212 C166.916545,203.267654 166.594436,202.79027 166.355783,202.244061 C166.118594,201.697852 166,201.11357 166,200.486821 C166,199.870322 166.118594,199.288968 166.355783,198.74276 C166.594436,198.196551 166.916545,197.720631 167.325037,197.316466 C167.732064,196.913765 168.20937,196.593069 168.75549,196.355841 C169.300146,196.118614 169.887262,196 170.510981,196 C171.128843,196 171.711567,196.118614 172.257687,196.355841 C172.803807,196.593069 173.279649,196.913765 173.688141,197.316466 C174.096633,197.720631 174.415813,198.196551 174.650073,198.74276 C174.88287,199.288968 175,199.870322 175,200.486821 C175,201.11357 174.88287,201.697852 174.650073,202.244061 C174.415813,202.79027 174.096633,203.267654 173.688141,203.676212 C173.279649,204.083306 172.803807,204.406931 172.257687,204.644159 C171.711567,204.881386 171.128843,205 170.510981,205 L170.510981,205 Z" id="Fill-5" fill="#156D4F"></path></g></g></g></svg> 