<svg xmlns="http://www.w3.org/2000/svg" width="56" height="56" viewBox="0 0 56 56">
    <g data-name="그룹 73524">
        <g data-name="타원 2657" style="fill:#fff;stroke:#f5f5f5">
            <circle cx="28" cy="28" r="28" style="stroke:none"/>
            <circle cx="28" cy="28" r="27.5" style="fill:none"/>
        </g>
        <path style="fill:transparent" d="M0 0h30v30H0z" transform="translate(13 13)"/>
        <path d="M596.866 1972.134a1.25 1.25 0 0 1 1.768-1.767l1.616 1.616v-5.733a1.25 1.25 0 0 1 2.5 0v5.733l1.616-1.616a1.25 1.25 0 1 1 1.768 1.767l-3.75 3.75a1.249 1.249 0 0 1-1.767 0zm10.884 1.616a1.25 1.25 0 0 0 0 2.5 3.754 3.754 0 0 1 3.75 3.75v1.25a3.754 3.754 0 0 1-3.75 3.75h-12.5a3.754 3.754 0 0 1-3.75-3.75V1980a3.754 3.754 0 0 1 3.75-3.75 1.25 1.25 0 0 0 0-2.5A6.257 6.257 0 0 0 589 1980v1.25a6.257 6.257 0 0 0 6.25 6.25h12.5a6.257 6.257 0 0 0 6.25-6.25V1980a6.257 6.257 0 0 0-6.25-6.25zM609 1980a1.25 1.25 0 1 0-1.25 1.25A1.25 1.25 0 0 0 609 1980z" transform="translate(-573.5 -1948.25)" style="fill:#212121"/>
    </g>
</svg>
