<svg xmlns="http://www.w3.org/2000/svg" width="40" height="39.98" viewBox="0 0 40 39.98">
    <g data-name="-e-payco" transform="translate(-1233 -526.78)">
        <ellipse data-name="Ellipse 2252" cx="20" cy="19.99" rx="20" ry="19.99" transform="translate(1233 526.78)" style="fill:#f92728"/>
        <path data-name="패스 18334" d="M18879-3414.424v-15.843a.688.688 0 0 1 .689-.712h6.826c3.928-.31 6.484 3.022 6.484 6.447 0 4.068-2.6 6.378-6.484 6.447h-2.861v3.662a2.378 2.378 0 0 1-2.33 2.425 2.378 2.378 0 0 1-2.324-2.426zm4.637-7.4h2.7c1.115 0 2.01-.977 2.01-2.712s-.914-2.735-2.01-2.735h-2.7z" transform="translate(-17632 3968.269)" style="fill:#fff"/>
    </g>
</svg>
