<svg xmlns="http://www.w3.org/2000/svg" width="40" height="39.98" viewBox="0 0 40 39.98">
    <g transform="translate(-839 -433)">
        <g data-name="Ellipse 2252" transform="translate(839 433)" style="stroke:#38478c;stroke-linejoin:round;fill:#4152a2">
            <ellipse cx="20" cy="19.99" rx="20" ry="19.99" style="stroke:none"/>
            <ellipse cx="20" cy="19.99" rx="19.5" ry="19.49" style="fill:none"/>
        </g>
        <rect data-name="사각형 9579" width="20" height="22" rx="3" transform="rotate(90 214 656)" style="fill:#fff"/>
        <rect data-name="사각형 9581" width="2" height="14" rx="1" transform="rotate(90 210.5 655.5)" style="opacity:.5;fill:#4152a2"/>
        <rect data-name="사각형 9582" width="2" height="14" rx="1" transform="rotate(90 208.5 657.5)" style="opacity:.5;fill:#4152a2"/>
        <rect data-name="사각형 9583" width="2" height="14" rx="1" transform="rotate(90 206.5 659.5)" style="opacity:.5;fill:#4152a2"/>
        <rect data-name="사각형 9584" width="2" height="14" rx="1" transform="rotate(90 204.5 661.5)" style="opacity:.5;fill:#4152a2"/>
        <g data-name="타원 2332" transform="translate(859 451)" style="stroke-width:2.5px;stroke:#4152a2;fill:#fff">
            <circle cx="7.5" cy="7.5" r="7.5" style="stroke:none"/>
            <circle cx="7.5" cy="7.5" r="6.25" style="fill:none"/>
        </g>
        <path data-name="선 176" transform="translate(864.5 458.25)" style="stroke-linecap:round;stroke-width:2px;fill:none;stroke:#4152a2" d="m0 0 2 2"/>
        <path data-name="선 177" transform="translate(866.5 454.5)" style="stroke-linecap:round;stroke-width:2px;fill:none;stroke:#4152a2" d="M6 0 0 5.75"/>
    </g>
</svg>
