<svg xmlns="http://www.w3.org/2000/svg" width="56" height="56" viewBox="0 0 56 56">
    <g data-name="그룹 73525">
        <g data-name="타원 2656" style="fill:#fff;stroke:#f5f5f5">
            <circle cx="28" cy="28" r="28" style="stroke:none"/>
            <circle cx="28" cy="28" r="27.5" style="fill:none"/>
        </g>
        <g data-name="9026047_share_network_icon (1)">
            <path data-name="사각형 10488" transform="translate(14 14)" style="fill:none" d="M0 0h28v28H0z"/>
            <path data-name="타원 2663" d="M20.819 23.369a4.947 4.947 0 0 1 3.372 1.3 4.349 4.349 0 0 1 0 6.471 4.947 4.947 0 0 1-3.372 1.3 4.947 4.947 0 0 1-3.372-1.3 4.349 4.349 0 0 1 .001-6.471 4.947 4.947 0 0 1 3.371-1.3zm0 6.8a2.423 2.423 0 0 0 2.549-2.269 2.423 2.423 0 0 0-2.549-2.265 2.423 2.423 0 0 0-2.548 2.265 2.423 2.423 0 0 0 2.548 2.269z"/>
            <path data-name="타원 2664" d="M33.28 31.298a4.947 4.947 0 0 1 3.372 1.3 4.349 4.349 0 0 1 0 6.471 4.947 4.947 0 0 1-3.372 1.3 4.947 4.947 0 0 1-3.372-1.3 4.349 4.349 0 0 1 .001-6.471 4.947 4.947 0 0 1 3.371-1.3zm0 6.8a2.423 2.423 0 0 0 2.549-2.269 2.423 2.423 0 0 0-2.549-2.265 2.423 2.423 0 0 0-2.548 2.265 2.423 2.423 0 0 0 2.548 2.269z"/>
            <path data-name="타원 2665" d="M33.28 15.439a4.947 4.947 0 0 1 3.372 1.3 4.349 4.349 0 0 1 0 6.471 4.947 4.947 0 0 1-3.372 1.3 4.947 4.947 0 0 1-3.372-1.3 4.349 4.349 0 0 1 .001-6.471 4.947 4.947 0 0 1 3.371-1.3zm0 6.8a2.423 2.423 0 0 0 2.549-2.269 2.423 2.423 0 0 0-2.549-2.265 2.423 2.423 0 0 0-2.548 2.265 2.423 2.423 0 0 0 2.548 2.269z"/>
            <path data-name="선 213" d="M23.788 27.108a1.132 1.132 0 0 1-.954-.521 1.133 1.133 0 0 1 .34-1.566l6.433-4.133a1.133 1.133 0 0 1 1.565.341 1.133 1.133 0 0 1-.34 1.565l-6.433 4.133a1.128 1.128 0 0 1-.611.181z"/>
            <path data-name="선 214" d="M30.218 35.066a1.127 1.127 0 0 1-.611-.18l-6.433-4.134a1.133 1.133 0 0 1-.34-1.566 1.133 1.133 0 0 1 1.565-.34l6.433 4.133a1.133 1.133 0 0 1-.614 2.087z"/>
        </g>
    </g>
</svg>
