<svg xmlns="http://www.w3.org/2000/svg" width="56" height="56" viewBox="0 0 56 56">
    <g data-name="그룹 73522">
        <g data-name="타원 2654" style="fill:#fff;stroke:#f5f5f5">
            <circle cx="28" cy="28" r="28" style="stroke:none"/>
            <circle cx="28" cy="28" r="27.5" style="fill:none"/>
        </g>
        <path d="M42.172 30.711c-8.265.022-14.95 5.345-14.95 11.9 0 4.019 2.555 7.767 6.795 9.965-.684 2.138-1.684 5.481-1.321 5.776.385.314 4.521-2.458 6.807-4.034a18.8 18.8 0 0 0 2.719.2c8.284 0 15-5.33 15-11.9s-6.715-11.9-15-11.9h-.049z" transform="translate(-14.221 -16.546)" style="fill:#1a1a1a"/>
        <path d="M76.688 89.25a.933.933 0 0 0-.935.935.933.933 0 0 0 .935.935h1.461v5.622a.937.937 0 0 0 1.873 0v-5.618h1.5a.933.933 0 0 0 .935-.935.933.933 0 0 0-.935-.935h-4.834z" transform="translate(-59.979 -67.446)" style="fill:#ffe227"/>
        <path d="M94.813 89.241a1.1 1.1 0 0 0-.289.039.934.934 0 0 0-.764.594l-2.514 6.539a.937.937 0 0 0 1.749.672l.381-.991h2.916l.381.991a.937.937 0 0 0 1.748-.672l-2.513-6.539a.934.934 0 0 0-.824-.6 1.1 1.1 0 0 0-.271-.033zm.02 3.06.738 1.92H94.1z" transform="translate(-70.262 -67.44)" style="fill:#ffe227"/>
        <path d="M115.521 89.25a.952.952 0 0 0-.954.954v6.523a.952.952 0 0 0 .954.954h2.891a.954.954 0 1 0 0-1.909h-1.937V90.2a.952.952 0 0 0-.954-.95z" transform="translate(-85.845 -67.446)" style="fill:#ffe227"/>
        <path d="M130.967 89.25a.952.952 0 0 0-.954.954v6.523a.954.954 0 1 0 1.909 0v-2l.03-.027.333-.341 2.22 2.95a.954.954 0 1 0 1.525-1.148l-2.4-3.184 2.018-2.065a.954.954 0 1 0-1.365-1.335L131.921 92v-1.8a.952.952 0 0 0-.954-.95z" transform="translate(-96.139 -67.446)" style="fill:#ffe227"/>
    </g>
</svg>
