<svg xmlns="http://www.w3.org/2000/svg" width="13.999" height="13.999" viewBox="0 0 13.999 13.999">
    <path data-name="합치기 7" d="M-7687.086 126.814-7693 120.9l-5.913 5.913a.641.641 0 0 1-.45.186.638.638 0 0 1-.451-.186.64.64 0 0 1 0-.9l5.914-5.913-5.914-5.913a.64.64 0 0 1 0-.9.64.64 0 0 1 .9 0l5.914 5.913 5.914-5.913a.639.639 0 0 1 .9 0 .639.639 0 0 1 0 .9L-7692.1 120l5.914 5.913a.639.639 0 0 1 0 .9.636.636 0 0 1-.45.186.639.639 0 0 1-.45-.185z" transform="translate(7699.999 -113.001)" style="fill:#212121"/>
</svg>
