<svg xmlns="http://www.w3.org/2000/svg" width="14" height="14" viewBox="0 0 14 14">
    <g>
        <path data-name="합치기 6" d="M-8041.9-64a2.044 2.044 0 0 1-2.1-1.974v-10.562a.467.467 0 0 1 .468-.464h2.782v-.5a.5.5 0 0 1 .5-.5.5.5 0 0 1 .5.5v.5h5.5v-.5a.5.5 0 0 1 .5-.5.5.5 0 0 1 .5.5v.5h2.784a.465.465 0 0 1 .466.464v10.562a2.042 2.042 0 0 1-2.1 1.974zm-1.167-1.974a1.112 1.112 0 0 0 1.167 1.046h9.8a1.112 1.112 0 0 0 1.167-1.046v-6.274h-12.133zm12.133-7.274v-2.824h-2.318v.571a.5.5 0 0 1-.5.5.5.5 0 0 1-.5-.5v-.571h-5.5v.571a.5.5 0 0 1-.5.5.5.5 0 0 1-.5-.5v-.571h-2.316v2.824z" transform="translate(8044.001 78)" style="fill:#212121"/>
        <rect data-name="사각형 3487" width="2" height="2" rx=".5" transform="translate(6 6.923)" style="fill:#292929"/>
        <g data-name="그룹 13220" transform="translate(-3 -2.5)">
            <rect data-name="사각형 3475" width="2" height="2" rx=".5" transform="translate(6 9.423)" style="fill:#292929"/>
            <rect data-name="사각형 3489" width="2" height="2" rx=".5" transform="translate(12 9.423)" style="fill:#292929"/>
            <rect data-name="사각형 3480" width="2" height="2" rx=".5" transform="translate(6 12.192)" style="fill:#292929"/>
            <rect data-name="사각형 3488" width="2" height="2" rx=".5" transform="translate(9 12.192)" style="fill:#292929"/>
            <rect data-name="사각형 3490" width="2" height="2" rx=".5" transform="translate(12 12.192)" style="fill:#292929"/>
        </g>
    </g>
</svg>
