<svg xmlns="http://www.w3.org/2000/svg" xmlns:xlink="http://www.w3.org/1999/xlink" width="40" height="39.98" viewBox="0 0 40 39.98">
    <defs>
        <linearGradient id="v9h4fznooc" x1=".174" y1=".231" x2=".744" y2=".662" gradientUnits="objectBoundingBox">
            <stop offset="0" stop-color="#fff"/>
            <stop offset="1" stop-color="#d8ecfe"/>
        </linearGradient>
        <linearGradient id="w96d28kmpd" x1=".531" y1=".823" x2=".498" y2=".168" gradientUnits="objectBoundingBox">
            <stop offset="0" stop-color="#a8d3d8" stop-opacity="0"/>
            <stop offset="1" stop-color="#6cabca"/>
        </linearGradient>
        <linearGradient id="kre67uze0e" x1="-.011" y1=".433" x2="2.041" y2=".658" gradientUnits="objectBoundingBox">
            <stop offset="0" stop-color="#fd4755"/>
            <stop offset="1" stop-color="#a72b2b"/>
        </linearGradient>
        <linearGradient id="38j70l9uuf" x1="-.173" y1=".342" x2="2.055" y2=".729" gradientUnits="objectBoundingBox">
            <stop offset="0" stop-color="#26a6fe"/>
            <stop offset="1" stop-color="#2740b0"/>
        </linearGradient>
        <linearGradient id="3ruxpod7hg" x1=".5" y1=".737" x2=".5" y2=".484" gradientUnits="objectBoundingBox">
            <stop offset="0" stop-color="#2740b0" stop-opacity="0"/>
            <stop offset="1" stop-color="#192a7d"/>
        </linearGradient>
        <linearGradient id="un501znjph" x1=".252" y1="1.3" x2=".685" y2="-.098" gradientUnits="objectBoundingBox">
            <stop offset="0" stop-color="#a72b2b" stop-opacity="0"/>
            <stop offset="1" stop-color="#42210b"/>
        </linearGradient>
        <linearGradient id="t5xzgv6rra" x1=".197" y1=".184" x2=".966" y2=".986" gradientUnits="objectBoundingBox">
            <stop offset="0" stop-color="#fee45a"/>
            <stop offset="1" stop-color="#fea613"/>
        </linearGradient>
        <linearGradient id="jmt17rsywi" x1=".973" y1=".973" x2="-.163" y2="-.163" xlink:href="#t5xzgv6rra"/>
        <linearGradient id="ky1bjvbovj" x1=".148" y1=".148" x2=".837" y2=".837" xlink:href="#t5xzgv6rra"/>
        <linearGradient id="c10m0f7rik" x1=".5" y1=".251" x2=".5" y2="1.226" gradientUnits="objectBoundingBox">
            <stop offset="0" stop-color="#fea613" stop-opacity="0"/>
            <stop offset="1" stop-color="#e94444"/>
        </linearGradient>
        <radialGradient id="kvusq55udb" cx=".184" cy=".077" r=".738" gradientTransform="rotate(26.578 .184 .077)" gradientUnits="objectBoundingBox">
            <stop offset="0" stop-color="#5e5fa8"/>
            <stop offset="1" stop-color="#1e2077"/>
        </radialGradient>
    </defs>
    <g data-name="-e-01" transform="translate(-71 -352)">
        <ellipse data-name="Ellipse 2252" cx="20" cy="19.99" rx="20" ry="19.99" transform="translate(71 352)" style="fill:url(#kvusq55udb)"/>
        <g data-name="그룹 16762">
            <path data-name="패스 18357" d="M39.262 332.146a.939.939 0 0 0 1.6.732l.013-.014.617-.659a1.44 1.44 0 0 1 2.13 0l.617.659a1.44 1.44 0 0 0 2.13 0l.617-.659a1.44 1.44 0 0 1 2.13 0l.617.659.013.014a.939.939 0 0 0 1.6-.732v-15.879H39.262z" transform="translate(45.698 50.655)" style="fill:url(#v9h4fznooc)"/>
            <path data-name="패스 18358" d="M56.454 347.646v5.654l6.811 7.1a1.5 1.5 0 0 1 1.77.306l.633.659.013.014a.964.964 0 0 0 1.636-.732v-13z" transform="translate(29.845 22.158)" style="fill:url(#w96d28kmpd)"/>
            <g data-name="그룹 16767">
                <path data-name="패스 18359" d="M42.922 316.267h-3.66v15.879a.964.964 0 0 0 1.636.732l.013-.014.633-.659a1.5 1.5 0 0 1 1.378-.443z" transform="translate(45.549 50.655)" style="fill:url(#kre67uze0e)"/>
                <path data-name="패스 18360" d="M138.205 316.267v15.495a1.5 1.5 0 0 1 1.378.443l.633.659.013.014a.964.964 0 0 0 1.636-.732v-15.879z" transform="translate(-44.676 50.655)" style="fill:url(#38j70l9uuf)"/>
                <path data-name="패스 18361" d="M138.205 316.267v15.495a1.5 1.5 0 0 1 1.378.443l.633.659.013.014a.964.964 0 0 0 1.636-.732v-15.879z" transform="translate(-44.676 50.655)" style="fill:url(#3ruxpod7hg)"/>
            </g>
            <path data-name="패스 18362" d="M42.922 347.646h-3.66v4.065l3.66 3.824z" transform="translate(45.632 22.644)" style="fill:url(#un501znjph)"/>
            <g data-name="그룹 16768" transform="translate(81.5 358.979)">
                <path data-name="패스 18363" d="M18.561 224.148 17.7 225a1.482 1.482 0 0 0-.422 1.274l.181 1.186a1.505 1.505 0 0 1-1.263 1.7l-1.206.2a1.53 1.53 0 0 0-1.108.789l-.563 1.062a1.547 1.547 0 0 1-2.044.651l-1.092-.535a1.56 1.56 0 0 0-1.37 0l-1.092.535a1.547 1.547 0 0 1-2.044-.651l-.563-1.062a1.53 1.53 0 0 0-1.108-.789l-1.206-.2a1.505 1.505 0 0 1-1.263-1.7l.181-1.186A1.482 1.482 0 0 0 1.3 225l-.858-.856a1.479 1.479 0 0 1 0-2.1l.858-.856a1.482 1.482 0 0 0 .422-1.274l-.181-1.186a1.505 1.505 0 0 1 1.263-1.7l1.206-.2a1.53 1.53 0 0 0 1.108-.789l.563-1.062a1.547 1.547 0 0 1 2.044-.651l1.092.535a1.56 1.56 0 0 0 1.37 0l1.092-.535a1.547 1.547 0 0 1 2.044.651l.563 1.062a1.53 1.53 0 0 0 1.108.789l1.206.2a1.505 1.505 0 0 1 1.263 1.7l-.181 1.186a1.482 1.482 0 0 0 .422 1.274l.858.856a1.479 1.479 0 0 1-.001 2.104z" transform="translate(0 -214.169)" style="fill:url(#t5xzgv6rra)"/>
                <ellipse data-name="타원 2321" cx="6.751" cy="6.474" rx="6.751" ry="6.474" transform="translate(2.749 2.453)" style="fill:url(#jmt17rsywi)"/>
                <ellipse data-name="타원 2322" cx="5.736" cy="5.417" rx="5.736" ry="5.417" transform="translate(3.764 3.51)" style="fill:url(#ky1bjvbovj)"/>
                <path data-name="패스 18364" d="M1.3 321.243a1.682 1.682 0 0 1 .422 1.376l-.183 1.281a1.612 1.612 0 0 0 1.261 1.838l1.206.213a1.541 1.541 0 0 1 1.108.852l.563 1.147a1.492 1.492 0 0 0 2.044.7l1.092-.578a1.456 1.456 0 0 1 1.37 0l1.092.578a1.492 1.492 0 0 0 2.045-.7l.563-1.147a1.541 1.541 0 0 1 1.108-.852l1.206-.213a1.612 1.612 0 0 0 1.263-1.839l-.181-1.281a1.682 1.682 0 0 1 .422-1.376l.858-.924a1.667 1.667 0 0 0 .441-1.136H0a1.667 1.667 0 0 0 .439 1.136z" transform="translate(0 -310.971)" style="fill:url(#c10m0f7rik)"/>
            </g>
        </g>
    </g>
</svg>
