<svg xmlns="http://www.w3.org/2000/svg" width="40" height="40" viewBox="0 0 40 40">
    <g transform="translate(-32 -2348)">
        <circle data-name="타원 2687" cx="5" cy="5" r="5" transform="translate(48 2375)" style="fill:#deecfb"/>
        <path d="M69.13 2368.37a16.617 16.617 0 0 1-5.825 12.641.65.65 0 1 1-.845-.987 15.318 15.318 0 0 0 5.356-11h-1.9a.65.65 0 0 1 0-1.3h1.9a15.272 15.272 0 0 0-4.032-9.716l-1.337 1.332a.65.65 0 0 1-.919-.919l1.342-1.336a15.272 15.272 0 0 0-9.72-4.031v1.9a.65.65 0 0 1-1.3 0v-1.9a15.273 15.273 0 0 0-9.716 4.031l1.336 1.339a.65.65 0 1 1-.919.919l-1.336-1.339a15.272 15.272 0 0 0-4.032 9.716h1.9a.65.65 0 0 1 0 1.3h-1.9a15.318 15.318 0 0 0 5.356 11 .65.65 0 1 1-.845.987 16.63 16.63 0 1 1 27.436-12.637zm-9.998-6.63a.65.65 0 0 1 0 .919l-4.288 4.281a2.746 2.746 0 1 1-.919-.919l4.288-4.281a.65.65 0 0 1 .919 0zm-5.187 6.63a1.445 1.445 0 1 0-1.445 1.445 1.447 1.447 0 0 0 1.445-1.445zm4.076 11.108a5.522 5.522 0 1 1-5.522-5.522 5.528 5.528 0 0 1 5.523 5.523zm-1.3 0a4.223 4.223 0 1 0-4.223 4.223 4.227 4.227 0 0 0 4.225-4.222zm-4.223-.628a.535.535 0 1 1 0-1.04 1.259 1.259 0 0 1 .623.254.65.65 0 0 0 1.082-.72 2.05 2.05 0 0 0-1.066-.716v-.2a.65.65 0 1 0-1.3.031v.162a1.836 1.836 0 0 0-1.3 1.713 1.9 1.9 0 0 0 1.96 1.819.535.535 0 1 1 0 1.04c-.254 0-.363-.055-.65-.326a.65.65 0 1 0-.892.945 2.345 2.345 0 0 0 .9.586v.138a.65.65 0 0 0 .649.634h.016a.65.65 0 0 0 .634-.665v-.12a1.836 1.836 0 0 0 1.3-1.712 1.9 1.9 0 0 0-1.96-1.819z"/>
    </g>
</svg>
