<svg xmlns="http://www.w3.org/2000/svg" width="56" height="56" viewBox="0 0 56 56">
    <g data-name="그룹 73526">
        <g data-name="타원 2658" style="fill:#fff;stroke:#f5f5f5">
            <circle cx="28" cy="28" r="28" style="stroke:none"/>
            <circle cx="28" cy="28" r="27.5" style="fill:none"/>
        </g>
        <path style="fill:transparent" d="M0 0h30v30H0z" transform="translate(13 13)"/>
        <path d="M223.688 1373.25h-12.5a5.944 5.944 0 0 0-5.937 5.938v10a5.853 5.853 0 0 0 .169 1.349.936.936 0 0 0 .054.171 5.93 5.93 0 0 0 5.715 4.418h12.5a5.944 5.944 0 0 0 5.938-5.937v-10a5.944 5.944 0 0 0-5.939-5.939zm-12.5 1.875h12.5a4.067 4.067 0 0 1 4.063 4.063v6.486l-5.012-5.013a2.194 2.194 0 0 0-3.1 0l-5.95 5.95-.95-.95a2.194 2.194 0 0 0-3.1 0l-2.513 2.513v-8.986a4.067 4.067 0 0 1 4.062-4.063zm12.5 18.125h-12.5a4.057 4.057 0 0 1-3.8-2.682l3.58-3.58a.271.271 0 0 1 .449 0l1.175 1.175a1.559 1.559 0 0 0 2.2 0l6.175-6.175a.32.32 0 0 1 .449 0l6.338 6.337v.863a4.065 4.065 0 0 1-4.066 4.062zm-12.5-12.812a1.25 1.25 0 1 1 1.25 1.25 1.25 1.25 0 0 1-1.25-1.25z" transform="translate(-189.438 -1356.188)" style="fill:#212121"/>
    </g>
</svg>
