<svg xmlns="http://www.w3.org/2000/svg" width="20" height="20" viewBox="0 0 20 20">
    <defs>
        <clipPath id="67alaeuxma">
            <path data-name="사각형 3492" transform="translate(390 382)" style="fill:#fff" d="M0 0h20v20H0z"/>
        </clipPath>
    </defs>
    <g data-name="마스크 그룹 27" transform="translate(-390 -382)" style="clip-path:url(#67alaeuxma)">
        <g data-name="그룹 13221">
            <path data-name="선 13" d="M18 19a1 1 0 0 1-.707-.293l-18-18a1 1 0 0 1 0-1.414 1 1 0 0 1 1.414 0l18 18A1 1 0 0 1 18 19z" transform="translate(391 383)" style="fill:#666"/>
            <path data-name="선 14" d="M0 19a1 1 0 0 1-.707-.293 1 1 0 0 1 0-1.414l18-18a1 1 0 0 1 1.414 0 1 1 0 0 1 0 1.414l-18 18A1 1 0 0 1 0 19z" transform="translate(391 383)" style="fill:#666"/>
        </g>
    </g>
</svg>
