<svg xmlns="http://www.w3.org/2000/svg" width="15" height="15" viewBox="0 0 15 15">
    <g data-name="그룹 12927" transform="translate(-339.74 -1110.339)">
        <circle data-name="타원 122" cx="7" cy="7" r="7" transform="translate(340.24 1110.839)" style="fill:none;stroke:#212121"/>
        <g data-name="그룹 12926">
            <path data-name="패스 5480" d="M354.524 1128.361a.558.558 0 0 1-.549-.479l-.928-3.463h-.547l-.936 3.47a.574.574 0 0 1-.557.472.542.542 0 0 1-.532-.464l-.87-3.477h-.734a.375.375 0 0 1-.392-.4.382.382 0 0 1 .4-.391h.534l-.441-1.758a.5.5 0 0 1 .057-.433.437.437 0 0 1 .319-.2.479.479 0 0 1 .342.051.486.486 0 0 1 .249.311l.514 2.032h1.213l.528-1.951a.591.591 0 0 1 1.15 0l.536 1.952h1.22l.5-2a.487.487 0 0 1 .236-.34.524.524 0 0 1 .373-.051.506.506 0 0 1 .3.2.543.543 0 0 1 .06.428l-.441 1.758h.525a.379.379 0 0 1 .409.391.39.39 0 0 1-.409.4h-.718l-.868 3.458a.557.557 0 0 1-.543.484zm-3.875-3.942.391 1.526.416-1.526zm3.443 0 .422 1.526.386-1.526zm-1.382-.792h.119l-.059-.218z" transform="translate(-5.467 -6.534)" style="fill:#212121"/>
        </g>
    </g>
</svg>
