<svg xmlns="http://www.w3.org/2000/svg" width="40" height="40" viewBox="0 0 40 40">
    <g transform="translate(-32 -2348)">
        <rect data-name="사각형 10584" width="31" height="5" rx="1" transform="translate(37 2375)" style="fill:#deecfb"/>
        <path d="M66.683 2356.347h-2.34a.645.645 0 0 0 0 1.289h2.34a1.029 1.029 0 0 1 1.028 1.028v15.91H37.289v-15.306a1.634 1.634 0 0 1 1.632-1.632h4.152a.645.645 0 1 0 0-1.289h-4.152a2.924 2.924 0 0 0-2.921 2.921v18.2a2.924 2.924 0 0 0 2.921 2.921h9.051a11.123 11.123 0 0 1-.19 3.319h-3.631a.645.645 0 0 0 0 1.289h16.7a.645.645 0 0 0 0-1.289h-3.669a10.666 10.666 0 0 1-.227-3.319h9.123a2.924 2.924 0 0 0 2.922-2.918v-18.807a2.319 2.319 0 0 0-2.317-2.317zm-10.816 27.364h-6.773a12.481 12.481 0 0 0 .175-3.319h6.391a12.006 12.006 0 0 0 .207 3.319zm10.212-4.611H38.921a1.634 1.634 0 0 1-1.632-1.632v-1.604h30.422v1.607a1.634 1.634 0 0 1-1.632 1.629zm-20.931-20.752a.645.645 0 0 1 .1-.906l4.038-3.23a.644.644 0 0 1 .706-.065l4.476 2.393 3.954-3.229-.266-.024a.646.646 0 1 1 .118-1.287l1.866.174a.645.645 0 0 1 .56.82l-.526 1.829a.645.645 0 0 1-1.26-.251l-3.964 3.238a.645.645 0 0 1-.711.069l-4.479-2.395-3.706 2.965a.644.644 0 0 1-.906-.1zm-1.557 3.942a.645.645 0 0 0-.645.645v7.975a.645.645 0 0 0 .645.645h3.043a.645.645 0 0 0 .645-.645v-7.975a.645.645 0 0 0-.645-.645zm2.4 7.976h-1.756v-6.687h1.755zm2.525-11.756a.645.645 0 0 0-.645.645v11.755a.645.645 0 0 0 .645.645h3.043a.645.645 0 0 0 .645-.645v-11.755a.645.645 0 0 0-.645-.645zm2.4 11.756H49.16V2359.8h1.754zm2.526-9.93a.645.645 0 0 0-.645.645v9.93a.645.645 0 0 0 .645.645h3.043a.645.645 0 0 0 .645-.645v-9.93a.645.645 0 0 0-.645-.645zm2.4 9.93h-1.757v-8.641h1.754zm1.879-13.146v13.79a.645.645 0 0 0 .645.645h3.043a.645.645 0 0 0 .645-.645v-13.79a.645.645 0 0 0-.645-.645h-3.043a.645.645 0 0 0-.645.645zm1.289.645h1.754v12.5H59.01z"/>
    </g>
</svg>
