<svg xmlns="http://www.w3.org/2000/svg" width="20" height="20" viewBox="0 0 20 20">
    <defs>
        <clipPath id="r09hn5gema">
            <path data-name="사각형 3491" transform="translate(352 382)" style="fill:#fff" d="M0 0h20v20H0z"/>
        </clipPath>
    </defs>
    <g data-name="마스크 그룹 26" transform="translate(-352 -382)" style="clip-path:url(#r09hn5gema)">
        <g data-name="그룹 13222">
            <path data-name="선 13" d="M7.635 8.543a.927.927 0 0 1-.661-.272L-.752.463A.84.84 0 0 1-.715-.763.94.94 0 0 1 .57-.728L8.3 7.08a.84.84 0 0 1-.037 1.226.93.93 0 0 1-.628.237z" transform="translate(353 392.18)" style="fill:#666"/>
            <path data-name="선 14" d="M-.091 8.543a.93.93 0 0 1-.624-.237.84.84 0 0 1-.037-1.226L6.974-.728a.94.94 0 0 1 1.284-.035A.84.84 0 0 1 8.3.463L.57 8.271a.928.928 0 0 1-.661.272z" transform="translate(353 384)" style="fill:#666"/>
            <path data-name="선 15" d="M16.269.818H-.091A.909.909 0 0 1-1-.091.909.909 0 0 1-.091-1h16.36a.909.909 0 0 1 .909.909.909.909 0 0 1-.909.909z" transform="translate(354.818 392.18)" style="fill:#666"/>
        </g>
    </g>
</svg>
