<svg xmlns="http://www.w3.org/2000/svg" width="40" height="40" viewBox="0 0 40 40">
    <path data-name="패스 24132" d="m39.75 2364.563 3.031.813.781 1.406h6.813l2.531-1.406 2.156.5 4.656 2.469 2-.625v-2.344l3.125-.625v-7.187h-5.124v-5.187l-19.969.25z" style="fill:#deecfb" transform="translate(-32 -2348)"/>
    <path d="M36.952 27.99 34.571 17.6a1.87 1.87 0 0 0-.835-1.173 1.927 1.927 0 0 0-.257-.135V9.8a.645.645 0 0 0-.189-.456l-5.157-5.155A.645.645 0 0 0 27.678 4H7.792a.645.645 0 0 0-.645.645V16.5a1.866 1.866 0 0 0-.72 1.094L4.048 27.99a1.886 1.886 0 0 0 1.415 2.256l1.913.438a1.888 1.888 0 0 0 2.17-1.14l6.872 6.795a2.246 2.246 0 0 0 1.6.661 2.258 2.258 0 0 0 2.132-1.5l.7.7a2.246 2.246 0 0 0 1.6.661 2.258 2.258 0 0 0 2.135-1.514 2.246 2.246 0 0 0 1.44.516 2.256 2.256 0 0 0 2.26-2.26q0-.112-.011-.223a2.258 2.258 0 0 0 2.041-2.808l1.37-.6a1.879 1.879 0 0 0 1.935.718l1.913-.438a1.886 1.886 0 0 0 1.415-2.256zM28.322 6.2l2.956 2.956h-2.956zm-1.289-.911V9.8a.645.645 0 0 0 .645.645h4.512v5.766l-1.79.409a1.885 1.885 0 0 0-1.415 2.255l.048.209-.739.322a1.952 1.952 0 0 1-1.788-.1 87.317 87.317 0 0 1-1.547-.891c-2.12-1.244-3.288-1.929-5.057-1.268a4.684 4.684 0 0 0-1.5 1.028h-6.365A1.885 1.885 0 0 0 10.6 16.62l-1.913-.438a1.889 1.889 0 0 0-.247-.039V5.289zm-3.249 18.293a3.337 3.337 0 0 0-4.261-.384c-2.032 1.407-3.376 1.938-4.663.786a32.467 32.467 0 0 0 2.582-2.821c1.093-1.294 2.125-2.517 2.913-2.811 1.14-.426 1.857-.057 3.953 1.172.459.269.979.575 1.571.9a3.24 3.24 0 0 0 2.931.159l.518-.225 1.921 8.388-1.593.7zM8.11 29.35a.588.588 0 0 1-.447.077l-1.913-.438a.6.6 0 0 1-.446-.711l2.38-10.394a.6.6 0 0 1 .58-.461c.044 0 2.045.453 2.045.453a.594.594 0 0 1 .446.711L8.374 28.981a.588.588 0 0 1-.264.369zm20.7 2.46a.978.978 0 0 1-1.376 0l-4.574-4.577a.645.645 0 0 0-.912.912l4.768 4.768a.973.973 0 0 1-1.376 1.376l-4.924-4.925a.645.645 0 0 0-.912.912l3.653 3.653a.973.973 0 0 1-1.393 1.359l-4-4a.645.645 0 1 0-.912.912l1.864 1.864a.971.971 0 0 1-.7 1.646.967.967 0 0 1-.69-.286L9.9 28.084l1.975-8.623H17.2c-.241.278-.488.57-.741.87a25.773 25.773 0 0 1-2.94 3.119.645.645 0 0 0-.081.906 3.728 3.728 0 0 0 2.928 1.538 7.324 7.324 0 0 0 3.891-1.637 2.024 2.024 0 0 1 2.616.236l5.941 5.941a.974.974 0 0 1 0 1.376zm6.8-3.085a.589.589 0 0 1-.369.264l-1.913.438a.6.6 0 0 1-.711-.446l-2.373-10.393a.594.594 0 0 1 .446-.711l1.913-.438a.6.6 0 0 1 .711.446L35.7 28.278a.589.589 0 0 1-.082.447zM12.391 10.278a2.306 2.306 0 0 1 1.8-2.181l-.01-.42a.645.645 0 0 1 1.289-.031l.011.466a2.733 2.733 0 0 1 1.513.941.645.645 0 0 1-1.077.708 1.849 1.849 0 0 0-1.07-.457 1.086 1.086 0 0 0-1.168.974 1.086 1.086 0 0 0 1.168.974 2.369 2.369 0 0 1 2.457 2.263 2.305 2.305 0 0 1-1.8 2.181l.009.36a.645.645 0 0 1-.629.66h-.016a.644.644 0 0 1-.644-.629l-.009-.379a2.833 2.833 0 0 1-1.327-.8.645.645 0 0 1 .885-.938 1.357 1.357 0 0 0 1.074.52 1.086 1.086 0 0 0 1.168-.974 1.086 1.086 0 0 0-1.168-.974 2.369 2.369 0 0 1-2.456-2.264zm7.033 1.492a.645.645 0 0 1 .645-.645h4.737a.645.645 0 1 1 0 1.289h-4.737a.645.645 0 0 1-.645-.644zm0 2.514a.645.645 0 0 1 .645-.645h4.737a.645.645 0 1 1 0 1.289h-4.737a.645.645 0 0 1-.645-.644zm0-5.027a.645.645 0 0 1 .645-.645h4.737a.645.645 0 1 1 0 1.289h-4.737a.645.645 0 0 1-.645-.644z"/>
</svg>
