<svg xmlns="http://www.w3.org/2000/svg" width="56" height="56" viewBox="0 0 56 56">
    <g data-name="그룹 73523">
        <g data-name="타원 2655" style="fill:#fff;stroke:#f5f5f5">
            <circle cx="28" cy="28" r="28" style="stroke:none"/>
            <circle cx="28" cy="28" r="27.5" style="fill:none"/>
        </g>
        <path style="fill:transparent" d="M0 0h30v30H0z" transform="translate(13 13)"/>
        <path d="M463.75 2037h-12.5a6.257 6.257 0 0 0-6.25 6.25v16.25a1.251 1.251 0 0 0 .771 1.155 1.231 1.231 0 0 0 .479.095 1.25 1.25 0 0 0 .884-.366l3.018-3.018a1.248 1.248 0 0 1 .885-.366h12.713a6.257 6.257 0 0 0 6.25-6.25v-7.5a6.257 6.257 0 0 0-6.25-6.25zm3.75 13.75a3.754 3.754 0 0 1-3.75 3.75h-12.714a3.729 3.729 0 0 0-2.653 1.1l-.884.884v-13.234a3.754 3.754 0 0 1 3.75-3.75h12.5a3.754 3.754 0 0 1 3.75 3.75zm-13.437-3.75a1.563 1.563 0 1 1-1.562-1.562 1.563 1.563 0 0 1 1.562 1.562zm5 0a1.563 1.563 0 1 1-1.562-1.562 1.563 1.563 0 0 1 1.562 1.562zm5 0a1.563 1.563 0 1 1-1.562-1.562 1.563 1.563 0 0 1 1.562 1.562z" transform="translate(-429.5 -2020.25)" style="fill:#212121"/>
    </g>
</svg>
