<svg xmlns="http://www.w3.org/2000/svg" width="40" height="40" viewBox="0 0 40 40">
    <path data-name="패스 24130" d="M52.5 2383.84s-.54-11.315-13.608-8.128c2.031 7.581 6.374 7.65 8.605 8.128a15.612 15.612 0 0 0 5.003 0z" style="fill:#deecfb" transform="translate(-32 -2348)"/>
    <path data-name="패스 24131" d="M38.892 2383.84s.54-11.315 13.608-8.128c-2.031 7.581-6.374 7.65-8.605 8.128a15.612 15.612 0 0 1-5.003 0z" transform="translate(-17.892 -2348)" style="fill:#deecfb"/>
    <path d="M34.434 26.938a12.288 12.288 0 0 0-13.272 4.556v-4.52a11.5 11.5 0 1 0-1.289 0v4.568a12.286 12.286 0 0 0-13.306-4.6.645.645 0 0 0-.449.777A12.264 12.264 0 0 0 20.5 36.746a12.273 12.273 0 0 0 14.382-9.031.645.645 0 0 0-.449-.777zM10.31 15.5a10.207 10.207 0 1 1 10.207 10.2A10.219 10.219 0 0 1 10.31 15.5zm2.219 18.738a10.887 10.887 0 0 1-4.987-6.219 10.984 10.984 0 0 1 12.33 6.057v1.476a10.956 10.956 0 0 1-7.343-1.314zm15.942 0a10.956 10.956 0 0 1-7.309 1.32v-1.552a10.982 10.982 0 0 1 12.3-5.986 10.887 10.887 0 0 1-4.991 6.218zm.87-18.742a8.824 8.824 0 1 0-8.824 8.824 8.834 8.834 0 0 0 8.824-8.82zm-16.359 0a7.535 7.535 0 1 1 7.535 7.535 7.544 7.544 0 0 1-7.535-7.531zm7.561 5.747a.644.644 0 0 1-.644-.629l-.014-.568a3.25 3.25 0 0 1-1.65-.961.645.645 0 1 1 .885-.938 1.775 1.775 0 0 0 1.4.668 1.453 1.453 0 0 0 1.552-1.315 1.453 1.453 0 0 0-1.555-1.319 2.737 2.737 0 0 1-2.844-2.608 2.671 2.671 0 0 1 2.188-2.543l-.015-.621a.645.645 0 0 1 1.289-.031l.016.668a3.229 3.229 0 0 1 1.855 1.112.645.645 0 0 1-1.077.708 2.342 2.342 0 0 0-1.412-.617 1.453 1.453 0 0 0-1.554 1.319 1.453 1.453 0 0 0 1.555 1.319 2.737 2.737 0 0 1 2.843 2.613 2.671 2.671 0 0 1-2.186 2.538l.013.549a.645.645 0 0 1-.629.66h-.016z"/>
</svg>
