<svg xmlns="http://www.w3.org/2000/svg" width="21" height="22" viewBox="0 0 21 22">
    <g data-name="10">
        <path data-name="사각형 9017" transform="translate(3 2)" style="fill:#b7d9fc" d="M0 0h15v13H0z"/>
        <path d="M7.007 8.623h10v-2h-10zm0 4h6v-2h-6zM21 2v17a3 3 0 0 1-3 3H6a3 3 0 0 1-3-3V2h5.171A3.006 3.006 0 0 1 11 0h2a3.006 3.006 0 0 1 2.829 2zm-2 2h-5V3a1 1 0 0 0-1-1h-2a1 1 0 0 0-1 1v1H5v15a1 1 0 0 0 1 1h12a1 1 0 0 0 1-1z" transform="translate(-2)" style="fill:#3a3a3a"/>
    </g>
</svg>
