<svg xmlns="http://www.w3.org/2000/svg" width="21" height="21" viewBox="0 0 21 21">
    <g data-name="8">
        <path data-name="패스 17656" d="M19.474 18.627H4.233a2.54 2.54 0 0 1-2.54-2.54V.847A.847.847 0 1 0 0 .847v15.24a4.238 4.238 0 0 0 4.233 4.233h15.24a.847.847 0 0 0 0-1.693z" style="fill:#3a3a3a"/>
        <path data-name="패스 17657" d="M5.847 18.62a.847.847 0 0 0 .847-.847v-5.926a.847.847 0 0 0-1.693 0v5.927a.847.847 0 0 0 .846.846z" transform="translate(-.767 -1.687)" style="fill:#3a3a3a"/>
        <path data-name="패스 17658" d="M10 9.847v7.62a.847.847 0 0 0 1.693 0v-7.62a.847.847 0 0 0-1.693 0z" transform="translate(-1.533 -1.38)" style="fill:#3a3a3a"/>
        <path data-name="패스 17659" d="M15 12.847v5.08a.847.847 0 0 0 1.693 0v-5.08a.847.847 0 0 0-1.693 0z" transform="translate(-2.3 -1.84)" style="fill:#3a3a3a"/>
        <path data-name="패스 17660" d="M20 8.847v8.467a.847.847 0 0 0 1.693 0V8.847a.847.847 0 0 0-1.693 0z" transform="translate(-3.066 -1.227)" style="fill:#3a3a3a"/>
        <path data-name="패스 17661" d="M5.847 7.62a.847.847 0 0 0 .6-.248l3.035-3.036a.868.868 0 0 1 1.2 0l1.839 1.839a2.54 2.54 0 0 0 3.592 0l4.73-4.73a.847.847 0 1 0-1.2-1.2l-4.731 4.732a.847.847 0 0 1-1.2 0l-1.836-1.838a2.54 2.54 0 0 0-3.592 0L5.248 6.175a.847.847 0 0 0 .6 1.445z" transform="translate(-.767)" style="fill:#3a3a3a"/>
    </g>
</svg>
