<svg xmlns="http://www.w3.org/2000/svg" width="21" height="23" viewBox="0 0 21 23">
    <g data-name="34">
        <g data-name="그룹 16523">
            <g data-name="01 align center">
                <path data-name="패스 17718" d="m18.81 20.992-3.217-2.205-2.34 1.6-2.342-1.6-2.342 1.6-2.346-1.6L3 20.992V2.635A2.635 2.635 0 0 1 5.635 0h10.54a2.635 2.635 0 0 1 2.635 2.635zM6.223 16.655l2.345 1.6 2.343-1.6 2.342 1.6 2.341-1.6 1.46 1V2.635a.878.878 0 0 0-.878-.878H5.635a.878.878 0 0 0-.878.878v15.019z" transform="translate(-3)" style="fill:#3a3a3a"/>
                <path data-name="사각형 8989" transform="translate(4 6)" style="fill:#3a3a3a" d="M0 0h8v2H0z"/>
                <path data-name="사각형 8990" transform="translate(4 10)" style="fill:#3a3a3a" d="M0 0h8v2H0z"/>
            </g>
            <g style="fill:#3a3a3a">
                <path d="M19.985 21.602c-.48 0-.932-.188-1.272-.527l-1.407-1.408c-.54.22-1.12.336-1.71.338A4.599 4.599 0 0 1 11 15.41a4.598 4.598 0 0 1 4.593-4.593 4.598 4.598 0 0 1 4.593 4.593 4.56 4.56 0 0 1-.337 1.713l1.408 1.408a1.8 1.8 0 0 1-1.272 3.07zm-4.392-7.187a.997.997 0 0 0 0 1.993.997.997 0 0 0 0-1.993z" style="stroke:none" transform="translate(-3.217 .398)"/>
                <path d="M19.985 20.602a.798.798 0 0 0 .565-1.363l-1.922-1.922c.363-.57.557-1.23.558-1.906a3.593 3.593 0 1 0-3.593 3.594 3.559 3.559 0 0 0 1.905-.56l1.922 1.923c.156.156.36.234.565.234m-4.392-7.187a1.996 1.996 0 1 1 0 3.993 1.996 1.996 0 0 1 0-3.993m4.392 9.187a2.78 2.78 0 0 1-1.979-.82l-.97-.97a5.558 5.558 0 0 1-1.437.193h-.006A5.6 5.6 0 0 1 10 15.41a5.6 5.6 0 0 1 5.593-5.593 5.6 5.6 0 0 1 5.593 5.593v.006a5.558 5.558 0 0 1-.192 1.437l.97.97a2.802 2.802 0 0 1 0 3.958 2.78 2.78 0 0 1-1.979.82z" style="fill:#fff;stroke:none" transform="translate(-3.217 .398)"/>
            </g>
            <g data-name="타원 2224" transform="translate(9 12)" style="fill:#b7d9fc;stroke:#3a3a3a;stroke-width:2px">
                <circle cx="3.5" cy="3.5" r="3.5" style="stroke:none"/>
                <circle cx="3.5" cy="3.5" r="2.5" style="fill:none"/>
            </g>
        </g>
    </g>
</svg>
