<svg xmlns="http://www.w3.org/2000/svg" width="21" height="21" viewBox="0 0 21 21">
    <g data-name="6">
        <path data-name="패스 17653" d="M38.854 437.6H32v-5.76a4.128 4.128 0 0 1 3.354-2.406c2.406-.146 3.5 2.406 3.5 2.406z" transform="translate(-25.001 -417.258)" style="fill:#b7d9fc"/>
        <path d="M20.229 7.937 13.593 1.3a4.382 4.382 0 0 0-6.188 0L.769 7.937A2.606 2.606 0 0 0 0 9.793v8.589a2.625 2.625 0 0 0 2.625 2.625h15.749A2.625 2.625 0 0 0 21 18.382V9.793a2.606 2.606 0 0 0-.771-1.856zm-7.105 11.32h-5.25v-3.442a2.625 2.625 0 1 1 5.25 0zm6.125-.875a.875.875 0 0 1-.875.875h-3.5v-3.442a4.375 4.375 0 1 0-8.749 0v3.442h-3.5a.875.875 0 0 1-.875-.875V9.793a.882.882 0 0 1 .256-.619L8.643 2.54a2.632 2.632 0 0 1 3.713 0l6.636 6.637a.882.882 0 0 1 .256.616z" transform="translate(0 -.021)" style="fill:#3a3a3a"/>
    </g>
</svg>
