<svg xmlns="http://www.w3.org/2000/svg" width="21" height="21" viewBox="0 0 21 21">
    <defs>
        <clipPath id="n9fpfv9nfa">
            <path data-name="Rectangle 1" transform="translate(26 419)" style="opacity:0;fill:#3a3a3a" d="M0 0h21v21H0z"/>
        </clipPath>
    </defs>
    <g data-name="28">
        <path data-name="사각형 9051" transform="translate(11 10)" style="fill:#b7d9fc" d="M0 0h8.5v9.5H0z"/>
        <path data-name="사각형 9052" transform="translate(1 1)" style="fill:#b7d9fc" d="M0 0h8.5v9.5H0z"/>
        <g data-name="마스크 그룹 13741" style="clip-path:url(#n9fpfv9nfa)" transform="translate(-26 -419)">
            <path data-name="패스 17988" d="M4.1 14.6h3.119a.82.82 0 0 0 0-1.641H4.1a.82.82 0 0 0 0 1.641z" style="fill:#3a3a3a" transform="translate(26 419)"/>
            <path data-name="패스 17989" d="M4.1 17.883h3.119a.82.82 0 0 0 0-1.641H4.1a.82.82 0 0 0 0 1.641z" style="fill:#3a3a3a" transform="translate(26 419)"/>
            <path data-name="패스 17990" d="M16.9 0H4.1A4.106 4.106 0 0 0 0 4.1v12.8A4.106 4.106 0 0 0 4.1 21h12.8a4.106 4.106 0 0 0 4.1-4.1V4.1A4.106 4.106 0 0 0 16.9 0zm2.461 16.9a2.464 2.464 0 0 1-2.461 2.459H4.1A2.464 2.464 0 0 1 1.641 16.9V4.1A2.464 2.464 0 0 1 4.1 1.641h12.8A2.464 2.464 0 0 1 19.359 4.1z" style="fill:#3a3a3a" transform="translate(26 419)"/>
            <path data-name="패스 17991" d="M16.9 11.32a.82.82 0 0 0 0-1.641h-5.58V3.938a.82.82 0 0 0-1.641 0V9.68H4.1a.82.82 0 0 0 0 1.641h5.58v5.742a.82.82 0 0 0 1.641 0V11.32z" style="fill:#3a3a3a" transform="translate(26 419)"/>
            <path data-name="패스 17992" d="M4.1 6.4h.82v.82a.82.82 0 0 0 1.641 0V6.4h.82a.82.82 0 0 0 0-1.641h-.82v-.82a.82.82 0 0 0-1.641 0v.82H4.1a.82.82 0 0 0 0 1.641z" style="fill:#3a3a3a" transform="translate(26 419)"/>
            <path data-name="패스 17993" d="M13.617 6.4H16.9a.82.82 0 0 0 0-1.641h-3.283a.82.82 0 0 0 0 1.641z" style="fill:#3a3a3a" transform="translate(26 419)"/>
            <path data-name="패스 17994" d="M17.479 13.2a.82.82 0 0 0-1.16 0l-1.061 1.061L14.2 13.2a.82.82 0 0 0-1.16 1.16l1.06 1.062-1.061 1.061a.82.82 0 1 0 1.16 1.16l1.061-1.061 1.061 1.061a.82.82 0 0 0 1.16-1.16l-1.061-1.061 1.061-1.061a.82.82 0 0 0-.002-1.161z" style="fill:#3a3a3a" transform="translate(26 419)"/>
        </g>
    </g>
</svg>
