<svg xmlns="http://www.w3.org/2000/svg" width="21" height="21" viewBox="0 0 21 21">
    <g data-name="32">
        <path data-name="패스 17807" d="M45.508 434.175a30.208 30.208 0 0 0 .726-2.971c-.033-.3-1.023-3.17-1.023-3.17l-2.773-2.575-3.2-.462-3.632.958-1.816 2.807-.693 3.863 1.585 3.071 3.533 2.443 4.226-.429 1.685.2 1.089-.2.858-1.189-.4-1.783z" style="fill:#b7d9fc" transform="translate(-26 -418)"/>
        <g>
            <circle data-name="타원 2206" cx=".82" cy=".82" r=".82" transform="translate(9.513 12.796)" style="fill:#3a3a3a"/>
            <circle data-name="타원 2207" cx=".82" cy=".82" r=".82" transform="translate(12.795 12.796)" style="fill:#3a3a3a"/>
            <circle data-name="타원 2208" cx=".82" cy=".82" r=".82" transform="translate(16.076 12.796)" style="fill:#3a3a3a"/>
            <path data-name="패스 17798" d="M.309 11.674a2.462 2.462 0 0 0 2.441 2.81 13.088 13.088 0 0 0 1.486-.184A.82.82 0 0 0 4 12.672l-1.142.163a.82.82 0 0 1-.929-.929l.253-1.77a.82.82 0 0 0-.061-.445 5.744 5.744 0 0 1 10.256-5.147.82.82 0 1 0 1.423-.812A7.384 7.384 0 0 0 .53 10.127z" style="fill:#3a3a3a"/>
            <path data-name="패스 17799" d="M13.615 6.233a7.383 7.383 0 1 0 2.745 14.239l1.546.221a2.463 2.463 0 0 0 2.785-2.785l-.221-1.546a7.385 7.385 0 0 0-6.855-10.129zm5.2 10.135.253 1.771a.82.82 0 0 1-.929.929l-1.77-.253a.821.821 0 0 0-.445.061 5.743 5.743 0 0 1-6.368-9.32 5.743 5.743 0 0 1 9.32 6.368.82.82 0 0 0-.061.445z" style="fill:#3a3a3a"/>
        </g>
    </g>
</svg>
