<svg xmlns="http://www.w3.org/2000/svg" width="21" height="21" viewBox="0 0 21 21">
    <g data-name="9">
        <g data-name="01 align center">
            <path data-name="사각형 8974" transform="translate(2 2.5)" style="fill:#b7d9fc" d="M0 0h16v11H0z"/>
            <path data-name="패스 17662" d="M15.435 3H2.2A2.2 2.2 0 0 0 0 5.2v11.03h17.64V5.2A2.2 2.2 0 0 0 15.435 3zM2.2 4.47h13.23a.735.735 0 0 1 .735.735v9.47H1.47V5.2a.735.735 0 0 1 .735-.735z" transform="translate(1.68 -1.32)" style="fill:#3a3a3a"/>
            <g data-name="패스 17663" style="fill:#fff">
                <path d="M18.006 5.13H-1.006L.246.75h16.508l1.252 4.38z" style="stroke:none" transform="translate(2 13.44)"/>
                <path d="M.811 1.5-.01 4.38H17.01L16.19 1.5H.81M-.32 0h17.64L19 5.88H-2L-.32 0z" style="fill:#3a3a3a;stroke:none" transform="translate(2 13.44)"/>
            </g>
            <path data-name="패스 17664" d="M1.026-2.376A.6.6 0 0 1 .6-2.525a.513.513 0 0 1-.157-.391.543.543 0 0 1 .157-.4.578.578 0 0 1 .428-.157h.2l-.49-1.945a.741.741 0 0 1-.027-.256.578.578 0 0 1 .067-.239.457.457 0 0 1 .172-.176.525.525 0 0 1 .275-.068.587.587 0 0 1 .446.148.887.887 0 0 1 .2.4l.5 2.133H3.42l.5-2.088a.862.862 0 0 1 .229-.414.666.666 0 0 1 .5-.18.652.652 0 0 1 .495.171 1 1 0 0 1 .234.441l.495 2.07h1.048l.5-2.115A.875.875 0 0 1 7.637-6a.556.556 0 0 1 .418-.153.549.549 0 0 1 .279.068.519.519 0 0 1 .184.175.551.551 0 0 1 .081.239.673.673 0 0 1-.023.256l-.5 1.944h.162a.575.575 0 0 1 .432.157.551.551 0 0 1 .153.4.521.521 0 0 1-.153.391.6.6 0 0 1-.432.149h-.444L7.218-.1a1.559 1.559 0 0 1-.09.252.713.713 0 0 1-.144.208.669.669 0 0 1-.22.14.81.81 0 0 1-.311.054A.726.726 0 0 1 5.9.378a1.063 1.063 0 0 1-.239-.5l-.54-2.259h-.936L3.654-.126a1.024 1.024 0 0 1-.252.5.763.763 0 0 1-.567.185A.665.665 0 0 1 2.3.36a1.079 1.079 0 0 1-.23-.46l-.576-2.276zm2.133 0h-.522L2.9-1.269zm3.5 0h-.512L6.408-1.3zm-1.8-1.1-.207-.873-.207.873z" transform="translate(6 11.5)" style="fill:#3a3a3a"/>
        </g>
    </g>
</svg>
