<svg xmlns="http://www.w3.org/2000/svg" width="21" height="21" viewBox="0 0 21 21">
    <defs>
        <clipPath id="8sfhlgxmwa">
            <path data-name="Rectangle 1" transform="translate(26 418)" style="fill:#3a3a3a" d="M0 0h21v21H0z"/>
        </clipPath>
    </defs>
    <g data-name="24" transform="translate(-26 -418)">
        <ellipse data-name="타원 2247" cx="4.5" cy="4" rx="4.5" ry="4" transform="translate(38 428)" style="fill:#b7d9fc"/>
        <g data-name="마스크 그룹 13739" style="clip-path:url(#8sfhlgxmwa)">
            <g data-name="그룹 16617">
                <path data-name="패스 17981" d="M8.741 15.422h-6.28A2.464 2.464 0 0 1 0 12.961V3.117A2.464 2.464 0 0 1 2.461.656h3.914a2.445 2.445 0 0 1 1.74.721l.92.92h4.582a2.464 2.464 0 0 1 2.461 2.461v1.686a.82.82 0 0 1-1.641 0V4.758a.821.821 0 0 0-.82-.82H8.7a.82.82 0 0 1-.58-.24l-1.16-1.16a.815.815 0 0 0-.58-.24H2.461a.821.821 0 0 0-.82.82v9.844a.821.821 0 0 0 .82.82h6.28a.82.82 0 0 1 0 1.641z" style="fill:#3a3a3a" transform="translate(26 418)"/>
            </g>
            <path data-name="패스 17982" d="M16.078 8.859a4.92 4.92 0 0 0-4.01 7.772l-2.312 2.312a.82.82 0 1 0 1.16 1.16l2.312-2.312a4.921 4.921 0 1 0 2.85-8.932zm0 8.2a3.281 3.281 0 1 1 3.281-3.281 3.285 3.285 0 0 1-3.281 3.285z" style="fill:#3a3a3a" transform="translate(26 418)"/>
        </g>
    </g>
</svg>
