<svg xmlns="http://www.w3.org/2000/svg" width="21" height="21" viewBox="0 0 21 21">
    <defs>
        <clipPath id="9u7waawxpa">
            <path data-name="사각형 9002" transform="translate(26 418)" style="stroke:#707070;fill:#3a3a3a" d="M0 0h21v21H0z"/>
        </clipPath>
    </defs>
    <g data-name="19" transform="translate(-26 -418)">
        <rect data-name="사각형 9025" width="7" height="5" rx="2" transform="translate(33 433)" style="fill:#b7d9fc"/>
        <g data-name="마스크 그룹 13716" style="clip-path:url(#9u7waawxpa)">
            <g data-name="그룹 16513">
                <path data-name="패스 17766" d="M4.319 10.283a.82.82 0 0 1 0-1.16l4.64-4.64a.82.82 0 0 1 1.16 1.16l-4.64 4.64a.82.82 0 0 1-1.16 0z" style="fill:#3a3a3a" transform="translate(26 418)"/>
            </g>
            <g data-name="그룹 16514" transform="translate(26 418)">
                <circle data-name="타원 2198" cx=".82" cy=".82" r=".82" transform="translate(4.078 4.242)" style="fill:#3a3a3a"/>
            </g>
            <g data-name="그룹 16515" transform="translate(26 418)">
                <circle data-name="타원 2199" cx=".82" cy=".82" r=".82" transform="translate(8.719 8.883)" style="fill:#3a3a3a"/>
            </g>
            <g data-name="그룹 16516">
                <path data-name="패스 17767" d="M16.9 0H4.1A4.106 4.106 0 0 0 0 4.1v8.2a4.106 4.106 0 0 0 4.1 4.1h12.8a4.106 4.106 0 0 0 4.1-4.1V4.1A4.106 4.106 0 0 0 16.9 0zm2.461 12.3a2.464 2.464 0 0 1-2.461 2.466H4.1A2.464 2.464 0 0 1 1.641 12.3V4.1A2.464 2.464 0 0 1 4.1 1.641h12.8A2.464 2.464 0 0 1 19.359 4.1z" style="fill:#3a3a3a" transform="translate(26 418)"/>
                <path data-name="패스 17768" d="M15.422 19.359h-1.05l-.36-1.08a.82.82 0 1 0-1.556.519l.187.561H8.357l.187-.561a.82.82 0 0 0-1.556-.519l-.36 1.08h-1.05a.82.82 0 0 0 0 1.641h9.844a.82.82 0 1 0 0-1.641z" style="fill:#3a3a3a" transform="translate(26 418)"/>
                <path data-name="패스 17769" d="M17.322 8.046 12.1 6.306a.82.82 0 0 0-1.038 1.038l1.74 5.22a.82.82 0 0 0 1.358.321l1.16-1.16.58.58a.82.82 0 0 0 1.16-1.16l-.58-.58 1.16-1.16a.82.82 0 0 0-.321-1.358zm-3.381 2.74-.8-2.4 2.4.8z" style="fill:#3a3a3a" transform="translate(26 418)"/>
            </g>
        </g>
    </g>
</svg>
