<svg xmlns="http://www.w3.org/2000/svg" width="21" height="21" viewBox="0 0 21 21">
    <g data-name="13">
        <path data-name="패스 17805" d="m36.5 426.825-.854-1.618H33.47l-1.116 1.228v2.4l4.146 4.3 3.721-3.739.779-2.571-1.172-1.618-2.455-.279z" style="fill:#b7d9fc" transform="translate(-26 -418)"/>
        <path data-name="comment-heart (1)" d="M10.5 0a10.5 10.5 0 1 0 0 21H21V10.5A10.511 10.511 0 0 0 10.5 0zm8.75 19.25H10.5a8.75 8.75 0 1 1 8.75-8.75zM12.688 6.125a3.075 3.075 0 0 0-2.187.866 3.075 3.075 0 0 0-2.187-.866A3.157 3.157 0 0 0 5.25 9.363c0 2.849 4.265 5.894 4.751 6.231l.5.35.5-.35c.487-.337 4.751-3.382 4.751-6.231a3.157 3.157 0 0 0-3.062-3.238zM10.5 13.792C8.977 12.628 7 10.677 7 9.363a1.41 1.41 0 0 1 1.312-1.488 1.225 1.225 0 0 1 1.313 1.272v.478h1.75v-.478a1.225 1.225 0 0 1 1.313-1.272A1.41 1.41 0 0 1 14 9.363c0 1.312-1.977 3.265-3.5 4.429z" style="fill:#3a3a3a"/>
    </g>
</svg>
