<svg xmlns="http://www.w3.org/2000/svg" width="21" height="21" viewBox="0 0 21 21">
    <defs>
        <clipPath id="9rtd1739ia">
            <path data-name="사각형 9013" transform="translate(20 418)" style="stroke:#707070;fill:#3a3a3a" d="M0 0h21v21H0z"/>
        </clipPath>
    </defs>
    <g data-name="그룹 16463">
        <g data-name="40" transform="translate(-20 -418)" style="clip-path:url(#9rtd1739ia)">
            <circle data-name="타원 2228" cx="5" cy="5" r="5" transform="translate(30 428)" style="fill:#b7d9fc"/>
            <path data-name="패스 17788" d="M17.719 15.258a.82.82 0 0 0-.82-.82h-3.282a.82.82 0 0 0 0 1.641H16.9a.82.82 0 0 0 .819-.821z" style="fill:#3a3a3a" transform="translate(20 418)"/>
            <path data-name="패스 17789" d="M15.258 9.516A5.742 5.742 0 1 0 21 15.258a5.749 5.749 0 0 0-5.742-5.742zm0 9.844a4.1 4.1 0 1 1 4.1-4.1 4.106 4.106 0 0 1-4.1 4.099z" style="fill:#3a3a3a" transform="translate(20 418)"/>
            <path data-name="패스 17790" d="M3.117 4.1A4.1 4.1 0 1 0 7.219 0a4.106 4.106 0 0 0-4.102 4.1zm4.1-2.461A2.461 2.461 0 1 1 4.758 4.1a2.464 2.464 0 0 1 2.461-2.459z" style="fill:#3a3a3a" transform="translate(20 418)"/>
            <path data-name="패스 17791" d="M2.461 17.719H7.22a.82.82 0 0 0 0-1.641H2.461a.821.821 0 0 1-.82-.82 4.106 4.106 0 0 1 4.1-4.1H8.7a.82.82 0 0 0 0-1.641H5.742A5.749 5.749 0 0 0 0 15.258a2.464 2.464 0 0 0 2.461 2.461z" style="fill:#3a3a3a" transform="translate(20 418)"/>
        </g>
    </g>
</svg>
