<svg xmlns="http://www.w3.org/2000/svg" width="21" height="21" viewBox="0 0 21 21">
    <defs>
        <clipPath id="vwtbrvd07a">
            <path data-name="Rectangle 1" transform="translate(26 415)" style="opacity:0;fill:#3a3a3a" d="M0 0h21v21H0z"/>
        </clipPath>
    </defs>
    <g data-name="30">
        <path data-name="패스 17987" d="m44.177 420.926-8.241 8.455-.558 2.747 3.391-.944 6.953-6.867.645-2.061-1.288-.987z" style="fill:#b7d9fc" transform="translate(-26 -415)"/>
        <g data-name="마스크 그룹 13740" style="clip-path:url(#vwtbrvd07a)" transform="translate(-26 -415)">
            <g data-name="그룹 16618">
                <path data-name="패스 17983" d="M20.28 6.206a2.464 2.464 0 0 0-3.48 0l-6.152 6.152a6.373 6.373 0 0 0-1.829 3.721h-.756a2.461 2.461 0 0 0-4.781.82.82.82 0 0 0 1.641 0 .82.82 0 0 1 1.641 0 .82.82 0 0 0 .82.82h2.2a6.38 6.38 0 0 0 4.541-1.881l6.155-6.152a2.464 2.464 0 0 0 0-3.48zm-7.312 8.472a4.747 4.747 0 0 1-2.475 1.315 4.748 4.748 0 0 1 1.315-2.475l3.58-3.58 1.16 1.16zm6.152-6.152-1.412 1.412-1.16-1.16 1.412-1.412a.82.82 0 0 1 1.16 1.16z" style="fill:#3a3a3a" transform="translate(26 415)"/>
                <path data-name="패스 17984" d="M15.587 17.027a.82.82 0 0 0-.82.82v.692a.821.821 0 0 1-.82.82H2.462a.821.821 0 0 1-.82-.82V2.461a.821.821 0 0 1 .82-.82h9.164a.815.815 0 0 1 .58.24l2.32 2.32a.822.822 0 0 1 .209.357.82.82 0 0 0 1.579-.447 2.466 2.466 0 0 0-.628-1.07l-2.32-2.32A2.445 2.445 0 0 0 11.626 0H2.462A2.464 2.464 0 0 0 0 2.461v16.078A2.464 2.464 0 0 0 2.462 21h11.484a2.464 2.464 0 0 0 2.461-2.461v-.692a.82.82 0 0 0-.82-.82z" style="fill:#3a3a3a" transform="translate(26 415)"/>
            </g>
            <g data-name="그룹 16619">
                <path data-name="패스 17985" d="M9.024 6.563H4.1a.82.82 0 1 1 0-1.641h4.924a.82.82 0 0 1 0 1.641z" style="fill:#3a3a3a" transform="translate(26 415)"/>
            </g>
            <g data-name="그룹 16620">
                <path data-name="패스 17986" d="M9.024 9.844H4.1a.82.82 0 0 1 0-1.644h4.924a.82.82 0 0 1 0 1.641z" style="fill:#3a3a3a" transform="translate(26 415)"/>
            </g>
        </g>
    </g>
</svg>
