<svg xmlns="http://www.w3.org/2000/svg" width="21" height="21" viewBox="0 0 21 21">
    <g data-name="26" transform="translate(-26 -418)">
        <ellipse data-name="타원 2219" cx="3" cy="2.5" rx="3" ry="2.5" transform="translate(27 430)" style="fill:#b7d9fc"/>
        <ellipse data-name="타원 2220" cx="3" cy="2.5" rx="3" ry="2.5" transform="translate(40 430)" style="fill:#b7d9fc"/>
        <path data-name="패스 17734" d="M200.1 0h-3.28a.82.82 0 0 0 0 1.641h3.28a.82.82 0 0 0 0-1.641z" transform="translate(-161.961 418)" style="fill:#3a3a3a"/>
        <path data-name="패스 17735" d="M160.1 236a.82.82 0 0 0-.82.82v8.859h-2.46a.82.82 0 0 0 0 1.641h6.563a.82.82 0 0 0 0-1.641h-2.461v-8.859a.82.82 0 0 0-.822-.82z" transform="translate(-123.602 191.681)" style="fill:#3a3a3a"/>
        <path data-name="패스 17736" d="M5.742 276H2.461A2.464 2.464 0 0 0 0 278.461a4.1 4.1 0 0 0 8.2 0A2.464 2.464 0 0 0 5.742 276zM4.1 280.922a2.464 2.464 0 0 1-2.461-2.461.821.821 0 0 1 .82-.82h3.283a.821.821 0 0 1 .82.82 2.464 2.464 0 0 1-2.462 2.461z" transform="translate(26 153.32)" style="fill:#3a3a3a"/>
        <path data-name="패스 17737" d="M317.742 276h-3.281a2.464 2.464 0 0 0-2.461 2.461 4.1 4.1 0 0 0 8.2 0 2.464 2.464 0 0 0-2.458-2.461zm-1.641 4.922a2.464 2.464 0 0 1-2.461-2.461.821.821 0 0 1 .82-.82h3.281a.821.821 0 0 1 .82.82 2.464 2.464 0 0 1-2.461 2.461z" transform="translate(-273.203 153.32)" style="fill:#3a3a3a"/>
        <path data-name="패스 17738" d="M20.18 77.641h-7.36a2.46 2.46 0 0 0-4.64 0H.82a.82.82 0 0 0 0 1.641h2.461v2.461a.82.82 0 0 0 1.641 0v-2.462H8.18a2.46 2.46 0 0 0 4.64 0h3.258v2.461a.82.82 0 0 0 1.641 0v-2.461h2.461a.82.82 0 0 0 0-1.641zm-9.68 1.64a.82.82 0 1 1 .82-.82.821.821 0 0 1-.82.82z" transform="translate(26 345.117)" style="fill:#3a3a3a"/>
    </g>
</svg>
