<svg xmlns="http://www.w3.org/2000/svg" width="21" height="21" viewBox="0 0 21 21">
    <g data-name="27" transform="translate(-26 -418)">
        <rect data-name="사각형 9027" width="13" height="20" rx="6.5" transform="translate(30 419)" style="fill:#b7d9fc"/>
        <path data-name="패스 17730" d="M198.461 159.281h1.639a.82.82 0 1 0 0-1.641h-.82v-.82a.82.82 0 0 0-1.641 0v.961a2.461 2.461 0 0 0 .82 4.781.82.82 0 0 1 0 1.641h-1.639a.82.82 0 1 0 0 1.641h.82v.82a.82.82 0 0 0 1.641 0v-.964a2.461 2.461 0 0 0-.82-4.781.82.82 0 1 1 0-1.641z" transform="translate(-161.961 268.398)" style="fill:#3a3a3a"/>
        <path data-name="패스 17731" d="M2.461 244.2a2.464 2.464 0 0 0 2.461-2.461v-3.281a2.461 2.461 0 0 0-4.922 0v3.281a2.464 2.464 0 0 0 2.461 2.461zm-.82-5.742a.82.82 0 0 1 1.641 0v3.281a.82.82 0 0 1-1.641 0z" transform="translate(26 191.68)" style="fill:#3a3a3a"/>
        <path data-name="패스 17732" d="M241.023 232a2.464 2.464 0 0 0-2.461 2.461v4.922a2.464 2.464 0 0 1-2.461 2.461h-3.281a.82.82 0 1 0 0 1.641h3.28a4.108 4.108 0 0 0 4.048-3.442 2.46 2.46 0 0 0 3.335-2.3v-3.281a2.464 2.464 0 0 0-2.46-2.462zm.82 5.742a.82.82 0 0 1-1.641 0v-3.281a.82.82 0 0 1 1.641 0z" transform="translate(-196.484 195.516)" style="fill:#3a3a3a"/>
        <path data-name="패스 17733" d="M89.945 8.484a.82.82 0 0 0 .82-.82v-.281a7.383 7.383 0 0 0-14.765 0v.281a.82.82 0 0 0 1.641 0v-.281a5.742 5.742 0 0 1 11.484 0v.281a.82.82 0 0 0 .82.82z" transform="translate(-46.883 418)" style="fill:#3a3a3a"/>
    </g>
</svg>
