<svg xmlns="http://www.w3.org/2000/svg" width="21" height="20.909" viewBox="0 0 21 20.909">
    <g data-name="11" transform="translate(-26 -417)">
        <circle data-name="타원 2212" cx="3.665" cy="3.665" r="3.665" transform="translate(36.5 428.799)" style="fill:#b7d9fc"/>
        <path d="M14.665 5.227a.872.872 0 1 1 0 1.742H7.428a.872.872 0 1 1 0-1.742zm6.972 15.427a.929.929 0 0 1-1.279 0l-2.177-2.1a4.146 4.146 0 0 1-2.158.61 4 4 0 0 1-4.071-3.92 4.074 4.074 0 0 1 8.142 0 3.779 3.779 0 0 1-.633 2.079l2.177 2.1a.849.849 0 0 1-.001 1.231zm-5.615-3.23a2.18 2.18 0 1 0-2.262-2.178 2.221 2.221 0 0 0 2.262 2.178zm-4.071 1.742H6.523a2.665 2.665 0 0 1-2.714-2.614V4.356a2.665 2.665 0 0 1 2.714-2.614h10.856a.888.888 0 0 1 .9.871v6.97a.905.905 0 0 0 1.809 0V2.614A2.665 2.665 0 0 0 17.379 0H6.523A4.447 4.447 0 0 0 2 4.356v12.2a4.447 4.447 0 0 0 4.523 4.356h5.428a.872.872 0 1 0 0-1.742z" transform="translate(24 417)" style="fill:#3a3a3a"/>
    </g>
</svg>
