<svg xmlns="http://www.w3.org/2000/svg" width="21" height="21" viewBox="0 0 21 21">
    <defs>
        <clipPath id="g1h5z51u8a">
            <path data-name="Rectangle 1" transform="translate(26 418)" style="opacity:0;fill:#3a3a3a" d="M0 0h21v21H0z"/>
        </clipPath>
    </defs>
    <g data-name="35">
        <path data-name="패스 18002" d="M35.122 419.6v9.4l1.073 1.416 8.5-.214 1.545-1.331s-1.546-8.671-10.216-10.13c-.472.474-.902.859-.902.859z" style="fill:#b7d9fc" transform="translate(-26 -418)"/>
        <g data-name="마스크 그룹 13744" style="clip-path:url(#g1h5z51u8a)" transform="translate(-26 -418)">
            <path data-name="패스 17999" d="M6.4 2.3a.82.82 0 0 0-.82-.82H2.3a.82.82 0 1 0 0 1.641h3.277A.82.82 0 0 0 6.4 2.3z" style="fill:#3a3a3a" transform="translate(26 418)"/>
            <path data-name="패스 18000" d="M6.562 7.732v-.2a2.386 2.386 0 0 0-1.534-2.246 2.436 2.436 0 0 0-2.7.648A9.018 9.018 0 0 0 15.067 18.67a2.436 2.436 0 0 0 .648-2.7 2.386 2.386 0 0 0-2.243-1.534h-.2a2.369 2.369 0 0 0-1.568.625 4.085 4.085 0 0 1-3.959.82 3.983 3.983 0 0 1-2.628-2.621 4.085 4.085 0 0 1 .82-3.96 2.369 2.369 0 0 0 .625-1.568zm.7 9.721a5.7 5.7 0 0 0 5.519-1.153.781.781 0 0 1 .487-.218h.2a.732.732 0 0 1 .713.484.791.791 0 0 1-.219.892A7.377 7.377 0 0 1 3.546 7.035a.776.776 0 0 1 .591-.274.857.857 0 0 1 .3.055.732.732 0 0 1 .484.713v.2a.781.781 0 0 1-.218.487 5.724 5.724 0 0 0 2.561 9.235z" style="fill:#3a3a3a" transform="translate(26 418)"/>
            <path data-name="패스 18001" d="M20.423 12.117a2.394 2.394 0 0 0 .546-1.937A12.315 12.315 0 0 0 10.82.031a2.394 2.394 0 0 0-1.937.546A2.486 2.486 0 0 0 8 2.474v8.061A2.464 2.464 0 0 0 10.465 13h8.061a2.486 2.486 0 0 0 1.897-.883zM9.645 10.535V2.474a.848.848 0 0 1 .3-.646.764.764 0 0 1 .491-.187.739.739 0 0 1 .12.01 10.637 10.637 0 0 1 8.794 8.794.752.752 0 0 1-.177.61.848.848 0 0 1-.646.3h-8.062a.821.821 0 0 1-.82-.82z" style="fill:#3a3a3a" transform="translate(26 418)"/>
        </g>
    </g>
</svg>
