<svg xmlns="http://www.w3.org/2000/svg" width="21" height="21" viewBox="0 0 21 21">
    <defs>
        <clipPath id="zzs6tn301a">
            <path data-name="사각형 9010" transform="translate(26 418)" style="stroke:#707070;fill:#3a3a3a" d="M0 0h21v21H0z"/>
        </clipPath>
    </defs>
    <g data-name="37" transform="translate(-26 -419)">
        <rect data-name="사각형 9034" width="16" height="10" rx="5" transform="translate(26 421)" style="fill:#b7d9fc"/>
        <g data-name="마스크 그룹 13722" transform="translate(0 1)" style="clip-path:url(#zzs6tn301a)">
            <g data-name="credit-card (2)" transform="translate(26 418)">
                <circle data-name="타원 2203" cx=".82" cy=".82" r=".82" transform="translate(11.484 8.039)" style="fill:#3a3a3a"/>
                <circle data-name="타원 2204" cx=".82" cy=".82" r=".82" transform="translate(16.078 14.602)" style="fill:#3a3a3a"/>
                <path data-name="패스 17783" d="M4.1 12.961h8.2a4.106 4.106 0 0 0 4.1-4.1V5.578a4.106 4.106 0 0 0-4.1-4.1H4.1a4.106 4.106 0 0 0-4.1 4.1v3.281a4.106 4.106 0 0 0 4.1 4.102zM1.641 5.578A2.464 2.464 0 0 1 4.1 3.117h8.2a2.464 2.464 0 0 1 2.461 2.461v3.281A2.464 2.464 0 0 1 12.3 11.32H4.1a2.464 2.464 0 0 1-2.459-2.461z" style="fill:#3a3a3a"/>
                <path data-name="패스 17784" d="M18.587 8.4a.82.82 0 1 0-.676 1.5 2.467 2.467 0 0 1 1.448 2.244v3.281a2.464 2.464 0 0 1-2.459 2.458H8.7a2.464 2.464 0 0 1-2.461-2.461.82.82 0 0 0-1.641 0 4.106 4.106 0 0 0 4.1 4.1h8.2a4.106 4.106 0 0 0 4.1-4.1v-3.281A4.111 4.111 0 0 0 18.587 8.4z" style="fill:#3a3a3a"/>
                <path data-name="패스 17785" d="M4.1 6.4h8.2a.82.82 0 0 0 0-1.641H4.1a.82.82 0 0 0 0 1.641z" style="fill:#3a3a3a"/>
            </g>
        </g>
    </g>
</svg>
