<svg xmlns="http://www.w3.org/2000/svg" width="21" height="21" viewBox="0 0 21 21">
    <g data-name="7">
        <path data-name="패스 17654" d="m40.129 420.043-3.767-.191 1.764 5.246-2.718 12.494 8.87-11.779z" transform="translate(-24.956 -418.394)" style="fill:#b7d9fc"/>
        <path d="m19.336 4.782-2.507-3.387A3.335 3.335 0 0 0 14.119 0H5.867a3.331 3.331 0 0 0-2.7 1.379L.612 4.791a3.325 3.325 0 0 0 .1 3.984l7.324 10.266a2.5 2.5 0 0 0 3.937-.033l7.263-10.153a3.331 3.331 0 0 0 .1-4.073zm-3.854-2.408L18 5.77c.013.018.017.04.03.059h-4.078l-1.189-4.164h1.357a1.676 1.676 0 0 1 1.363.709zM9.993 15.92 7.744 7.495h4.5zM7.766 5.829l1.189-4.164h2.075l1.19 4.164zM4.511 2.362a1.671 1.671 0 0 1 1.356-.7h1.356L6.034 5.829H1.93c.012-.018.015-.041.028-.058zm-2.472 5.4a1.582 1.582 0 0 1-.154-.271h4.137l2.493 9.352zm9.429 9.089 2.5-9.36h4.152a1.749 1.749 0 0 1-.2.351z" transform="translate(.001 .507)" style="fill:#3a3a3a"/>
    </g>
</svg>
