<svg xmlns="http://www.w3.org/2000/svg" width="21" height="21" viewBox="0 0 21 21">
    <g data-name="4">
        <path data-name="패스 17651" d="m18.563.813-2.125.563L5.313 12.813v2.75H7.5L19.125 4.25 20 2.625z" style="fill:#b7d9fc"/>
        <path data-name="패스 17649" d="M16.893.816 6.275 11.434A4.325 4.325 0 0 0 5 14.513v1.17a.871.871 0 0 0 .871.871h1.17a4.325 4.325 0 0 0 3.079-1.275L20.738 4.66a2.722 2.722 0 0 0 0-3.844 2.782 2.782 0 0 0-3.844 0zm2.613 2.613L8.888 14.047a2.63 2.63 0 0 1-1.847.765h-.3v-.3a2.63 2.63 0 0 1 .765-1.847L18.125 2.047a1 1 0 0 1 1.381 0 .978.978 0 0 1 0 1.381z" transform="translate(-.645 -.006)" style="fill:#3a3a3a"/>
        <path data-name="패스 17650" d="M20.031 7.82a.871.871 0 0 0-.871.871v4.373h-3.483a2.613 2.613 0 0 0-2.613 2.613v3.483H4.355a2.613 2.613 0 0 1-2.613-2.613V4.355a2.613 2.613 0 0 1 2.613-2.613h7.875a.871.871 0 1 0 0-1.742H4.355A4.36 4.36 0 0 0 0 4.355v12.193A4.36 4.36 0 0 0 4.355 20.9h9.879a4.327 4.327 0 0 0 3.08-1.275l2.313-2.315a4.327 4.327 0 0 0 1.273-3.076V8.691a.871.871 0 0 0-.869-.871zM16.082 18.4a2.591 2.591 0 0 1-1.276.7v-3.423a.871.871 0 0 1 .871-.871H19.1a2.627 2.627 0 0 1-.7 1.275z" style="fill:#3a3a3a"/>
    </g>
</svg>
