<svg xmlns="http://www.w3.org/2000/svg" width="21" height="21" viewBox="0 0 21 21">
    <g data-name="5">
        <path data-name="패스 17652" d="M27.185 431.918H46.6v-4.183l-1.93-.751H28.15l-.966.751z" transform="translate(-26.148 -417.873)" style="fill:#b7d9fc"/>
        <path d="M21 11.625A2.625 2.625 0 0 0 18.375 9h-.418l-4.1-5.876A2.625 2.625 0 0 0 11.707 2H5.582a2.639 2.639 0 0 0-2.454 1.695L.853 9.687A2.62 2.62 0 0 0 0 11.625V16h1.75v.437a3.062 3.062 0 1 0 6.125 0V16h5.25v.437a3.063 3.063 0 1 0 6.125 0V16H21zm-8.575-7.5L15.823 9h-6.2V3.75h2.082a.875.875 0 0 1 .718.375zm-7.659.19a.875.875 0 0 1 .817-.564h2.292V9H2.989zm1.359 12.122a1.312 1.312 0 1 1-2.625 0V16h2.625zm11.375 0a1.312 1.312 0 1 1-2.625 0V16H17.5zm1.75-2.187H1.75v-2.625a.875.875 0 0 1 .875-.875h15.75a.875.875 0 0 1 .875.875z" transform="translate(0 -.75)" style="fill:#3a3a3a"/>
    </g>
</svg>
