<svg xmlns="http://www.w3.org/2000/svg" width="21" height="21" viewBox="0 0 21 21">
    <defs>
        <clipPath id="0nkif71pka">
            <path data-name="사각형 9005" transform="translate(26 418)" style="stroke:#707070;fill:#3a3a3a" d="M0 0h21v21H0z"/>
        </clipPath>
    </defs>
    <g data-name="17">
        <path data-name="패스 17806" d="m30.17 433.174 1.116 1.841h12.22l1.116-1.507.5-8.76-4.743 4.3-2.288-.558-1.618-1.506-6.024 5.516z" style="fill:#b7d9fc" transform="translate(-26 -418)"/>
        <g data-name="마스크 그룹 13717" style="clip-path:url(#0nkif71pka)" transform="translate(-26 -418)">
            <g data-name="그룹 16517">
                <path data-name="패스 17770" d="M20.18 21H2.461A2.464 2.464 0 0 1 0 18.539V.82a.82.82 0 0 1 1.641 0v17.719a.821.821 0 0 0 .82.82H20.18a.82.82 0 0 1 0 1.641z" style="fill:#3a3a3a" transform="translate(26 418)"/>
            </g>
            <g data-name="그룹 16518">
                <path data-name="패스 17771" d="M3.522 10.916a.82.82 0 0 1 0-1.16l5.4-5.4a2.464 2.464 0 0 1 3.48 0l.961.961a.821.821 0 0 0 1.16 0l2.121-2.121a.82.82 0 0 1 1.16 1.16l-2.119 2.119a2.464 2.464 0 0 1-3.48 0l-.961-.961a.821.821 0 0 0-1.16 0l-5.4 5.4a.82.82 0 0 1-1.16 0z" style="fill:#3a3a3a" transform="translate(26 418)"/>
            </g>
            <g data-name="그룹 16519">
                <path data-name="패스 17772" d="M17.227 17.72H5.742a2.464 2.464 0 0 1-2.461-2.461v-.282a.82.82 0 0 1 .24-.58L8.924 9A2.464 2.464 0 0 1 12.4 9l.961.961a.82.82 0 0 0 1.16 0l3.762-3.762a.82.82 0 0 1 1.4.58v8.485a2.464 2.464 0 0 1-2.461 2.461zm-12.3-2.405a.821.821 0 0 0 .818.765h11.482a.821.821 0 0 0 .82-.82v-6.5l-2.361 2.362a2.461 2.461 0 0 1-3.48 0l-.961-.961a.821.821 0 0 0-1.16 0z" style="fill:#3a3a3a" transform="translate(26 418)"/>
            </g>
            <g data-name="그룹 16520">
                <path data-name="패스 17773" d="M20.18 4.922a.82.82 0 0 1-.82-.82V2.461a.821.821 0 0 0-.82-.82H16.9A.82.82 0 0 1 16.9 0h1.641A2.464 2.464 0 0 1 21 2.461V4.1a.82.82 0 0 1-.82.822z" style="fill:#3a3a3a" transform="translate(26 418)"/>
            </g>
        </g>
    </g>
</svg>
