<svg xmlns="http://www.w3.org/2000/svg" width="21" height="21" viewBox="0 0 21 21">
    <g data-name="14" transform="translate(-26 -418)">
        <circle data-name="타원 2213" cx="2" cy="2" r="2" transform="translate(43 424)" style="fill:#b7d9fc"/>
        <path d="M21 7.875a2.625 2.625 0 1 0-3.5 2.464V14A5.25 5.25 0 1 1 7 14v-.07a6.13 6.13 0 0 0 5.25-6.055v-3.5A4.38 4.38 0 0 0 7.875 0a.875.875 0 0 0 0 1.75A2.625 2.625 0 0 1 10.5 4.375v3.5a4.375 4.375 0 1 1-8.75 0v-3.5A2.625 2.625 0 0 1 4.375 1.75a.875.875 0 0 0 0-1.75A4.38 4.38 0 0 0 0 4.375v3.5a6.13 6.13 0 0 0 5.25 6.055V14a7 7 0 0 0 14 0v-3.661A2.625 2.625 0 0 0 21 7.875zm-2.625.875a.875.875 0 1 1 .875-.875.875.875 0 0 1-.875.875z" transform="translate(26 418)" style="fill:#3a3a3a"/>
    </g>
</svg>
