<svg xmlns="http://www.w3.org/2000/svg" width="21" height="21" viewBox="0 0 21 21">
    <g data-name="25" transform="translate(-26 -418)">
        <rect data-name="사각형 9054" width="3" height="12" rx="1.5" transform="translate(38 419)" style="fill:#b7d9fc"/>
        <g transform="translate(26 418)">
            <path data-name="패스 17997" d="M15.422 16.078h-3.281a.82.82 0 0 0 0 1.641h3.281a.82.82 0 0 0 0-1.641z" style="fill:#3a3a3a"/>
            <circle data-name="타원 2255" cx=".82" cy=".82" r=".82" transform="translate(3.281 9.516)" style="fill:#3a3a3a"/>
            <circle data-name="타원 2256" cx=".82" cy=".82" r=".82" transform="translate(3.281 12.797)" style="fill:#3a3a3a"/>
            <circle data-name="타원 2257" cx=".82" cy=".82" r=".82" transform="translate(3.281 16.078)" style="fill:#3a3a3a"/>
            <path data-name="패스 17998" d="M16.9 6.234h-.656V2.461a2.461 2.461 0 0 0-4.922 0V11.3a2.445 2.445 0 0 0 .721 1.74L13.2 14.2a.82.82 0 0 0 1.16 0l1.16-1.16a2.445 2.445 0 0 0 .721-1.74V7.875h.659a2.464 2.464 0 0 1 2.461 2.461V16.9a2.464 2.464 0 0 1-2.461 2.459H4.1A2.464 2.464 0 0 1 1.641 16.9v-6.564A2.464 2.464 0 0 1 4.1 7.875h4.759a.82.82 0 0 0 0-1.641H4.1a4.106 4.106 0 0 0-4.1 4.1V16.9A4.106 4.106 0 0 0 4.1 21h12.8a4.106 4.106 0 0 0 4.1-4.1v-6.564a4.106 4.106 0 0 0-4.1-4.102zM14.6 11.3a.815.815 0 0 1-.24.58l-.58.58-.58-.58a.815.815 0 0 1-.24-.58V2.461a.82.82 0 0 1 1.641 0z" style="fill:#3a3a3a"/>
        </g>
    </g>
</svg>
