<svg xmlns="http://www.w3.org/2000/svg" width="21" height="21" viewBox="0 0 21 21">
    <g data-name="33">
        <path data-name="사각형 9031" transform="translate(1 3)" style="fill:#b7d9fc" d="M0 0h19v5H0z"/>
        <g data-name="01 align center">
            <path data-name="패스 17719" d="M18.375 1.75H15.75V0H14v1.75H7V0H5.25v1.75H2.625A2.625 2.625 0 0 0 0 4.375V21h21V4.375a2.625 2.625 0 0 0-2.625-2.625zM1.75 4.375a.875.875 0 0 1 .875-.875h15.75a.875.875 0 0 1 .875.875V7H1.75zm0 14.875V8.75h17.5v10.5z" style="fill:#3a3a3a"/>
            <path data-name="사각형 8991" transform="translate(14 11)" style="fill:#3a3a3a" d="M0 0h2v2H0z"/>
            <path data-name="사각형 8992" transform="translate(9 11)" style="fill:#3a3a3a" d="M0 0h3v2H0z"/>
            <path data-name="사각형 8993" transform="translate(5 11)" style="fill:#3a3a3a" d="M0 0h2v2H0z"/>
            <path data-name="사각형 8994" transform="translate(14 15)" style="fill:#3a3a3a" d="M0 0h2v2H0z"/>
            <path data-name="사각형 8995" transform="translate(9 15)" style="fill:#3a3a3a" d="M0 0h3v2H0z"/>
            <path data-name="사각형 8996" transform="translate(5 15)" style="fill:#3a3a3a" d="M0 0h2v2H0z"/>
        </g>
    </g>
</svg>
