<svg xmlns="http://www.w3.org/2000/svg" xmlns:xlink="http://www.w3.org/1999/xlink" width="60" height="60" viewBox="0 0 60 60">
    <defs>
        <linearGradient id="judnr1nyqg" x1="-.147" y1=".26" x2=".62" y2=".581" gradientUnits="objectBoundingBox">
            <stop offset="0" stop-color="#5a5a5a"/>
            <stop offset="1" stop-color="#464646"/>
        </linearGradient>
        <linearGradient id="in236i0qth" x1=".959" y1=".339" x2=".624" y2=".479" gradientUnits="objectBoundingBox">
            <stop offset="0" stop-color="#464646" stop-opacity="0"/>
            <stop offset="1" stop-color="#202020"/>
        </linearGradient>
        <linearGradient id="4oivd9lxui" x1=".137" y1=".369" x2=".855" y2=".96" gradientUnits="objectBoundingBox">
            <stop offset="0" stop-color="#eef4ff"/>
            <stop offset="1" stop-color="#cfe7fd"/>
        </linearGradient>
        <linearGradient id="34ot0qra1a" x1=".453" y1=".464" x2=".27" y2=".313" gradientUnits="objectBoundingBox">
            <stop offset="0" stop-color="#8aaadc" stop-opacity="0"/>
            <stop offset="1" stop-color="#8aaadc"/>
        </linearGradient>
        <linearGradient id="rj079dwqgj" x1=".438" y1=".531" x2="-.002" y2="-.002" xlink:href="#34ot0qra1a"/>
        <linearGradient id="vj9dn7hssk" x1=".605" y1=".916" x2=".054" y2=".081" xlink:href="#34ot0qra1a"/>
        <linearGradient id="6jzdybqakl" x1=".688" y1=".537" x2="-.016" y2="-.012" xlink:href="#34ot0qra1a"/>
        <linearGradient id="4d4mfxzftm" x1=".665" y1=".921" x2=".046" y2=".064" xlink:href="#34ot0qra1a"/>
        <linearGradient id="hdd30jx3sb" x1=".146" y1=".146" x2=".846" y2=".846" gradientUnits="objectBoundingBox">
            <stop offset="0" stop-color="#76ccf8"/>
            <stop offset=".833" stop-color="#518ef8"/>
            <stop offset="1" stop-color="#4981f8"/>
        </linearGradient>
        <linearGradient id="w6w4oyh14c" x1=".5" y1=".383" x2=".5" y2="1" gradientUnits="objectBoundingBox">
            <stop offset="0" stop-color="#4071f7" stop-opacity="0"/>
            <stop offset="1" stop-color="#30569f"/>
        </linearGradient>
        <linearGradient id="joed1665zn" x1=".11" y1=".197" x2=".804" y2="1.252" xlink:href="#hdd30jx3sb"/>
        <linearGradient id="issxilkluo" x1=".5" y1=".833" x2=".5" y2="-.256" xlink:href="#w6w4oyh14c"/>
        <linearGradient id="vhikuu14wp" x1=".5" y1=".454" x2=".5" y2="1.064" xlink:href="#34ot0qra1a"/>
        <linearGradient id="gte95rmt1q" x1=".5" y1=".472" x2=".5" y2="1.071" xlink:href="#w6w4oyh14c"/>
        <radialGradient id="yycamuletd" cx=".5" cy=".13" r=".648" gradientTransform="rotate(90 .5 .13)" gradientUnits="objectBoundingBox">
            <stop offset="0" stop-color="#fff"/>
            <stop offset="1" stop-color="#f9f9f9"/>
        </radialGradient>
        <clipPath id="eqwithefpf">
            <path data-name="사각형 9039" transform="translate(53 223)" style="stroke:#707070;fill:#fff" d="M0 0h30v30H0z"/>
        </clipPath>
        <filter id="h1ck88d10e" x="0" y="0" width="60" height="60" filterUnits="userSpaceOnUse">
            <feOffset dy="-5"/>
            <feGaussianBlur stdDeviation="2.5" result="blur"/>
            <feFlood flood-color="#fff" result="color"/>
            <feComposite operator="out" in="SourceGraphic" in2="blur"/>
            <feComposite operator="in" in="color"/>
            <feComposite operator="in" in2="SourceGraphic"/>
        </filter>
    </defs>
    <g data-name="1">
        <g data-type="innerShadowGroup" transform="translate(-.23 -.23)">
            <rect data-name="bg" width="60" height="60" rx="25" transform="translate(.23 .23)" style="fill:url(#yycamuletd)"/>
            <g style="filter:url(#h1ck88d10e)">
                <rect data-name="bg" width="60" height="60" rx="25" style="fill:#fff" transform="translate(.23 .23)"/>
            </g>
        </g>
        <g data-name="마스크 그룹 13729" style="clip-path:url(#eqwithefpf)" transform="translate(-38 -208)">
            <path data-name="패스 17808" d="M26.652 17.559V3.419a1.674 1.674 0 0 0-1.674-1.674h-3.27a1.674 1.674 0 0 0-1.674 1.674v14.14h6.617z" style="fill:url(#judnr1nyqg)" transform="translate(53 223)"/>
            <path data-name="패스 17809" d="M26.652 17.559V3.419a1.674 1.674 0 0 0-1.674-1.674h-3.27a1.674 1.674 0 0 0-1.674 1.674v14.14h6.617z" style="fill:url(#in236i0qth)" transform="translate(53 223)"/>
            <path data-name="패스 17810" d="M25.19 30H4.654a1.461 1.461 0 0 1-1.461-1.461V14.186L12.48 2.674a3.138 3.138 0 0 1 4.885 0l9.287 11.511v14.354A1.461 1.461 0 0 1 25.19 30z" style="fill:url(#4oivd9lxui)" transform="translate(53 223)"/>
            <path data-name="패스 17811" d="M17.364 2.674a3.138 3.138 0 0 0-4.885 0L3.192 14.186V19.7L13.491 30h11.7a1.461 1.461 0 0 0 1.461-1.461V14.186z" style="fill:url(#34ot0qra1a)" transform="translate(53 223)"/>
            <path data-name="패스 17812" d="M26.592 28.954 14.043 16.406a1.284 1.284 0 0 0-1.055-.551h-2.251a1.286 1.286 0 0 0-1.286 1.286v2.251A1.286 1.286 0 0 0 10 20.447l1.682 1.682L19.554 30h5.636a1.462 1.462 0 0 0 1.4-1.046z" style="fill:url(#rj079dwqgj)" transform="translate(53 223)"/>
            <path data-name="패스 17813" d="M14.043 22.68a1.285 1.285 0 0 0-1.055-.55h-2.251a1.286 1.286 0 0 0-1.286 1.286v2.251A1.285 1.285 0 0 0 10 26.721L13.28 30h8.083z" style="fill:url(#vj9dn7hssk)" transform="translate(53 223)"/>
            <path data-name="패스 17814" d="M26.652 28.542v-5.764l-6.372-6.372a1.284 1.284 0 0 0-1.055-.551h-2.252a1.286 1.286 0 0 0-1.286 1.286v2.251a1.286 1.286 0 0 0 .551 1.055l1.682 1.683 7.78 7.779a1.462 1.462 0 0 0 .953-1.366z" style="fill:url(#6jzdybqakl)" transform="translate(53 223)"/>
            <path data-name="패스 17815" d="m26.583 28.983-6.3-6.3a1.285 1.285 0 0 0-1.055-.55h-2.255a1.286 1.286 0 0 0-1.286 1.286v2.251a1.285 1.285 0 0 0 .551 1.055L19.516 30h5.674a1.462 1.462 0 0 0 1.392-1.017z" style="fill:url(#4d4mfxzftm)" transform="translate(53 223)"/>
            <g data-name="그룹 16592">
                <g data-name="그룹 16588">
                    <g data-name="그룹 16586">
                        <path data-name="패스 17816" d="M12.93 20.62h-2.251a1.286 1.286 0 0 1-1.286-1.286v-2.252a1.286 1.286 0 0 1 1.286-1.282h2.251a1.286 1.286 0 0 1 1.286 1.286v2.251a1.286 1.286 0 0 1-1.286 1.283z" style="fill:url(#hdd30jx3sb)" transform="translate(53 223)"/>
                        <path data-name="패스 17817" d="M9.392 19.334a1.286 1.286 0 0 0 1.286 1.286h2.252a1.286 1.286 0 0 0 1.286-1.286.278.278 0 0 0-.278-.278H9.67a.278.278 0 0 0-.278.278z" style="fill:url(#w6w4oyh14c)" transform="translate(53 223)"/>
                    </g>
                    <g data-name="그룹 16587">
                        <path data-name="패스 17818" d="M19.165 20.62h-2.251a1.286 1.286 0 0 1-1.286-1.286v-2.252a1.286 1.286 0 0 1 1.286-1.282h2.251a1.286 1.286 0 0 1 1.286 1.286v2.251a1.286 1.286 0 0 1-1.286 1.283z" style="fill:url(#hdd30jx3sb)" transform="translate(53 223)"/>
                        <path data-name="패스 17819" d="M15.628 19.334a1.286 1.286 0 0 0 1.286 1.286h2.251a1.286 1.286 0 0 0 1.286-1.286.278.278 0 0 0-.278-.278h-4.267a.278.278 0 0 0-.278.278z" style="fill:url(#w6w4oyh14c)" transform="translate(53 223)"/>
                    </g>
                </g>
                <g data-name="그룹 16591">
                    <g data-name="그룹 16589">
                        <path data-name="패스 17820" d="M12.93 26.894h-2.251a1.286 1.286 0 0 1-1.286-1.286v-2.251a1.286 1.286 0 0 1 1.286-1.286h2.251a1.286 1.286 0 0 1 1.286 1.286v2.251a1.286 1.286 0 0 1-1.286 1.286z" style="fill:url(#hdd30jx3sb)" transform="translate(53 223)"/>
                        <path data-name="패스 17821" d="M9.392 25.608a1.286 1.286 0 0 0 1.286 1.286h2.252a1.286 1.286 0 0 0 1.286-1.286.278.278 0 0 0-.278-.278H9.67a.278.278 0 0 0-.278.278z" style="fill:url(#w6w4oyh14c)" transform="translate(53 223)"/>
                    </g>
                    <g data-name="그룹 16590">
                        <path data-name="패스 17822" d="M19.165 26.894h-2.251a1.286 1.286 0 0 1-1.286-1.286v-2.251a1.286 1.286 0 0 1 1.286-1.286h2.251a1.286 1.286 0 0 1 1.286 1.286v2.251a1.286 1.286 0 0 1-1.286 1.286z" style="fill:url(#hdd30jx3sb)" transform="translate(53 223)"/>
                        <path data-name="패스 17823" d="M15.628 25.608a1.286 1.286 0 0 0 1.286 1.286h2.251a1.286 1.286 0 0 0 1.286-1.286.278.278 0 0 0-.278-.278h-4.267a.278.278 0 0 0-.278.278z" style="fill:url(#w6w4oyh14c)" transform="translate(53 223)"/>
                    </g>
                </g>
            </g>
            <path data-name="패스 17824" d="m15.907 7.1 8.771 11.318a3.454 3.454 0 0 0 2.73 1.338 2.587 2.587 0 0 0 2.045-4.172L18.831 1.878a4.846 4.846 0 0 0-7.662 0L.547 15.585a2.587 2.587 0 0 0 2.045 4.172 3.454 3.454 0 0 0 2.73-1.338L14.093 7.1a1.148 1.148 0 0 1 1.815 0z" style="fill:url(#joed1665zn)" transform="translate(53 223)"/>
            <path data-name="패스 17825" d="M2.592 19.757a3.454 3.454 0 0 0 2.73-1.338L14.093 7.1a1.148 1.148 0 0 1 1.815 0l8.771 11.318a3.454 3.454 0 0 0 2.73 1.338 2.544 2.544 0 0 0 1.707-.638L17.495 4.124a3.156 3.156 0 0 0-4.989 0L.885 19.119a2.544 2.544 0 0 0 1.707.638z" style="fill:url(#issxilkluo)" transform="translate(53 223)"/>
            <path data-name="패스 17826" d="M3.192 24.294v4.244A1.461 1.461 0 0 0 4.654 30H25.19a1.461 1.461 0 0 0 1.461-1.461v-4.245z" style="fill:url(#vhikuu14wp)" transform="translate(53 223)"/>
            <g data-name="그룹 16593">
                <path data-name="패스 17827" d="M2.592 19.757a3.454 3.454 0 0 0 2.73-1.338l5.045-6.51H3.4L.547 15.585a2.587 2.587 0 0 0 2.045 4.172z" style="fill:url(#gte95rmt1q)" transform="translate(53 223)"/>
                <path data-name="패스 17828" d="M24.678 18.419a3.454 3.454 0 0 0 2.73 1.338 2.587 2.587 0 0 0 2.045-4.172L26.6 11.909h-6.967z" style="fill:url(#gte95rmt1q)" transform="translate(53 223)"/>
            </g>
        </g>
    </g>
</svg>
