<svg xmlns="http://www.w3.org/2000/svg" width="21" height="23" viewBox="0 0 21 23">
    <g data-name="31">
        <g data-name="그룹 16522" transform="translate(-25 -416)">
            <rect data-name="사각형 9030" width="11" height="4" rx="2" transform="translate(30.721 420.943)" style="fill:#b7d9fc"/>
            <path d="M15.682 21H5.318A4.352 4.352 0 0 1 1 16.625V4.375A4.352 4.352 0 0 1 5.318 0h10.364A4.352 4.352 0 0 1 20 4.375v12.25A4.352 4.352 0 0 1 15.682 21zM5.318 1.75a2.608 2.608 0 0 0-2.591 2.625v12.25a2.608 2.608 0 0 0 2.591 2.625h10.364a2.608 2.608 0 0 0 2.591-2.625V4.375a2.608 2.608 0 0 0-2.591-2.625zm8.636 7H7.045a2.625 2.625 0 0 1 0-5.25h6.909a2.625 2.625 0 0 1 0 5.25zm-6.909-3.5a.875.875 0 0 0 0 1.75h6.909a.875.875 0 0 0 0-1.75zm-1.727 6.125a.875.875 0 1 0 .864.875.869.869 0 0 0-.864-.875zm3.455 0a.875.875 0 1 0 .864.875.869.869 0 0 0-.864-.875zm3.455 0a.875.875 0 1 0 .864.875.869.869 0 0 0-.865-.875zm-6.909 3.5a.875.875 0 1 0 .864.875.869.869 0 0 0-.865-.875zm3.455 0a.875.875 0 1 0 .864.875.869.869 0 0 0-.865-.875zm6.909-3.5a.875.875 0 1 0 .864.875.869.869 0 0 0-.865-.875zm.864 4.375a.869.869 0 0 0-.864-.875h-3.456a.875.875 0 0 0 0 1.75h3.455a.869.869 0 0 0 .863-.875z" transform="translate(25 417)" style="fill:#3a3a3a"/>
        </g>
    </g>
</svg>
