<svg xmlns="http://www.w3.org/2000/svg" width="21" height="21.001" viewBox="0 0 21 21.001">
    <g data-name="2">
        <path data-name="패스 17655" d="M30.155 425.6h3.565a15.774 15.774 0 0 0 2.22 1.168c.175-.058 3.622-1.168 3.622-1.168h3.331l.351-5.2-3.1-1.577-10.343.292v2.454l-.35 4.032z" transform="translate(-25.837 -417.961)" style="fill:#b7d9fc"/>
        <path d="M20.125 17.5h-7.161a2.625 2.625 0 0 0-1.589-1.589V12.25h5.25a2.615 2.615 0 0 0 1.75-4.567V3.5a3.5 3.5 0 0 0-3.5-3.5h-8.75a3.5 3.5 0 0 0-3.5 3.5v4.182a2.615 2.615 0 0 0 1.75 4.567h5.25v3.661a2.625 2.625 0 0 0-1.589 1.59H.875a.875.875 0 1 0 0 1.75h7.161a2.609 2.609 0 0 0 4.928 0h7.161a.875.875 0 1 0 0-1.75zm-15.75-14a1.75 1.75 0 0 1 1.75-1.75h8.75a1.75 1.75 0 0 1 1.75 1.75V7h-3.138a1.738 1.738 0 0 0-1.237.513l-.362.362H9.112l-.362-.362A1.738 1.738 0 0 0 7.513 7H4.375zM3.5 9.625a.875.875 0 0 1 .875-.875h3.138l.362.362a1.738 1.738 0 0 0 1.237.513h2.775a1.738 1.738 0 0 0 1.237-.513l.362-.362h3.138a.875.875 0 1 1 0 1.75H4.375a.875.875 0 0 1-.875-.875zm7 9.625a.875.875 0 1 1 .875-.875.875.875 0 0 1-.875.875z" style="fill:#3a3a3a"/>
    </g>
</svg>
