<svg xmlns="http://www.w3.org/2000/svg" width="21" height="21" viewBox="0 0 21 21">
    <defs>
        <clipPath id="36mps031ea">
            <path data-name="사각형 9012" transform="translate(26 418)" style="stroke:#707070;fill:#3a3a3a" d="M0 0h21v21H0z"/>
        </clipPath>
    </defs>
    <g data-name="39" transform="translate(-26 -418)">
        <circle data-name="타원 2227" cx="5" cy="5" r="5" transform="translate(36 428)" style="fill:#b7d9fc"/>
        <g data-name="마스크 그룹 13726" style="clip-path:url(#36mps031ea)">
            <path data-name="패스 17794" d="M16.9 14.438h-.82v-.82a.82.82 0 0 0-1.641 0v.82h-.82a.82.82 0 0 0 0 1.641h.82v.82a.82.82 0 0 0 1.641 0v-.82h.82a.82.82 0 0 0 0-1.641z" style="fill:#3a3a3a" transform="translate(26 418)"/>
            <path data-name="패스 17795" d="M3.117 4.1A4.1 4.1 0 1 0 7.219 0a4.106 4.106 0 0 0-4.102 4.1zm6.563 0a2.461 2.461 0 1 1-2.461-2.459A2.464 2.464 0 0 1 9.68 4.1z" style="fill:#3a3a3a" transform="translate(26 418)"/>
            <path data-name="패스 17796" d="M2.461 17.719H7.22a.82.82 0 0 0 0-1.641H2.461a.821.821 0 0 1-.82-.82 4.106 4.106 0 0 1 4.1-4.1H8.7a.82.82 0 0 0 0-1.641H5.742A5.749 5.749 0 0 0 0 15.258a2.464 2.464 0 0 0 2.461 2.461z" style="fill:#3a3a3a" transform="translate(26 418)"/>
            <path data-name="패스 17797" d="M15.258 9.516A5.742 5.742 0 1 0 21 15.258a5.749 5.749 0 0 0-5.742-5.742zm0 9.844a4.1 4.1 0 1 1 4.1-4.1 4.106 4.106 0 0 1-4.1 4.099z" style="fill:#3a3a3a" transform="translate(26 418)"/>
        </g>
    </g>
</svg>
