<svg xmlns="http://www.w3.org/2000/svg" width="21" height="21" viewBox="0 0 21 21">
    <g data-name="29" transform="translate(-26 -417)">
        <circle data-name="타원 2221" cx="3" cy="3" r="3" transform="translate(37 429)" style="fill:#b7d9fc"/>
        <path d="M14.091 5.2a.867.867 0 0 1 0 1.735H7.182a.867.867 0 0 1 0-1.735zm6.656 15.36a.861.861 0 0 1-1.221 0l-2.079-2.088a3.837 3.837 0 0 1-2.061.607 3.928 3.928 0 1 1 3.282-1.834l2.079 2.088a.87.87 0 0 1 0 1.231zm-5.361-3.216a2.169 2.169 0 1 0-2.159-2.169 2.164 2.164 0 0 0 2.159 2.174zm-3.886 1.74H6.318a2.6 2.6 0 0 1-2.591-2.6V4.337a2.6 2.6 0 0 1 2.591-2.6h10.364a.866.866 0 0 1 .864.867v6.938a.864.864 0 1 0 1.727 0V2.6A2.6 2.6 0 0 0 16.682 0H6.318A4.333 4.333 0 0 0 2 4.337v12.144a4.333 4.333 0 0 0 4.318 4.337H11.5a.867.867 0 0 0 0-1.735z" transform="translate(24 417.091)" style="fill:#3a3a3a"/>
    </g>
</svg>
