<svg xmlns="http://www.w3.org/2000/svg" width="21" height="21.121" viewBox="0 0 21 21.121">
    <g data-name="1">
        <path data-name="패스 17637" d="m36.039 419.48-9.22 4.917v1.422l.807.96h17.98l.537-1.5-.537-.883-8.837-4.61z" transform="translate(-25.866 -418.801)" style="fill:#b7d9fc"/>
        <path data-name="bank (1)" d="M21 20.123a.875.875 0 0 1-.875.875H.875a.875.875 0 0 1 0-1.75h19.248a.875.875 0 0 1 .877.875zM.254 7.482a2.137 2.137 0 0 1 .134-2.245 4.126 4.126 0 0 1 1.46-1.312L8.41.509a4.527 4.527 0 0 1 4.177 0l6.562 3.418a4.126 4.126 0 0 1 1.46 1.313 2.137 2.137 0 0 1 .134 2.245 2.374 2.374 0 0 1-2.114 1.264h-.255v7h.875a.875.875 0 0 1 0 1.75H1.75a.875.875 0 0 1 0-1.75h.875v-7h-.256A2.374 2.374 0 0 1 .254 7.482zm4.12 8.266H7v-7H4.374zm4.375-7v7h3.5v-7zm7.874 0H14v7h2.625zM1.8 6.671A.627.627 0 0 0 2.369 7h16.26a.627.627 0 0 0 .564-.328.4.4 0 0 0-.021-.437 2.362 2.362 0 0 0-.83-.756l-6.562-3.42a2.779 2.779 0 0 0-2.56 0L2.658 5.478a2.373 2.373 0 0 0-.83.757.4.4 0 0 0-.023.437z" transform="translate(.002 .123)" style="fill:#3a3a3a"/>
    </g>
</svg>
