<svg xmlns="http://www.w3.org/2000/svg" width="21" height="21" viewBox="0 0 21 21">
    <g data-name="3" transform="translate(-26 -416)">
        <g data-name="01 align center">
            <path data-name="패스 17644" d="M9.625 9.625H0v-7A2.625 2.625 0 0 1 2.625 0h7zM1.75 7.875h6.125V1.75h-5.25a.875.875 0 0 0-.875.875z" style="fill:#3a3a3a" transform="translate(26 416)"/>
            <path data-name="패스 17645" d="M22.625 9.625H13V0h7a2.625 2.625 0 0 1 2.625 2.625zm-7.875-1.75h6.125v-5.25A.875.875 0 0 0 20 1.75h-5.25z" transform="translate(24.375 416)" style="fill:#3a3a3a"/>
            <path data-name="패스 17646" d="M9.625 22.625h-7A2.625 2.625 0 0 1 0 20v-7h9.625zM1.75 14.75V20a.875.875 0 0 0 .875.875h5.25V14.75z" transform="translate(26 414.375)" style="fill:#3a3a3a"/>
            <path data-name="패스 17647" d="M20 22.625h-7V13h9.625v7A2.625 2.625 0 0 1 20 22.625zm-5.25-1.75H20a.875.875 0 0 0 .875-.875v-5.25H14.75z" transform="translate(24.375 414.375)" style="fill:#3a3a3a"/>
        </g>
        <circle data-name="타원 2258" cx="7.5" cy="7.5" r="7.5" transform="translate(29 419)" style="fill:#fff"/>
        <path data-name="패스 17648" d="M12.785 11.618 10.268 9.1a5.691 5.691 0 1 0-1.147 1.147l2.518 2.518a.81.81 0 0 0 1.146-1.146zM5.733 9.761a4.049 4.049 0 1 1 4.049-4.049 4.049 4.049 0 0 1-4.049 4.049z" style="fill:#3a3a3a" transform="translate(30.978 420.999)"/>
        <g data-name="타원 2229" transform="translate(31 421.001)" style="fill:#b7d9fc;stroke:#3a3a3a;stroke-width:2px">
            <circle cx="5.75" cy="5.75" r="5.75" style="stroke:none"/>
            <circle cx="5.75" cy="5.75" r="4.75" style="fill:none"/>
        </g>
    </g>
</svg>
