<svg xmlns="http://www.w3.org/2000/svg" width="180.515" height="65.726" viewBox="0 0 180.515 65.726">
    <g data-name="그룹 13204" transform="translate(-89.242 -599.774)">
        <g data-name="그룹 13197">
            <path data-name="패스 6087" d="M8 0h35.4a8 8 0 0 1 8 8v58.694a8 8 0 0 1-8 8H8a8 8 0 0 1-8-8V8a8 8 0 0 1 8-8z" transform="rotate(90 -224.581 389.017)" style="stroke-linecap:round;stroke:#1e1e1e;fill:#fff"/>
            <g data-name="그룹 13194">
                <path data-name="패스 6071" d="M3805.183 2545.761a.372.372 0 0 1 .232.081l2.029 1.624a.372.372 0 1 1-.464.58l-2.029-1.623a.372.372 0 0 1 .232-.662z" transform="translate(-3643.154 -1889.755)" style="fill:#1e1e1e"/>
                <path data-name="패스 6072" d="M3805.183 2537.185a.37.37 0 0 1 .232.082l2.029 1.624a.372.372 0 0 1-.465.581l-2.03-1.624a.372.372 0 0 1 .233-.662z" transform="translate(-3643.154 -1883.772)" style="fill:#1e1e1e"/>
                <path data-name="패스 6073" d="M3805.183 2528.609a.369.369 0 0 1 .232.082l2.029 1.623a.372.372 0 1 1-.464.581l-2.029-1.624a.372.372 0 0 1 .232-.662z" transform="translate(-3643.154 -1877.789)" style="fill:#1e1e1e"/>
                <path data-name="패스 6074" d="M3805.183 2519.6a.373.373 0 0 1 .232.081l2.029 1.624a.372.372 0 0 1-.464.58l-2.029-1.623a.372.372 0 0 1 .232-.662z" transform="translate(-3643.154 -1871.503)" style="fill:#1e1e1e"/>
                <path data-name="패스 6075" d="M3805.183 2510.585a.37.37 0 0 1 .232.082l2.029 1.624a.372.372 0 0 1-.464.58l-2.029-1.623a.372.372 0 0 1 .232-.662z" transform="translate(-3643.154 -1865.216)" style="fill:#1e1e1e"/>
            </g>
            <g data-name="그룹 13195" transform="translate(125.885 626.85)">
                <rect data-name="사각형 3533" width="30.787" height="3.523" rx="1.761" style="fill:#e1e2ea"/>
                <rect data-name="사각형 3534" width="13.921" height="3.523" rx="1.761" transform="translate(0 6.651)" style="fill:#e1e2ea"/>
                <rect data-name="사각형 3535" width="23.158" height="3.523" rx="1.761" transform="translate(.134 13.21)" style="fill:#e1e2ea"/>
            </g>
            <g data-name="그룹 13196" transform="translate(98.22 626.415)">
                <path data-name="패스 6076" d="m3616.927 2502.824-5.455-4.676a.663.663 0 0 0-.863 0l-5.455 4.676a.663.663 0 0 1-1.094-.5v-12.655a.663.663 0 0 1 .663-.663h12.636a.663.663 0 0 1 .663.663v12.655a.663.663 0 0 1-1.095.5z" transform="translate(-3601.331 -2476.575)" style="stroke-linejoin:round;fill:#e1e2ea;stroke-linecap:round;stroke:#1e1e1e"/>
                <circle data-name="타원 209" cx="9.683" cy="9.683" r="9.683" style="fill:#ffd428;stroke-miterlimit:10;stroke:#1e1e1e"/>
                <path data-name="패스 6077" d="M3617.173 2476.706a.8.8 0 0 1-.568-.235l-2.493-2.493a.8.8 0 0 1 1.136-1.135l1.924 1.925 3.244-3.244a.8.8 0 0 1 1.136 1.136l-3.812 3.813a.8.8 0 0 1-.567.233z" transform="translate(-3608.179 -2464.217)" style="fill:#1e1e1e"/>
            </g>
        </g>
        <g data-name="그룹 13203" transform="translate(7.447 -4.381)">
            <rect data-name="사각형 3536" width="41.408" height="70.324" rx="6" transform="rotate(90 -172.801 431.854)" style="stroke-linejoin:round;stroke-linecap:round;stroke:#1e1e1e;fill:#fff"/>
            <g data-name="그룹 13198">
                <path data-name="패스 6078" d="M3959.859 2480.9h-71.673a2.136 2.136 0 0 1-2.012-2.241v-36.414a2.136 2.136 0 0 1 2.012-2.241h43.7a3.843 3.843 0 0 1 2.929 1.408l4.255 5.028a3.844 3.844 0 0 0 2.929 1.408h17.858a2.136 2.136 0 0 1 2.012 2.241v28.571a2.136 2.136 0 0 1-2.01 2.24z" transform="translate(-3700.061 -1811.595)" style="stroke-linejoin:round;fill:#e1e2ea;stroke-linecap:round;stroke:#1e1e1e"/>
            </g>
            <g data-name="그룹 13199" transform="translate(221.01 612.996)">
                <rect data-name="사각형 3537" width="31.975" height="3.979" rx="1.99" style="fill:#e1e2ea"/>
                <rect data-name="사각형 3538" width="15.04" height="3.979" rx="1.99" transform="translate(16.935 7.512)" style="fill:#e1e2ea"/>
            </g>
            <g data-name="그룹 13201">
                <path data-name="패스 6079" d="M3930.436 2471s-2.1 4.687-8.641 3.675v10.625c.17.617-.584 5.608 8.641 8.081 9.225-2.473 8.47-7.464 8.64-8.081v-10.622c-6.539 1.009-8.64-3.678-8.64-3.678z" transform="translate(-3724.91 -1833.22)" style="fill:#31c7c3;stroke-linejoin:round;stroke-linecap:round;stroke:#1e1e1e"/>
                <g data-name="그룹 13200">
                    <path data-name="패스 6080" d="m3939.685 2504.731 2.956 2.956 4.521-4.521" transform="translate(-3737.39 -1855.659)" style="fill:none"/>
                    <path data-name="패스 6081" d="M3940.765 2506.625a.812.812 0 0 1-.575-.239l-2.957-2.956a.813.813 0 0 1 1.15-1.15l2.381 2.381 3.946-3.946a.813.813 0 0 1 1.15 1.15l-4.521 4.521a.811.811 0 0 1-.574.239z" transform="translate(-3735.514 -1853.783)" style="fill:#fff"/>
                </g>
            </g>
            <g data-name="그룹 13202">
                <path data-name="패스 6082" d="M4154.654 2551.948a.418.418 0 0 1 .262.092l2.292 1.834a.42.42 0 0 1-.524.656l-2.292-1.834a.42.42 0 0 1 .262-.747z" transform="translate(-3895.656 -1889.689)" style="fill:#1e1e1e"/>
                <path data-name="패스 6083" d="M4154.654 2542.261a.417.417 0 0 1 .262.092l2.293 1.834a.42.42 0 0 1-.525.656l-2.293-1.834a.42.42 0 0 1 .263-.747z" transform="translate(-3895.656 -1882.932)" style="fill:#1e1e1e"/>
                <path data-name="패스 6084" d="M4154.654 2532.574a.418.418 0 0 1 .262.092l2.292 1.834a.42.42 0 0 1-.524.656l-2.292-1.834a.42.42 0 0 1 .262-.747z" transform="translate(-3895.656 -1876.174)" style="fill:#1e1e1e"/>
                <path data-name="패스 6085" d="M4154.654 2522.394a.418.418 0 0 1 .262.092l2.292 1.834a.42.42 0 0 1-.524.656l-2.292-1.834a.42.42 0 0 1 .262-.748z" transform="translate(-3895.656 -1869.073)" style="fill:#1e1e1e"/>
                <path data-name="패스 6086" d="M4154.654 2512.214a.419.419 0 0 1 .262.092l2.292 1.834a.42.42 0 0 1-.524.656l-2.292-1.834a.42.42 0 0 1 .262-.748z" transform="translate(-3895.656 -1861.971)" style="fill:#1e1e1e"/>
            </g>
        </g>
        <circle data-name="타원 210" cx="2" cy="2" r="2" transform="translate(171 637)" style="fill:#ddd"/>
        <circle data-name="타원 211" cx="2" cy="2" r="2" transform="translate(177 637)" style="fill:#ddd"/>
        <circle data-name="타원 212" cx="2" cy="2" r="2" transform="translate(183 637)" style="fill:#ddd"/>
    </g>
</svg>
