<svg xmlns="http://www.w3.org/2000/svg" width="36" height="36" viewBox="0 0 36 36">
    <g data-name="그룹 13278">
        <g data-name="Music Artist - 192x192" transform="translate(3.793 3.387)">
            <circle data-name="타원 164" cx="3.446" cy="3.446" r="3.446" transform="translate(11.179 4.613)" style="fill:none;stroke:#292929;stroke-width:2px"/>
            <path data-name="패스 5873" d="M12.965 21.163H6.149A2.278 2.278 0 0 1 4 18.775 4.556 4.556 0 0 1 8.3 14h7.645" transform="translate(1.207 1.597)" style="stroke-linecap:round;stroke-linejoin:round;fill:none;stroke:#292929;stroke-width:2px"/>
        </g>
        <path data-name="다각형 8" d="M23.923 19.114a1 1 0 0 1 1.881 0l.577 1.595a1 1 0 0 0 .915.659l1.683.042a1 1 0 0 1 .574 1.8l-1.3.97a1 1 0 0 0-.358 1.092l.473 1.557a1 1 0 0 1-1.514 1.121l-1.437-.965a1 1 0 0 0-1.115 0l-1.437.965a1 1 0 0 1-1.514-1.121l.473-1.557a1 1 0 0 0-.358-1.092l-1.3-.97a1 1 0 0 1 .574-1.8l1.683-.042a1 1 0 0 0 .915-.659z"/>
    </g>
</svg>
