<svg xmlns="http://www.w3.org/2000/svg" width="36" height="36" viewBox="0 0 36 36">
    <g data-name="그룹 13279">
        <path data-name="패스 6083" d="M3 20.429V5h7.778L13 7.571h10v12.858A2.416 2.416 0 0 1 20.778 23H5.222A2.416 2.416 0 0 1 3 20.429z" transform="translate(4 4)" style="stroke-linejoin:round;fill:none;stroke:#292929;stroke-linecap:round;stroke-width:2px"/>
        <g data-name="Playlist - Repeat List - 192x192">
            <path data-name="패스 5886" d="m13.536 5 1.089 1.089m0 0-1.089 1.09m1.089-1.089H8.507" transform="translate(7.328 9.437)" style="stroke-linejoin:round;fill:none;stroke:#292929;stroke-linecap:round;stroke-width:2px"/>
            <path data-name="패스 5887" d="M4.089 17.179 3 16.089m0 0L4.089 15M3 16.089h5.8" transform="translate(9.953 6.258)" style="stroke-linejoin:round;fill:none;stroke:#292929;stroke-linecap:round;stroke-width:2px"/>
            <path data-name="패스 5888" d="M3 10.034A3.034 3.034 0 0 1 6.034 7" transform="translate(9.953 8.526)" style="fill:none;stroke:#292929;stroke-linecap:round;stroke-width:2px"/>
            <path data-name="패스 5889" d="M20.041 13A3.041 3.041 0 0 1 17 16.041" transform="translate(1.912 6.306)" style="fill:none;stroke:#292929;stroke-linecap:round;stroke-width:2px"/>
        </g>
    </g>
</svg>
