<svg xmlns="http://www.w3.org/2000/svg" width="38" height="30" viewBox="0 0 38 30">
    <g data-name="Group 1009" transform="translate(-1 -1)">
        <rect data-name="사각형 10545" width="28" height="20" rx="1.5" transform="translate(2 2)" style="stroke:#292929;stroke-width:2px;fill:#87eaf2"/>
        <rect data-name="사각형 10546" width="28" height="20" rx="1.5" transform="translate(10 10)" style="fill:#fff;stroke:#292929;stroke-width:2px"/>
        <rect data-name="사각형 10547" width="16" height="2" rx="1" transform="translate(5 5)" style="fill:#3ba1aa"/>
        <rect data-name="사각형 10548" width="4" height="2" rx="1" transform="translate(5 9)" style="fill:#3ba1aa"/>
        <path data-name="패스 23960" d="M-3.271-5.227a1.885 1.885 0 0 1 .58-1.438 2.176 2.176 0 0 1 1.557-.547 2.179 2.179 0 0 1 1.563.544A1.935 1.935 0 0 1 1-5.194v.475a1.875 1.875 0 0 1-.571 1.432 2.168 2.168 0 0 1-1.55.541 2.227 2.227 0 0 1-1.56-.538 1.894 1.894 0 0 1-.59-1.474zm1.431.508a.806.806 0 0 0 .191.557.671.671 0 0 0 .528.214q.693 0 .693-.884v-.4a.85.85 0 0 0-.185-.564.641.641 0 0 0-.521-.221.655.655 0 0 0-.514.214.845.845 0 0 0-.191.584zM1.293.175a1.867 1.867 0 0 1 .584-1.438A2.195 2.195 0 0 1 3.43-1.8a2.218 2.218 0 0 1 1.563.534A1.925 1.925 0 0 1 5.574.222v.461A1.883 1.883 0 0 1 5 2.121a2.178 2.178 0 0 1-1.557.541 2.227 2.227 0 0 1-1.56-.538A1.894 1.894 0 0 1 1.293.65zm1.425.508a.788.788 0 0 0 .211.544.667.667 0 0 0 .514.234.608.608 0 0 0 .693-.606l.006-.68a.815.815 0 0 0-.191-.564A.663.663 0 0 0 3.43-.6a.668.668 0 0 0-.508.2.8.8 0 0 0-.2.544zM-.7 1.811l-1.035-.521 4.69-7.506 1.036.521z" transform="translate(22.849 22.275)" style="fill:#67d1d9"/>
    </g>
</svg>
