<svg xmlns="http://www.w3.org/2000/svg" width="51.998" height="20.002" viewBox="0 0 51.998 20.002">
    <path data-name="빼기 2" d="M18388 20659h-32a10 10 0 1 1 0-20h32a10 10 0 0 1 0 20zm-27.262-14.363v9.246h1.322v-9.244h-1.322zm2.889 4.189v1.055h3.5v.668a4.309 4.309 0 0 0-1.881.514 1.282 1.282 0 0 0-.67 1.135 1.177 1.177 0 0 0 .219.711 1.8 1.8 0 0 0 .627.529 3.833 3.833 0 0 0 1 .322 8.422 8.422 0 0 0 2.682 0 3.831 3.831 0 0 0 1.006-.322 1.77 1.77 0 0 0 .637-.529 1.177 1.177 0 0 0 .219-.711 1.273 1.273 0 0 0-.654-1.129 4.237 4.237 0 0 0-1.865-.508v-.68h3.5v-1.053h-8.32zm23.818-4.18v9.205h1.322v-9.2h-1.322zm-4.018 5.883v3.053h1.322v-3.131c.477-.047.824-.086 1.129-.125.359-.049.74-.111 1.131-.186l-.084-.961c-.469.072-.977.129-1.508.172-.447.035-.936.064-1.539.088-.482.02-.947.029-1.4.039h-.201c-.482.006-.859.01-1.191.01l.15 1.078h.082c.213 0 .43 0 .66-.006h.295c.432-.008.8-.018 1.15-.031zm-7.508 1.361v1.11h4.117v-1.109h-1.287v-6.373h-1.182l-2.162 1.861.793.9 1.219-1.111-.041.654v4.07h-1.457zm-21.039-6.512v6.352h4.535v-6.35h-1.311v2.229h-1.92v-2.229h-1.3zm29.168-.361a3.186 3.186 0 0 0-.965.145 2.379 2.379 0 0 0-.766.41 1.835 1.835 0 0 0-.5.617 1.8 1.8 0 0 0 0 1.592 1.938 1.938 0 0 0 .5.621 2.449 2.449 0 0 0 .766.4 3.21 3.21 0 0 0 .965.141 3.085 3.085 0 0 0 .959-.141 2.494 2.494 0 0 0 .768-.4 1.938 1.938 0 0 0 .5-.621 1.757 1.757 0 0 0 .182-.789 1.775 1.775 0 0 0-.182-.8 1.835 1.835 0 0 0-.5-.617 2.5 2.5 0 0 0-.768-.41 3.143 3.143 0 0 0-.956-.147zm-16.264 1.783a3.012 3.012 0 0 0 1.213 1.1 5.458 5.458 0 0 0 2.141.566l.457-1.021a6.614 6.614 0 0 1-1.131-.191 4.854 4.854 0 0 1-.85-.316 2.154 2.154 0 0 1-.561-.4 1.307 1.307 0 0 1-.3-.461h2.445v-1.053h-6.807v1.053h2.438a1.408 1.408 0 0 1-.3.461 2.251 2.251 0 0 1-.566.4 4.681 4.681 0 0 1-.84.316 6.564 6.564 0 0 1-1.129.191l.439 1.021a5.432 5.432 0 0 0 2.158-.561 2.873 2.873 0 0 0 1.2-1.107zm-.016 6.061a4.725 4.725 0 0 1-1.4-.154c-.311-.105-.461-.271-.461-.51s.15-.4.461-.508a6.2 6.2 0 0 1 2.8 0c.311.111.461.277.461.508s-.156.4-.461.51a4.725 4.725 0 0 1-1.397.154zm-9.664-2.182h-1.92v-2.039h1.92v2.039zm25.943-2.811a1.422 1.422 0 0 1-.83-.229.747.747 0 0 1-.32-.648.775.775 0 0 1 .32-.68 1.4 1.4 0 0 1 .83-.223 1.424 1.424 0 0 1 .83.223.782.782 0 0 1 .316.68.763.763 0 0 1-.316.648 1.422 1.422 0 0 1-.826.23z" transform="translate(-18346 -20638.998)" style="fill:#fff"/>
</svg>
