<svg xmlns="http://www.w3.org/2000/svg" width="37.514" height="37.039" viewBox="0 0 37.514 37.039">
    <g data-name="Group 1010">
        <path data-name="패스 23961" d="M18.858 9.4A16.646 16.646 0 1 0 35.7 25.853l-16.653.188z" transform="translate(-1.629 -6.412)" style="stroke:#292929;stroke-linecap:round;stroke-linejoin:round;stroke-width:1.5px;fill:#fff"/>
        <path data-name="패스 23962" d="M45 2.394a16.161 16.161 0 0 1 16.34 15.977l-16.16.182z" transform="translate(-24.576 -1.643)" style="fill:#7e8ae6;stroke:#292929;stroke-linecap:round;stroke-linejoin:round;stroke-width:1.5px"/>
        <path data-name="패스 23963" d="M-3.271-5.656a1.477 1.477 0 0 1 .455-1.127A1.705 1.705 0 0 1-1.6-7.212a1.708 1.708 0 0 1 1.225.426A1.516 1.516 0 0 1 .078-5.63v.372a1.469 1.469 0 0 1-.45 1.122 1.7 1.7 0 0 1-1.215.424 1.745 1.745 0 0 1-1.223-.421 1.484 1.484 0 0 1-.463-1.155zm1.122.4A.631.631 0 0 0-2-4.821a.526.526 0 0 0 .414.168q.543 0 .543-.693v-.31a.666.666 0 0 0-.145-.444.5.5 0 0 0-.412-.171.513.513 0 0 0-.4.171.662.662 0 0 0-.15.457zM.306-1.422a1.463 1.463 0 0 1 .457-1.127 1.72 1.72 0 0 1 1.217-.424 1.738 1.738 0 0 1 1.225.419 1.508 1.508 0 0 1 .455 1.168v.362A1.476 1.476 0 0 1 3.211.1a1.707 1.707 0 0 1-1.22.424A1.745 1.745 0 0 1 .768.105 1.484 1.484 0 0 1 .306-1.05zm1.117.4a.617.617 0 0 0 .165.422.523.523 0 0 0 .4.184.476.476 0 0 0 .546-.474l.005-.532a.639.639 0 0 0-.15-.442.52.52 0 0 0-.408-.168.524.524 0 0 0-.4.158.631.631 0 0 0-.16.426zm-2.678.882-.812-.408 3.675-5.883.812.408z" transform="translate(26.568 12.856)" style="fill:#fff"/>
        <text transform="translate(17.763 29.513)" style="font-size:8px;font-family:SpoqaHanSansNeo-Bold,Spoqa Han Sans Neo;font-weight:700;letter-spacing:-.025em;fill:#7e8ae6"><tspan x="-9.656" y="0">S전자</tspan></text>
    </g>
</svg>
