<svg xmlns="http://www.w3.org/2000/svg" width="36" height="36" viewBox="0 0 36 36">
    <defs>
        <clipPath id="lclrz101ta">
            <path data-name="사각형 10550" transform="translate(40 2254)" style="fill:#fff;stroke:#707070" d="M0 0h36v36H0z"/>
        </clipPath>
    </defs>
    <g data-name="마스크 그룹 13819" transform="translate(-40 -2254)" style="clip-path:url(#lclrz101ta)">
        <g data-name="그룹 73551">
            <path data-name="패스 23964" d="M328.467 190.108A11.108 11.108 0 1 1 317.358 179a11.108 11.108 0 0 1 11.108 11.108z" transform="translate(-259.279 2076.137)" style="fill:#ffbd76"/>
            <path data-name="패스 23965" d="m309.961 196.5-5.211 10.423 5.211.274 3.429 3.84 4.251-7.406 3.84 7.543 3.429-4.114 5.349-.274-5.211-10.011a15.513 15.513 0 0 1-7.817 2.606 10.287 10.287 0 0 1-7.269-2.88z" transform="translate(-259.424 2077.837)" style="fill:#ef726a"/>
            <path data-name="패스 23966" d="M323.242 189.683a6.309 6.309 0 1 1-6.309-6.309 6.308 6.308 0 0 1 6.309 6.309z" transform="translate(-258.854 2076.562)" style="fill:#ef726a"/>
            <g data-name="그룹 73547">
                <path data-name="패스 23967" d="M313.571 212.19a.82.82 0 0 1-.645-.313l-3.117-3.942-5.021-.174a.823.823 0 0 1-.706-1.194l5.025-9.934a.823.823 0 1 1 1.468.743l-4.443 8.786 4.115.143a.825.825 0 0 1 .617.312l2.555 3.232 3.32-6.545a.823.823 0 0 1 1.468.745l-3.9 7.692a.827.827 0 0 1-.653.447l-.083.002z" transform="translate(-259.498 2077.806)" style="fill:#292929"/>
            </g>
            <g data-name="그룹 73548">
                <path data-name="패스 23968" d="M320.541 212.19h-.082a.825.825 0 0 1-.652-.448l-5.935-11.733a.823.823 0 1 1 1.468-.743l5.354 10.584 2.554-3.231a.825.825 0 0 1 .617-.312l4.116-.143-4.443-8.786a.823.823 0 1 1 1.468-.743l5.025 9.934a.823.823 0 0 1-.705 1.194l-5.023.174-3.117 3.942a.82.82 0 0 1-.645.311z" transform="translate(-258.547 2077.806)" style="fill:#292929"/>
            </g>
            <g data-name="그룹 73549">
                <path data-name="패스 23969" d="M317.4 202.175a12.1 12.1 0 1 1 12.1-12.1 12.116 12.116 0 0 1-12.1 12.1zm0-22.561a10.458 10.458 0 1 0 10.458 10.458 10.469 10.469 0 0 0-10.458-10.458z" transform="translate(-259.371 2076.037)" style="fill:#292929"/>
            </g>
            <g data-name="그룹 73550">
                <path data-name="패스 23970" d="M316.973 196.874a7.233 7.233 0 1 1 7.233-7.233 7.241 7.241 0 0 1-7.233 7.233zm0-12.821a5.588 5.588 0 1 0 5.588 5.588 5.594 5.594 0 0 0-5.588-5.588z" transform="translate(-258.94 2076.468)" style="fill:#292929"/>
            </g>
        </g>
    </g>
</svg>
