<svg xmlns="http://www.w3.org/2000/svg" width="72" height="72" viewBox="0 0 72 72">
    <g data-name="그룹 13771" transform="translate(-272 -1244)">
        <circle data-name="타원 769" cx="36" cy="36" r="36" transform="translate(272 1244)" style="fill:#f5f5f5"/>
        <g data-name="그룹 13772">
            <g data-name="사각형 3849" transform="translate(296 1267)" style="stroke:#333;fill:#fff">
                <rect width="24" height="26" rx="3" style="stroke:none"/>
                <rect x=".5" y=".5" width="23" height="25" rx="2.5" style="fill:none"/>
            </g>
            <g data-name="사각형 3857" style="fill:#deecfb;stroke:#333">
                <path d="M3 0h18a3 3 0 0 1 3 3v2H0V3a3 3 0 0 1 3-3z" style="stroke:none" transform="translate(296 1267)"/>
                <path d="M3 .5h18A2.5 2.5 0 0 1 23.5 3v1.5H.5V3A2.5 2.5 0 0 1 3 .5z" style="fill:none" transform="translate(296 1267)"/>
            </g>
            <g data-name="사각형 3852" transform="translate(302 1277)" style="fill:none;stroke:#333">
                <rect width="12" height="1" rx=".5" style="stroke:none"/>
                <rect x=".5" y=".5" width="11" style="fill:none"/>
            </g>
            <g data-name="사각형 3853" transform="translate(302 1280)" style="fill:none;stroke:#333">
                <rect width="12" height="1" rx=".5" style="stroke:none"/>
                <rect x=".5" y=".5" width="11" style="fill:none"/>
            </g>
            <g data-name="사각형 3854" transform="translate(302 1283)" style="fill:none;stroke:#333">
                <rect width="7" height="1" rx=".5" style="stroke:none"/>
                <rect x=".5" y=".5" width="6" style="fill:none"/>
            </g>
            <g data-name="사각형 3855" transform="translate(304 1266)" style="fill:none;stroke:#333">
                <rect width="1" height="3" rx=".5" style="stroke:none"/>
                <rect x=".5" y=".5" height="2" style="fill:none"/>
            </g>
            <g data-name="사각형 3856" transform="translate(311 1266)" style="fill:none;stroke:#333">
                <rect width="1" height="3" rx=".5" style="stroke:none"/>
                <rect x=".5" y=".5" height="2" style="fill:none"/>
            </g>
        </g>
    </g>
</svg>
