<svg xmlns="http://www.w3.org/2000/svg" width="36" height="31" viewBox="0 0 36 31">
    <g data-name="그룹 73509">
        <path data-name="사각형 10478" transform="translate(15 23)" style="fill:#292929" d="M0 0h5v6H0z"/>
        <g data-name="패스 23918" style="fill:#f46792;stroke-linecap:round;stroke-linejoin:round">
            <path d="M12.777 39.088c-3.155 0-6.12-1.165-8.346-3.28C2.22 33.704 1 30.913 1 27.947V16h23.554v11.948c0 2.966-1.218 5.757-3.43 7.86-2.227 2.115-5.191 3.28-8.347 3.28z" style="stroke:none" transform="translate(5.111 -15)"/>
            <path d="M2 17v10.948c0 5.591 4.835 10.14 10.777 10.14 5.943 0 10.777-4.549 10.777-10.14V17H2m-2-2h25.554v12.948c0 6.705-5.72 12.14-12.777 12.14C5.721 40.088 0 34.653 0 27.948V15z" style="fill:#292929;stroke:none" transform="translate(5.111 -15)"/>
        </g>
        <path data-name="사각형 10479" d="M2 0h9a2 2 0 0 1 2 2v2H0V2a2 2 0 0 1 2-2z" transform="translate(11 27)" style="fill:#292929"/>
        <g data-name="그룹 73509">
            <path data-name="패스 23922" d="M518.2 600.879c.169-.342.445-.342.614 0l1.069 2.166a1.485 1.485 0 0 0 .994.722l2.391.348c.378.055.463.318.19.584l-1.73 1.685a1.483 1.483 0 0 0-.38 1.169l.408 2.381c.065.376-.159.539-.5.361l-2.138-1.124a1.483 1.483 0 0 0-1.229 0l-2.138 1.124c-.338.178-.562.015-.5-.361l.408-2.381a1.483 1.483 0 0 0-.38-1.169l-1.73-1.685c-.273-.267-.188-.53.19-.584l2.39-.348a1.484 1.484 0 0 0 .994-.722z" transform="translate(-500.621 -594.438)" style="fill:#fff"/>
        </g>
        <g data-name="사각형 10482" style="stroke:#292929;stroke-width:2px;fill:none">
            <path d="M1 0h6v9H4a4 4 0 0 1-4-4V1a1 1 0 0 1 1-1z" style="stroke:none" transform="translate(0 4)"/>
            <path d="M1 1h5v7H4a3 3 0 0 1-3-3V1z" style="fill:none" transform="translate(0 4)"/>
        </g>
        <g data-name="사각형 10483" style="stroke:#292929;stroke-width:2px;fill:none">
            <path d="M0 0h6a1 1 0 0 1 1 1v4a4 4 0 0 1-4 4H0V0z" style="stroke:none" transform="translate(29 4)"/>
            <path d="M1 1h5v4a3 3 0 0 1-3 3H1V1z" style="fill:none" transform="translate(29 4)"/>
        </g>
    </g>
</svg>
