<svg xmlns="http://www.w3.org/2000/svg" width="36" height="36" viewBox="0 0 36 36">
    <defs>
        <clipPath id="f6o1aqsw9a">
            <path transform="translate(40 2255)" style="fill:#fff" d="M0 0h36v36H0z"/>
        </clipPath>
    </defs>
    <g transform="translate(-40 -2255)" style="clip-path:url(#f6o1aqsw9a)">
        <ellipse data-name="타원 2702" cx="15" cy="4" rx="15" ry="4" transform="translate(43 2282)" style="fill:#ffcfcc"/>
        <path data-name="패스 24043" d="M10.662 0C4.784 0 0 4.521 0 10.076c0 4.165 2.245 8.84 4.706 12.454.195.286.392.558.589.83s.413.562.619.83c2.022 2.632 3.972 4.4 4.748 4.417.776-.018 2.726-1.786 4.748-4.417.206-.268.413-.544.619-.83s.394-.544.589-.83c2.461-3.614 4.706-8.289 4.706-12.454C21.324 4.521 16.54 0 10.662 0" transform="translate(47.338 2257.392)" style="fill:#f9635c"/>
        <path data-name="패스 24044" d="M78.182 79.13a7 7 0 1 1 7-7 7.008 7.008 0 0 1-7 7" transform="translate(-20.182 2196.87)" style="fill:#fff"/>
        <path data-name="다각형 1" d="M4.063.782a.5.5 0 0 1 .873 0l.91 1.63a.5.5 0 0 0 .351.249l1.86.325a.5.5 0 0 1 .269.845L7.041 5.125a.5.5 0 0 0-.14.422l.252 1.793a.5.5 0 0 1-.706.523l-1.736-.807a.5.5 0 0 0-.421 0l-1.737.806a.5.5 0 0 1-.706-.523L2.1 5.547a.5.5 0 0 0-.14-.422L.675 3.831a.5.5 0 0 1 .269-.845L2.8 2.661a.5.5 0 0 0 .351-.249z" transform="translate(53.5 2264.277)" style="fill:#f9635c"/>
    </g>
</svg>
