<svg xmlns="http://www.w3.org/2000/svg" width="36" height="36" viewBox="0 0 36 36">
    <defs>
        <clipPath id="xnp43f92ka">
            <path transform="translate(40 2255)" style="fill:#fff" d="M0 0h36v36H0z"/>
        </clipPath>
    </defs>
    <g transform="translate(-40 -2255)" style="clip-path:url(#xnp43f92ka)">
        <path data-name="패스 24045" d="m0 0 12.343-10.632L25 0v13a3 3 0 0 1-3 3H3a3 3 0 0 1-3-3z" transform="translate(45 2271)" style="fill:#b4e5db"/>
        <path data-name="패스 24037" d="m-2502.893 3970.648 15-15 14.53 15" transform="translate(2545.393 -1696.649)" style="fill:none;stroke:#53bba5;stroke-linecap:round;stroke-linejoin:round;stroke-width:4px"/>
        <path data-name="사각형 14360" d="M4.5 0A4.5 4.5 0 0 1 9 4.5V12H0V4.5A4.5 4.5 0 0 1 4.5 0z" transform="translate(53 2275)" style="fill:#53bba5"/>
    </g>
</svg>
