<svg xmlns="http://www.w3.org/2000/svg" width="26" height="26" viewBox="0 0 26 26">
  <g id="그룹_9630" data-name="그룹 9630" transform="translate(-284.905 -287.905)">
    <g id="패스_212" data-name="패스 212" transform="translate(284.905 287.905)" fill="none" opacity="0.15">
      <path d="M13,0A13,13,0,1,1,0,13,13,13,0,0,1,13,0Z" stroke="none"/>
      <path d="M 13 1 C 9.794679641723633 1 6.781219482421875 2.248220443725586 4.514720916748047 4.514720916748047 C 2.248220443725586 6.781219482421875 1 9.794679641723633 1 13 C 1 16.20532035827637 2.248220443725586 19.21878051757812 4.514720916748047 21.48527908325195 C 6.781219482421875 23.75177955627441 9.794679641723633 25 13 25 C 16.20532035827637 25 19.21878051757812 23.75177955627441 21.48527908325195 21.48527908325195 C 23.75177955627441 19.21878051757812 25 16.20532035827637 25 13 C 25 9.794679641723633 23.75177955627441 6.781219482421875 21.48527908325195 4.514720916748047 C 19.21878051757812 2.248220443725586 16.20532035827637 1 13 1 M 13 0 C 20.1796989440918 0 26 5.82029914855957 26 13 C 26 20.1796989440918 20.1796989440918 26 13 26 C 5.82029914855957 26 0 20.1796989440918 0 13 C 0 5.82029914855957 5.82029914855957 0 13 0 Z" stroke="none" fill="#707070"/>
    </g>
    <path id="합치기_1" data-name="합치기 1" d="M4.166,9.167V5.834H.833a.833.833,0,1,1,0-1.667H4.166V.833a.833.833,0,1,1,1.667,0V4.167H9.167a.833.833,0,0,1,0,1.667H5.833V9.167a.833.833,0,0,1-1.667,0Z" transform="translate(292.905 295.905)" fill="#333"/>
  </g>
</svg>
