<svg xmlns="http://www.w3.org/2000/svg" width="30" height="30" viewBox="0 0 30 30">
    <g data-name="그룹 11604">
        <g data-name="합치기 2" style="fill:#fff;stroke-linecap:round;stroke-linejoin:round">
            <path d="M445.941 23.019h-12c-.827 0-1.5-.673-1.5-1.5V14.22h-2.098c-.77 0-1.23-.506-1.406-.979-.176-.473-.155-1.158.43-1.66l9.597-8.235a1.503 1.503 0 0 1 1.954 0l9.598 8.236c.584.501.605 1.185.43 1.659-.175.473-.637.98-1.407.98h-2.097v7.296c0 .828-.674 1.5-1.501 1.5z" style="stroke:none" transform="translate(-425.339 1.515)"/>
            <path d="M445.941 22.519c.552 0 1-.45 1-1V14.72a1 1 0 0 1 1-1h1.598c.646 0 .882-.5.938-.653.057-.153.204-.685-.287-1.106l-9.597-8.235a1.002 1.002 0 0 0-1.303 0l-9.598 8.235c-.49.42-.343.953-.286 1.106.056.154.292.653.937.653h1.598a1 1 0 0 1 1 1v6.797c0 .552.449 1 1 1h12m0 1h-12a2 2 0 0 1-2-2v-6.797h-1.598c-1.856 0-2.71-2.31-1.302-3.518l9.597-8.236a2.002 2.002 0 0 1 2.606 0l9.598 8.236c1.409 1.209.554 3.518-1.303 3.518h-1.597v6.797a2 2 0 0 1-2.001 2z" style="fill:#333;stroke:none" transform="translate(-425.339 1.515)"/>
        </g>
        <text data-name="%" transform="translate(9.602 20.033)" style="fill:#333;font-size:12px;font-family:SegoeUI-Bold,Segoe UI;font-weight:700;letter-spacing:-.05em"><tspan x="0" y="0">%</tspan></text>
    </g>
</svg>
