<svg xmlns="http://www.w3.org/2000/svg" width="64" height="64" viewBox="0 0 64 64">
    <defs>
        <clipPath id="shtzoer53a">
            <path data-name="사각형 3516" style="fill:none" d="M0 0h38v26H0z"/>
        </clipPath>
    </defs>
    <g transform="translate(-280 -744)">
        <circle data-name="타원 203" cx="32" cy="32" r="32" transform="translate(280 744)" style="fill:#f5f5f5"/>
        <g data-name="그룹 13155" transform="translate(293 763)" style="clip-path:url(#shtzoer53a)">
            <path data-name="패스 6060" d="m3.333 17.93 1.131-6.86 7.314-9.57h14.476l7.238 8.576L35.9 16.3l-1.357 3.974-5.126 1.354H8.838l-4.072-1.35z" transform="translate(-.317 .125)" style="fill:#fff"/>
            <path data-name="사각형 3517" transform="translate(5.302 21.504)" style="fill:#deecfb" d="M0 0h5.302v3.072H0z"/>
            <path data-name="사각형 3518" transform="translate(28.279 21.504)" style="fill:#deecfb" d="M0 0h5.302v3.072H0z"/>
            <path data-name="패스 6057" d="M37 5.284h-2.4a1 1 0 0 0-.908.673L32.918 7.9 27.61 1.222A2.955 2.955 0 0 0 25.312 0H12.685a2.949 2.949 0 0 0-2.293 1.219L5.082 7.9l-.774-1.943a1 1 0 0 0-.908-.673H1a1.088 1.088 0 0 0-1 1.158A1.088 1.088 0 0 0 1 7.6h1.76l.855 2.145A7.5 7.5 0 0 0 2.2 13.437l-.512 3.147q0 .029-.008.059a5.84 5.84 0 0 0 .994 4.113 3.577 3.577 0 0 0 .928.875v3.21A1.088 1.088 0 0 0 4.6 26h5.69a1.088 1.088 0 0 0 1-1.159v-2.779h15.42v2.779a1.088 1.088 0 0 0 1 1.159h5.69a1.088 1.088 0 0 0 1-1.159v-3.21a3.577 3.577 0 0 0 .928-.875 5.84 5.84 0 0 0 .994-4.113q0-.029-.008-.059l-.514-3.147a7.5 7.5 0 0 0-1.418-3.691L35.24 7.6H37a1.088 1.088 0 0 0 1-1.159 1.088 1.088 0 0 0-1-1.159m-3.178 13.95a1.127 1.127 0 0 1-.854.512H5.032a1.127 1.127 0 0 1-.854-.512 3.275 3.275 0 0 1-.522-2.249l.512-3.147c0-.021.006-.043.009-.064a4.973 4.973 0 0 1 .952-2.511l.109-.137h27.524l.109.137a4.974 4.974 0 0 1 .953 2.511c0 .021.005.043.009.064l.512 3.147a3.275 3.275 0 0 1-.522 2.25M11.864 2.789a1.09 1.09 0 0 1 .822-.472h12.626a1.1 1.1 0 0 1 .827.474l4.781 6.014H7.081zM9.29 23.683H5.6v-1.621h3.69zm23.11 0h-3.69v-1.621h3.69z" style="fill:#333"/>
            <path data-name="패스 6058" d="M117.353 237.561h-3.6a1.171 1.171 0 0 0 0 2.317h3.6a1.171 1.171 0 0 0 0-2.317" transform="translate(-107.334 -224.33)" style="fill:#333"/>
            <path data-name="패스 6059" d="M565.954 237.561h-3.6a1.171 1.171 0 0 0 0 2.317h3.6a1.171 1.171 0 0 0 0-2.317" transform="translate(-534.373 -224.33)" style="fill:#333"/>
        </g>
    </g>
</svg>
