<svg xmlns="http://www.w3.org/2000/svg" width="40" height="40" viewBox="0 0 40 40">
    <defs>
        <clipPath id="shn07xebaa">
            <path data-name="사각형 3227" transform="translate(32 2256)" style="opacity:.07;fill:red" d="M0 0h40v40H0z"/>
        </clipPath>
    </defs>
    <g data-name="마스크 그룹 21" style="clip-path:url(#shn07xebaa)" transform="translate(-32 -2256)">
        <g data-name="그룹 12940">
            <g data-name="그룹 12837">
                <path data-name="패스 5477" d="M0 0c8.876.273 14.913 7.426 14.928 16.107a.6.6 0 0 1-.276.5.6.6 0 0 1-.574.038s-.047-.023-.184-.073a9.491 9.491 0 0 0-3.146-.468 7.155 7.155 0 0 0-2.99.833 11.527 11.527 0 0 0-1.437.844 19.771 19.771 0 0 0-1.3-10.626C2.673 1.786 0 0 0 0z" transform="rotate(30 -4197.642 1238.493)" style="fill:#deecfb"/>
                <path data-name="패스 5476" d="M14.928 0C6.052.273.015 7.426 0 16.106a.6.6 0 0 0 .276.5.6.6 0 0 0 .574.038s.047-.023.184-.073a9.491 9.491 0 0 1 3.146-.468 7.156 7.156 0 0 1 2.99.833 11.527 11.527 0 0 1 1.437.844 19.771 19.771 0 0 1 1.3-10.626C12.256 1.786 14.928 0 14.928 0z" transform="rotate(30 -4189.88 1209.525)" style="fill:#deecfb"/>
                <path data-name="패스 3162" d="M16.122 17.937a10.309 10.309 0 0 1 3.78 1.108 12.291 12.291 0 0 1 1.342.782c.315.212.472.342.473.342a.6.6 0 0 0 .727.02 10.932 10.932 0 0 1 1.437-.844 7.155 7.155 0 0 1 2.989-.833 10.555 10.555 0 0 1 2.514.281 6.254 6.254 0 0 1 .631.187c.137.05.183.074.185.073a.6.6 0 0 0 .85-.541C31.035 9.832 24.436 2.734 16.122 2.4V.6a.6.6 0 1 0-1.194 0v1.8C6.617 2.733.015 9.83 0 18.51a.6.6 0 0 0 .276.5.6.6 0 0 0 .574.038s.047-.023.184-.073a9.491 9.491 0 0 1 3.146-.465 7.156 7.156 0 0 1 2.99.833 11.527 11.527 0 0 1 1.437.844.6.6 0 0 0 .728-.02s.158-.13.473-.342a11.194 11.194 0 0 1 5.121-1.879z" transform="rotate(30 -4185.095 1209.613)" style="stroke-width:1.5px;stroke:#333;fill:none;stroke-linecap:round"/>
                <path data-name="패스 3163" d="M0 10.127a2.986 2.986 0 1 0 5.971 0V0" transform="rotate(30 -4223.298 1218.484)" style="stroke-width:1.5px;stroke:#333;fill:none;stroke-linecap:round"/>
            </g>
            <g data-name="그룹 12933" transform="translate(50.441 2272.227)">
                <circle data-name="타원 30" cx="9.671" cy="9.671" r="9.671" style="fill:#fff;stroke-miterlimit:10;stroke-width:1.5px;stroke:#333"/>
                <g data-name="그룹 12931">
                    <path data-name="패스 5478" d="M10.364 21.282c-2.5-1.084-4.046.081-4.209 1.324-.361 2.74 4.655 1.3 4.655 4.182 0 1.149-1.06 1.96-2.814 1.96a3.694 3.694 0 0 1-2-.543" transform="translate(1.724 -15.39)" style="stroke:#313131;stroke-linejoin:round;stroke-width:1.5px;fill:none;stroke-linecap:round"/>
                    <path data-name="선 79" transform="translate(10.129 3.511)" style="stroke:#313131;stroke-linejoin:round;stroke-width:1.5px;fill:none;stroke-linecap:round" d="M0 1.955V0"/>
                    <path data-name="선 80" transform="translate(10.129 13.336)" style="stroke:#313131;stroke-linejoin:round;stroke-width:1.5px;fill:none;stroke-linecap:round" d="M0 1.955V0"/>
                </g>
            </g>
        </g>
    </g>
</svg>
