<svg xmlns="http://www.w3.org/2000/svg" width="30" height="30" viewBox="0 0 30 30">
    <g data-name="사각형 1641" transform="translate(4 4)" style="fill:#fff;stroke:#333">
        <rect width="22" height="22" rx="4" style="stroke:none"/>
        <rect x=".5" y=".5" width="21" height="21" rx="3.5" style="fill:none"/>
    </g>
    <g data-name="그룹 310">
        <path data-name="사각형 1644" transform="translate(11 9)" style="fill:#333" d="M0 0h1v5H0z"/>
        <path data-name="사각형 1645" transform="rotate(90 1.5 12.5)" style="fill:#333" d="M0 0h1v5H0z"/>
    </g>
    <g data-name="그룹 311">
        <path data-name="사각형 1644" transform="rotate(45 -9.313 33.435)" style="fill:#333" d="M0 0h1v5H0z"/>
        <path data-name="사각형 1645" transform="rotate(135 6.686 14.435)" style="fill:#333" d="M0 0h1v5H0z"/>
    </g>
    <path data-name="사각형 1646" transform="rotate(90 5.5 16.5)" style="fill:#333" d="M0 0h1v5H0z"/>
    <path data-name="사각형 1647" transform="rotate(90 -1.75 15.75)" style="fill:#333" d="M0 0h1v5H0z"/>
    <path data-name="사각형 1648" transform="rotate(90 -2.75 16.75)" style="fill:#333" d="M0 0h1v5H0z"/>
</svg>
