<svg xmlns="http://www.w3.org/2000/svg" width="40" height="40" viewBox="0 0 40 40">
    <circle data-name="타원 208" cx="20" cy="20" r="20" style="fill:#eee"/>
    <path data-name="사각형 3522" d="M2 0h6v16H0V2a2 2 0 0 1 2-2z" transform="translate(9 15)" style="fill:#5151ac"/>
    <path data-name="사각형 3523" d="M2 0h10a2 2 0 0 1 2 2v20H0V2a2 2 0 0 1 2-2z" transform="translate(17 9)" style="fill:#66c"/>
    <rect data-name="사각형 3524" width="3" height="3" rx=".5" transform="translate(12 19)" style="fill:#fff"/>
    <rect data-name="사각형 3525" width="3" height="3" rx=".5" transform="translate(12 24)" style="fill:#fff"/>
    <g data-name="그룹 13185" transform="translate(1 -1)">
        <rect data-name="사각형 3526" width="3" height="3" rx=".5" transform="translate(19 14)" style="fill:#fff"/>
        <rect data-name="사각형 3527" width="3" height="3" rx=".5" transform="translate(19 19)" style="fill:#fff"/>
        <rect data-name="사각형 3528" width="3" height="3" rx=".5" transform="translate(19 24)" style="fill:#fff"/>
        <rect data-name="사각형 3529" width="3" height="3" rx=".5" transform="translate(24 14)" style="fill:#fff"/>
        <rect data-name="사각형 3530" width="3" height="3" rx=".5" transform="translate(24 19)" style="fill:#fff"/>
        <rect data-name="사각형 3531" width="3" height="3" rx=".5" transform="translate(24 24)" style="fill:#fff"/>
    </g>
</svg>
