<svg xmlns="http://www.w3.org/2000/svg" width="40" height="40" viewBox="0 0 40 40">
  <g id="그룹_19145" data-name="그룹 19145" transform="translate(-36 -2357)">
    <g id="ico-main-consult02" transform="translate(4 9)">
      <rect id="사각형_3217" data-name="사각형 3217" width="40" height="40" transform="translate(32 2348)" fill="red" opacity="0"/>
    </g>
    <g id="그룹_19143" data-name="그룹 19143" transform="translate(-270.437 709.099)">
      <path id="패스_18914" data-name="패스 18914" d="M320.985,1781.808l-3.466,4.044v2.311h4.76a2.173,2.173,0,0,1,2.173,2.173v1.294h15.6l4.044-1.155,3.466.578v-5.2l-3.466-4.044-1.155,1.733H321.563Z" transform="translate(-6.96 -120.853)" fill="#deecfb"/>
      <path id="패스_18915" data-name="패스 18915" d="M312.938,1756.819H311.79a1.832,1.832,0,0,1-1.83-1.83v-1.252a.578.578,0,0,1,.578-.578h3.444a.578.578,0,0,1,0,1.156h-2.866v.675a.676.676,0,0,0,.674.675h1.148a.578.578,0,1,1,0,1.155Z" transform="translate(0 -94.475)" fill="#333"/>
      <path id="패스_18916" data-name="패스 18916" d="M314.921,1955.185h-3.757a1.205,1.205,0,0,1-1.2-1.2v-3.164a.578.578,0,0,1,1.155,0v3.164a.048.048,0,0,0,.048.048h3.757a.049.049,0,0,0,.049-.048v-3.164a.578.578,0,0,1,1.155,0v3.164A1.205,1.205,0,0,1,314.921,1955.185Z" transform="translate(0 -275.934)" fill="#333"/>
      <path id="패스_18917" data-name="패스 18917" d="M382.986,1803.09" transform="translate(-67.238 -140.448)" fill="none" stroke="#353535" stroke-linecap="round" stroke-linejoin="round" stroke-width="2"/>
      <path id="패스_18918" data-name="패스 18918" d="M327.265,1675.461H310.538a.577.577,0,0,1-.578-.578v-8.807a3.7,3.7,0,0,1,.635-2.076l2.533-3.137c.261-.835,1.9-6.043,2.588-7.674a4.324,4.324,0,0,1,3.984-2.638h11.635a4.324,4.324,0,0,1,3.984,2.638c.692,1.631,2.327,6.838,2.588,7.674l2.5,3.1a3.721,3.721,0,0,1,.665,2.116v1.859a.578.578,0,0,1-1.155,0v-1.859a2.54,2.54,0,0,0-.438-1.429l-2.542-3.143a.58.58,0,0,1-.1-.191c-.019-.06-1.867-5.987-2.582-7.672a3.17,3.17,0,0,0-2.921-1.934H319.7a3.17,3.17,0,0,0-2.92,1.934c-.715,1.685-2.564,7.612-2.582,7.672a.581.581,0,0,1-.1.191l-2.572,3.183a2.529,2.529,0,0,0-.407,1.389v8.229h16.149a.578.578,0,0,1,0,1.156Z" fill="#333"/>
      <path id="패스_18919" data-name="패스 18919" d="M629.474,1803.09" transform="translate(-294.188 -140.448)" fill="none" stroke="#353535" stroke-linecap="round" stroke-linejoin="round" stroke-width="2"/>
      <path id="패스_18920" data-name="패스 18920" d="M330.324,1859.625H319.4a1.832,1.832,0,0,1-1.83-1.83v-.33a1.7,1.7,0,0,0-1.7-1.7h-4.551a.578.578,0,1,1,0-1.155h4.551a2.854,2.854,0,0,1,2.851,2.851v.33a.675.675,0,0,0,.675.674h10.92a.578.578,0,0,1,0,1.156Z" transform="translate(-0.727 -187.888)" fill="#333"/>
      <path id="패스_18921" data-name="패스 18921" d="M373.655,1769.852H354.777a2.785,2.785,0,0,1-2.7-3.461.577.577,0,0,1,1.12.28,1.63,1.63,0,0,0,1.581,2.026h18.878a1.63,1.63,0,0,0,1.581-2.026.577.577,0,0,1,1.12-.28,2.785,2.785,0,0,1-2.7,3.461Z" transform="translate(-38.699 -106.255)" fill="#333"/>
      <path id="패스_18922" data-name="패스 18922" d="M645.429,1756.819h-1.148a.578.578,0,1,1,0-1.155h1.148a.676.676,0,0,0,.675-.675v-.675h-3.023a.578.578,0,1,1,0-1.156h3.6a.577.577,0,0,1,.578.578v1.252A1.832,1.832,0,0,1,645.429,1756.819Z" transform="translate(-306.184 -94.475)" fill="#333"/>
      <path id="패스_18923" data-name="패스 18923" d="M321.028,1894.019h-6.575a.578.578,0,0,1,0-1.155h6.575a.578.578,0,1,1,0,1.155Z" transform="translate(-3.605 -223.106)" fill="#333"/>
    </g>
    <g id="그룹_19144" data-name="그룹 19144" transform="translate(-76.836 1393.634)">
      <g id="그룹_12930" data-name="그룹 12930" transform="translate(130.279 980.809)">
        <circle id="타원_30" data-name="타원 30" cx="9.779" cy="9.779" r="9.779" transform="translate(0 0)" fill="#fff" stroke="#333" stroke-miterlimit="10" stroke-width="1.5"/>
        <g id="그룹_12931" data-name="그룹 12931" transform="translate(7.81 3.55)">
          <path id="패스_5478" data-name="패스 5478" d="M10.413,21.287c-2.532-1.1-4.09.081-4.256,1.338-.365,2.771,4.707,1.319,4.707,4.229,0,1.162-1.072,1.982-2.845,1.982A3.735,3.735,0,0,1,6,28.287" transform="translate(-6 -18.88)" fill="none" stroke="#313131" stroke-linecap="round" stroke-linejoin="round" stroke-width="1.5"/>
          <line id="선_79" data-name="선 79" y1="1.977" transform="translate(2.432 0)" fill="none" stroke="#313131" stroke-linecap="round" stroke-linejoin="round" stroke-width="1.5"/>
          <line id="선_80" data-name="선 80" y1="1.977" transform="translate(2.432 9.934)" fill="none" stroke="#313131" stroke-linecap="round" stroke-linejoin="round" stroke-width="1.5"/>
        </g>
      </g>
    </g>
  </g>
</svg>
