<svg xmlns="http://www.w3.org/2000/svg" width="40" height="40" viewBox="0 0 40 40">
    <g data-name="그룹 12929">
        <path data-name="패스 3168" d="m15.766 9.268-4.33-6.36a.616.616 0 0 1 .243-.9l.88-.514a7.659 7.659 0 0 1 8.18.394l.784.58a3.813 3.813 0 0 0 3.213.561l2.389-.645c1.388-.374 2.634.823 1.987 1.91l-2.96 4.974" transform="translate(-3.298 4.656)" style="stroke-width:1.5px;stroke:#333;stroke-miterlimit:10;fill:#fff"/>
        <path data-name="패스 3167" d="M19.336 12.383H8.76C4.127 14.358.5 19.846.5 25.6c0 7.205 6.1 7.353 13.616 7.353s13.616-.148 13.616-7.353c0-5.754-3.763-11.242-8.396-13.217z" transform="translate(3.518 .852)" style="fill:#deecfb;stroke-width:1.5px;stroke:#333;stroke-miterlimit:10"/>
        <g data-name="그룹 12930" transform="translate(17.634 15.074)">
            <circle data-name="타원 30" cx="9.779" cy="9.779" r="9.779" style="stroke-width:1.5px;stroke:#333;stroke-miterlimit:10;fill:#fff"/>
            <g data-name="그룹 12931">
                <path data-name="패스 5478" d="M10.413 21.287c-2.532-1.1-4.09.081-4.256 1.338-.365 2.771 4.707 1.319 4.707 4.229 0 1.162-1.072 1.982-2.845 1.982A3.735 3.735 0 0 1 6 28.287" transform="translate(1.81 -15.33)" style="fill:none;stroke:#313131;stroke-linecap:round;stroke-linejoin:round;stroke-width:1.5px"/>
                <path data-name="선 79" transform="translate(10.242 3.55)" style="fill:none;stroke:#313131;stroke-linecap:round;stroke-linejoin:round;stroke-width:1.5px" d="M0 1.977V0"/>
                <path data-name="선 80" transform="translate(10.242 13.484)" style="fill:none;stroke:#313131;stroke-linecap:round;stroke-linejoin:round;stroke-width:1.5px" d="M0 1.977V0"/>
            </g>
        </g>
    </g>
</svg>
