<svg xmlns="http://www.w3.org/2000/svg" width="40" height="40" viewBox="0 0 40 40">
    <g data-name="그룹 19157" transform="translate(1.231 7.23)">
        <path data-name="패스 6511" d="M15.5 44.5v2.356a1.664 1.664 0 0 1-1.682 1.644h-1.636a1.663 1.663 0 0 1-1.682-1.644V44.5" transform="translate(-5.731 -22.731)" style="stroke:#313131;stroke-linecap:round;stroke-linejoin:round;stroke-width:1.5px;fill:none"/>
        <path data-name="패스 6512" d="M60.5 44.5v2.356a1.663 1.663 0 0 0 1.682 1.644h1.636a1.663 1.663 0 0 0 1.682-1.644V44.5" transform="translate(-33.731 -22.731)" style="stroke:#313131;stroke-linecap:round;stroke-linejoin:round;stroke-width:1.5px;fill:none"/>
        <path data-name="패스 6513" d="M4.753 16.5H3.246a1.884 1.884 0 0 1-1.746-2 1.886 1.886 0 0 1 1.746-2h1.507a1.884 1.884 0 0 1 1.747 2 1.887 1.887 0 0 1-1.747 2z" transform="translate(-1.731 -7.973)" style="stroke:#313131;stroke-linecap:round;stroke-linejoin:round;stroke-width:1.5px;fill:none"/>
        <path data-name="패스 6514" d="M7.47 31.5h27.435c1.82 0 3.212-1.877 2.935-3.958l-.815-6.128A3.142 3.142 0 0 0 34.09 18.5H8.285a3.142 3.142 0 0 0-2.935 2.913l-.815 6.128C4.258 29.623 5.65 31.5 7.47 31.5z" transform="translate(-2.73 -10.446)" style="fill:#deecfb;stroke:#313131;stroke-linecap:round;stroke-linejoin:round;stroke-width:1.5px"/>
        <path data-name="패스 6515" d="m39.149 9.851-4.174-6.478A3.869 3.869 0 0 0 31.883 1.5H18.767a3.87 3.87 0 0 0-3.093 1.873L11.5 9.851" transform="translate(-6.732 -1.73)" style="stroke:#313131;stroke-linecap:round;stroke-linejoin:round;stroke-width:1.5px;fill:none"/>
        <path data-name="패스 6516" d="M72.246 16.5h1.507a1.884 1.884 0 0 0 1.746-2 1.886 1.886 0 0 0-1.746-2h-1.507a1.883 1.883 0 0 0-1.747 2 1.886 1.886 0 0 0 1.747 2z" transform="translate(-38.082 -7.688)" style="stroke:#313131;stroke-linecap:round;stroke-linejoin:round;stroke-width:1.5px;fill:none"/>
        <path data-name="사각형 14138" transform="translate(13.457 14.072)" style="fill:#fff;stroke:#313131;stroke-linecap:round;stroke-linejoin:round;stroke-width:1.5px" d="M0 0h10v3H0z"/>
        <circle data-name="타원 2692" cx="2" cy="2" r="2" transform="translate(5.493 13.091)" style="fill:#fff;stroke:#313131;stroke-linecap:round;stroke-linejoin:round;stroke-width:1.5px"/>
        <circle data-name="타원 2693" cx="2" cy="2" r="2" transform="translate(27.434 13.091)" style="fill:#fff;stroke:#313131;stroke-linecap:round;stroke-linejoin:round;stroke-width:1.5px"/>
    </g>
</svg>
