<svg xmlns="http://www.w3.org/2000/svg" width="30" height="30" viewBox="0 0 30 30">
    <path data-name="패스 3168" d="M14.317 6.4 11.4 2.121a.415.415 0 0 1 .164-.6l.593-.346a5.158 5.158 0 0 1 5.509.265l.528.391a2.568 2.568 0 0 0 2.164.378l1.609-.434c.935-.252 1.774.555 1.338 1.286L21.311 6.4" transform="translate(-4.681 4.5)" style="fill:#fff;stroke:#333;stroke-miterlimit:10"/>
    <path data-name="패스 3167" d="M13.185 12.383H6.063A9.932 9.932 0 0 0 .5 21.286c0 4.852 4.105 4.952 9.169 4.952s9.169-.1 9.169-4.952a10.011 10.011 0 0 0-5.653-8.903z" transform="translate(3.445 -1.943)" style="fill:#fff;stroke:#333;stroke-miterlimit:10"/>
    <g data-name="그룹 12930" transform="translate(13.114 11.679)">
        <circle data-name="타원 30" cx="6.585" cy="6.585" r="6.585" style="fill:#fff;stroke:#333;stroke-miterlimit:10"/>
        <g data-name="그룹 12931">
            <path data-name="패스 5478" d="M8.972 21.145c-1.705-.738-2.755.055-2.866.9-.246 1.866 3.17.889 3.17 2.848 0 .782-.722 1.335-1.916 1.335A2.515 2.515 0 0 1 6 25.859" transform="translate(-.74 -17.133)" style="fill:none;stroke:#313131;stroke-linecap:round;stroke-linejoin:round"/>
            <path data-name="선 79" transform="translate(6.898 2.391)" style="fill:none;stroke:#313131;stroke-linecap:round;stroke-linejoin:round" d="M0 1.331V0"/>
            <path data-name="선 80" transform="translate(6.898 9.081)" style="fill:none;stroke:#313131;stroke-linecap:round;stroke-linejoin:round" d="M0 1.331V0"/>
        </g>
    </g>
</svg>
