<svg xmlns="http://www.w3.org/2000/svg" xmlns:xlink="http://www.w3.org/1999/xlink" width="40" height="40" viewBox="0 0 40 40">
  <defs>
    <clipPath id="clip-path">
      <rect id="사각형_3227" data-name="사각형 3227" width="40" height="40" transform="translate(32 2256)" fill="red" opacity="0.07"/>
    </clipPath>
  </defs>
  <g id="ico-main-consult01" transform="translate(-32 -2256)">
    <rect id="사각형_3216" data-name="사각형 3216" width="40" height="40" transform="translate(32 2256)" fill="red" opacity="0"/>
    <g id="마스크_그룹_21" data-name="마스크 그룹 21" clip-path="url(#clip-path)">
      <g id="그룹_12940" data-name="그룹 12940" transform="translate(-1840.495 1)">
        <g id="그룹_19146" data-name="그룹 19146" transform="translate(-458.102 2022.776)">
          <path id="패스_18924" data-name="패스 18924" d="M2386.473,248.739l-13.673,11.13v17.284h27.23V259.869Z" transform="translate(-36.894 -14.13)" fill="#deecfb"/>
          <rect id="사각형_10623" data-name="사각형 10623" width="8.419" height="8.419" transform="translate(2338.784 248.775)" fill="#fff"/>
          <path id="패스_18925" data-name="패스 18925" d="M2366.16,385.416a.647.647,0,0,1-.648-.648V367.5a.648.648,0,1,1,1.3,0v17.271A.647.647,0,0,1,2366.16,385.416Z" transform="translate(-30.253 -121.746)" fill="#333"/>
          <path id="패스_18926" data-name="패스 18926" d="M2673.89,374.73a.647.647,0,0,1-.647-.648V367.5a.648.648,0,1,1,1.3,0v6.585A.647.647,0,0,1,2673.89,374.73Z" transform="translate(-310.64 -121.746)" fill="#333"/>
          <path id="패스_18927" data-name="패스 18927" d="M2366.866,252.368a.647.647,0,0,1-.414-.15l-16.136-13.447-16.136,13.447a.648.648,0,0,1-.83-1L2349.9,237.43a.649.649,0,0,1,.83,0l16.551,13.792a.648.648,0,0,1-.416,1.145Z" transform="translate(-0.737 -3.69)" fill="#333"/>
          <path id="패스_18928" data-name="패스 18928" d="M2407.834,409.174h-9.93v-9.931h9.93Zm-8.635-1.3h7.34v-7.341h-7.34Z" transform="translate(-59.767 -151.26)" fill="#333"/>
          <rect id="사각형_10624" data-name="사각형 10624" width="1.295" height="8.636" transform="translate(2342.455 248.63)" fill="#333"/>
          <rect id="사각형_10625" data-name="사각형 10625" width="8.635" height="1.295" transform="translate(2338.784 252.483)" fill="#333"/>
          <path id="패스_18929" data-name="패스 18929" d="M2332.956,561.211a.648.648,0,1,0,0,1.3h18.458a.647.647,0,0,0,.648-.648v-.611Z" transform="translate(0 -298.836)" fill="#333"/>
          <path id="패스_18930" data-name="패스 18930" d="M2413.129,242.622a.647.647,0,0,1-.648-.648v-8.1a.647.647,0,0,1,.648-.648h5.181a.647.647,0,0,1,.648.648v3.886a.648.648,0,1,1-1.3,0v-3.238h-3.886v7.448A.647.647,0,0,1,2413.129,242.622Z" transform="translate(-73.049)" fill="#333"/>
        </g>
        <g id="그룹_12933" data-name="그룹 12933" transform="translate(1891.441 2273.227)">
          <circle id="타원_30" data-name="타원 30" cx="9.671" cy="9.671" r="9.671" transform="translate(0 0)" fill="#fff" stroke="#333" stroke-miterlimit="10" stroke-width="1.5"/>
          <g id="그룹_12931" data-name="그룹 12931" transform="translate(7.724 3.511)">
            <path id="패스_5478" data-name="패스 5478" d="M10.364,21.282c-2.5-1.084-4.046.081-4.209,1.324-.361,2.74,4.655,1.3,4.655,4.182,0,1.149-1.06,1.96-2.814,1.96a3.694,3.694,0,0,1-2-.543" transform="translate(-6 -18.901)" fill="none" stroke="#313131" stroke-linecap="round" stroke-linejoin="round" stroke-width="1.5"/>
            <line id="선_79" data-name="선 79" y1="1.955" transform="translate(2.405)" fill="none" stroke="#313131" stroke-linecap="round" stroke-linejoin="round" stroke-width="1.5"/>
            <line id="선_80" data-name="선 80" y1="1.955" transform="translate(2.405 9.825)" fill="none" stroke="#313131" stroke-linecap="round" stroke-linejoin="round" stroke-width="1.5"/>
          </g>
        </g>
      </g>
    </g>
  </g>
</svg>
