<svg xmlns="http://www.w3.org/2000/svg" width="40" height="40" viewBox="0 0 40 40">
    <g data-name="그룹 19160">
        <g data-name="사각형 14153" style="stroke-linejoin:round;stroke:#313131;stroke-width:1.5px;fill:#deecfb">
            <path style="stroke:none" d="M0 0h22v32H0z" transform="translate(13 5)"/>
            <path style="fill:none" d="M.75.75h20.5v30.5H.75z" transform="translate(13 5)"/>
        </g>
        <g data-name="사각형 14145" transform="translate(18 9)" style="fill:#fff;stroke:#313131;stroke-width:1.5px">
            <rect width="5" height="4" rx=".5" style="stroke:none"/>
            <rect x=".75" y=".75" width="3.5" height="2.5" rx=".25" style="fill:none"/>
        </g>
        <g data-name="사각형 14146" transform="translate(25 9)" style="fill:#fff;stroke:#313131;stroke-width:1.5px">
            <rect width="5" height="4" rx=".5" style="stroke:none"/>
            <rect x=".75" y=".75" width="3.5" height="2.5" rx=".25" style="fill:none"/>
        </g>
        <g data-name="사각형 14148" transform="translate(18 16)" style="fill:#fff;stroke:#313131;stroke-width:1.5px">
            <rect width="5" height="4" rx=".5" style="stroke:none"/>
            <rect x=".75" y=".75" width="3.5" height="2.5" rx=".25" style="fill:none"/>
        </g>
        <g data-name="사각형 14147" transform="translate(25 16)" style="fill:#fff;stroke:#313131;stroke-width:1.5px">
            <rect width="5" height="4" rx=".5" style="stroke:none"/>
            <rect x=".75" y=".75" width="3.5" height="2.5" rx=".25" style="fill:none"/>
        </g>
        <g data-name="사각형 14149" transform="translate(18 23)" style="fill:#fff;stroke:#313131;stroke-width:1.5px">
            <rect width="5" height="4" rx=".5" style="stroke:none"/>
            <rect x=".75" y=".75" width="3.5" height="2.5" rx=".25" style="fill:none"/>
        </g>
        <g data-name="사각형 14150" transform="translate(25 23)" style="fill:#fff;stroke:#313131;stroke-width:1.5px">
            <rect width="5" height="4" rx=".5" style="stroke:none"/>
            <rect x=".75" y=".75" width="3.5" height="2.5" rx=".25" style="fill:none"/>
        </g>
        <g data-name="사각형 14152" transform="translate(18 30)" style="fill:#fff;stroke:#313131;stroke-width:1.5px">
            <rect width="5" height="4" rx=".5" style="stroke:none"/>
            <rect x=".75" y=".75" width="3.5" height="2.5" rx=".25" style="fill:none"/>
        </g>
        <g data-name="사각형 14151" transform="translate(25 30)" style="fill:#fff;stroke:#313131;stroke-width:1.5px">
            <rect width="5" height="4" rx=".5" style="stroke:none"/>
            <rect x=".75" y=".75" width="3.5" height="2.5" rx=".25" style="fill:none"/>
        </g>
        <path data-name="패스 6519" d="M49.5 3.5v-2h-10v2" transform="translate(-20.5 1.5)" style="stroke-linecap:round;fill:none;stroke-linejoin:round;stroke:#313131;stroke-width:1.5px"/>
        <g data-name="사각형 14154" style="fill:#fff;stroke-linejoin:round;stroke:#313131;stroke-width:1.5px">
            <path style="stroke:none" d="M0 0h18v22H0z" transform="translate(6 15)"/>
            <path style="fill:none" d="M.75.75h16.5v20.5H.75z" transform="translate(6 15)"/>
        </g>
        <g data-name="창문">
            <g data-name="사각형 14139" transform="translate(9 18)" style="fill:#fff;stroke:#313131;stroke-width:1.5px">
                <rect width="5" height="4" rx=".5" style="stroke:none"/>
                <rect x=".75" y=".75" width="3.5" height="2.5" rx=".25" style="fill:none"/>
            </g>
            <g data-name="사각형 14140" transform="translate(16 18)" style="fill:#fff;stroke:#313131;stroke-width:1.5px">
                <rect width="5" height="4" rx=".5" style="stroke:none"/>
                <rect x=".75" y=".75" width="3.5" height="2.5" rx=".25" style="fill:none"/>
            </g>
            <g data-name="사각형 14141" transform="translate(9 24)" style="fill:#fff;stroke:#313131;stroke-width:1.5px">
                <rect width="5" height="4" rx=".5" style="stroke:none"/>
                <rect x=".75" y=".75" width="3.5" height="2.5" rx=".25" style="fill:none"/>
            </g>
            <g data-name="사각형 14142" transform="translate(16 24)" style="fill:#fff;stroke:#313131;stroke-width:1.5px">
                <rect width="5" height="4" rx=".5" style="stroke:none"/>
                <rect x=".75" y=".75" width="3.5" height="2.5" rx=".25" style="fill:none"/>
            </g>
            <g data-name="사각형 14143" transform="translate(9 30)" style="fill:#fff;stroke:#313131;stroke-width:1.5px">
                <rect width="5" height="4" rx=".5" style="stroke:none"/>
                <rect x=".75" y=".75" width="3.5" height="2.5" rx=".25" style="fill:none"/>
            </g>
            <g data-name="사각형 14144" transform="translate(16 30)" style="fill:#fff;stroke:#313131;stroke-width:1.5px">
                <rect width="5" height="4" rx=".5" style="stroke:none"/>
                <rect x=".75" y=".75" width="3.5" height="2.5" rx=".25" style="fill:none"/>
            </g>
        </g>
        <path data-name="선 298" transform="translate(2.5 36.5)" style="stroke-linecap:round;fill:none;stroke-linejoin:round;stroke:#313131;stroke-width:1.5px" d="M0 0h36"/>
    </g>
</svg>
