<svg xmlns="http://www.w3.org/2000/svg" width="64" height="64" viewBox="0 0 64 64">
    <defs>
        <clipPath id="mid24j64ia">
            <path data-name="사각형 3513" style="fill:none" d="M0 0h36v36H0z"/>
        </clipPath>
    </defs>
    <g transform="translate(-46 -764)">
        <circle data-name="타원 202" cx="32" cy="32" r="32" transform="translate(46 764)" style="fill:#f5f5f5"/>
        <path data-name="패스 6046" d="M15-1.428-1.714 8.715.429 13h1.285v13.572H28V13h1.429l2.714-4.857z" style="fill:#fff" transform="translate(63 781)"/>
        <g data-name="그룹 13150" transform="translate(60 778.001)" style="clip-path:url(#mid24j64ia)">
            <path data-name="사각형 3514" transform="translate(14.519 19.036)" style="fill:#deecfb" d="M0 0h6.776v10.647H0z"/>
            <path data-name="패스 6043" d="M32.727 17.183a.827.827 0 0 1-.427-.119L18 8.323l-14.3 8.74a.82.82 0 0 1-1.16-.333L.086 11.821a.817.817 0 0 1 .3-1.061L17.57.124a.812.812 0 0 1 .861 0L35.613 10.76a.817.817 0 0 1 .3 1.061l-2.454 4.909a.82.82 0 0 1-.731.452M18 6.546a.819.819 0 0 1 .426.119L32.393 15.2l1.722-3.445L18 1.781 1.884 11.757 3.607 15.2l13.966-8.534a.828.828 0 0 1 .427-.12" style="fill:#333"/>
            <path data-name="패스 6044" d="M32 18a.817.817 0 0 0-.818.818v13.91h-7.364V22.092a.817.817 0 0 0-.818-.818h-8.182a.817.817 0 0 0-.818.818v10.636H6.636V18.819a.818.818 0 0 0-1.636 0v14.727a.817.817 0 0 0 .818.818H32a.817.817 0 0 0 .818-.818V18.819A.817.817 0 0 0 32 18m-16.364 4.91h6.545v9.818h-6.545z" transform="translate(-.909 -3.273)" style="fill:#333"/>
            <path data-name="패스 6045" d="M24.636 29.819a.818.818 0 1 1-.818-.819.817.817 0 0 1 .818.818" transform="translate(-4.182 -5.273)" style="fill:#333"/>
        </g>
    </g>
</svg>
