<svg xmlns="http://www.w3.org/2000/svg" width="18" height="18" viewBox="0 0 18 18">
    <defs>
        <clipPath id="52nm2ilaka">
            <path data-name="사각형 3927" style="fill:none" d="M0 0h18v18H0z"/>
        </clipPath>
    </defs>
    <g data-name="그룹 14067" style="clip-path:url(#52nm2ilaka)">
        <path data-name="패스 6529" d="M91.953 468.788a6.209 6.209 0 0 0-1.106-2.065 6.209 6.209 0 0 0-1.106 2.065 1.115 1.115 0 1 0 2.212 0" transform="translate(-86.506 -454.101)" style="fill:#29b6f6"/>
        <path data-name="패스 6530" d="M290.981 468.788a6.209 6.209 0 0 0-1.106-2.065 6.209 6.209 0 0 0-1.106 2.065 1.115 1.115 0 1 0 2.212 0" transform="translate(-280.579 -454.101)" style="fill:#29b6f6"/>
        <path data-name="패스 6531" d="M490.008 468.788a6.209 6.209 0 0 0-1.106-2.065 6.209 6.209 0 0 0-1.106 2.065 1.115 1.115 0 1 0 2.212 0" transform="translate(-474.65 -454.101)" style="fill:#29b6f6"/>
        <path data-name="패스 6532" d="M13.275 1.663a3.345 3.345 0 0 0-.468.033 3.318 3.318 0 0 0-6.078.683 2.489 2.489 0 0 0-4.1.943h-.141a2.489 2.489 0 1 0 .916 4.8 2.489 2.489 0 0 0 3.82 1.395A4.146 4.146 0 0 0 12.47 8.2a3.319 3.319 0 1 0 .8-6.539" transform="translate(1 2)" style="fill:#90a4ae"/>
        <path data-name="패스 6533" d="M16.565 139.177a3.32 3.32 0 0 1-4.094 2.785 4.148 4.148 0 0 1-5.245 1.314 2.489 2.489 0 0 1-3.826-1.394 2.489 2.489 0 1 1-1.6-4.706 2.337 2.337 0 0 0 2.157 3.235 2.339 2.339 0 0 0 .86-.164 2.336 2.336 0 0 0 3.583 1.309 4.431 4.431 0 0 0 3.381-.02 4.13 4.13 0 0 0 1.541-1.214 3.155 3.155 0 0 0 .755.093 3.112 3.112 0 0 0 2.487-1.238" transform="translate(1 -131.76)" style="fill:#78909c"/>
    </g>
</svg>
