<svg xmlns="http://www.w3.org/2000/svg" width="18" height="18" viewBox="0 0 18 18">
    <defs>
        <clipPath id="raufv2hjta">
            <path data-name="사각형 3944" style="fill:none" d="M0 0h18v18H0z"/>
        </clipPath>
    </defs>
    <g data-name="그룹 14069" style="clip-path:url(#raufv2hjta)">
        <path data-name="패스 6534" d="M120 125.512a5.512 5.512 0 1 1 5.512 5.513 5.513 5.513 0 0 1-5.512-5.513" transform="translate(-116.333 -116.7)" style="fill:#ffc23b"/>
        <path data-name="패스 6535" d="M120 125.784a5.513 5.513 0 0 0 8.581 4.58c-.1.006-.207.009-.312.009a5.513 5.513 0 0 1-3.069-10.093 5.514 5.514 0 0 0-5.2 5.5" transform="translate(-116.333 -116.972)" style="fill:#ffaa3b"/>
        <path data-name="사각형 3928" transform="translate(9)" style="fill:#ffc23b" d="M0 0h.9v1.8H0z"/>
        <path data-name="사각형 3929" transform="rotate(-45 4.381 -1.489)" style="fill:#ffc23b" d="M0 0h.98v1.838H0z"/>
        <path data-name="사각형 3930" transform="translate(0 8.1)" style="fill:#ffc23b" d="M0 0h1.8v.9H0z"/>
        <path data-name="사각형 3931" transform="rotate(-45 19.229 4.661)" style="fill:#ffc23b" d="M0 0h1.838v.98H0z"/>
        <path data-name="사각형 3932" transform="translate(9 16.2)" style="fill:#ffc23b" d="M0 0h.9v1.8H0z"/>
        <path data-name="사각형 3933" transform="rotate(-45 24.344 -9.758)" style="fill:#ffc23b" d="M0 0h.98v1.838H0z"/>
        <path data-name="사각형 3934" transform="translate(16.2 8.1)" style="fill:#ffc23b" d="M0 0h1.8v.9H0z"/>
        <path data-name="사각형 3935" transform="rotate(-45 10.961 -15.301)" style="fill:#ffc23b" d="M0 0h1.838v.98H0z"/>
        <path data-name="사각형 3936" transform="translate(9)" style="fill:#ffc23b" d="M0 0h.9v1.8H0z"/>
        <path data-name="사각형 3937" transform="rotate(-45 4.381 -1.489)" style="fill:#ffc23b" d="M0 0h.98v1.838H0z"/>
        <path data-name="사각형 3938" transform="translate(0 8.1)" style="fill:#ffc23b" d="M0 0h1.8v.9H0z"/>
        <path data-name="사각형 3939" transform="rotate(-45 19.229 4.661)" style="fill:#ffc23b" d="M0 0h1.838v.98H0z"/>
        <path data-name="사각형 3940" transform="translate(9 16.2)" style="fill:#ffc23b" d="M0 0h.9v1.8H0z"/>
        <path data-name="사각형 3941" transform="rotate(-45 24.344 -9.758)" style="fill:#ffc23b" d="M0 0h.98v1.838H0z"/>
        <path data-name="사각형 3942" transform="translate(16.2 8.1)" style="fill:#ffc23b" d="M0 0h1.8v.9H0z"/>
        <path data-name="사각형 3943" transform="rotate(-45 10.961 -15.301)" style="fill:#ffc23b" d="M0 0h1.838v.98H0z"/>
        <path data-name="패스 6536" d="M324.813 175.989a1.78 1.78 0 1 0 1.479-2.322 1.966 1.966 0 0 0-1.479 2.322" transform="translate(-314.856 -168.714)" style="fill:#ffd45c"/>
    </g>
</svg>
