<svg xmlns="http://www.w3.org/2000/svg" width="60" height="60" viewBox="0 0 60 60">
    <g data-name="2">
        <g data-name="사각형 1641" transform="translate(10.001 10.001)" style="stroke:#333;fill:#fff">
            <rect width="42" height="42" rx="10" style="stroke:none"/>
            <rect x=".5" y=".5" width="41" height="41" rx="9.5" style="fill:none"/>
        </g>
        <g data-name="그룹 13062">
            <path data-name="패스 17636" d="M11.949 17.247c-.35-1.805-.935-2.447-1.427-2.642v.043a.862.862 0 0 0-.862 0v-.043c-.492.194-1.078.836-1.427 2.642-.688 3.553-1.644 6.534-3.1 6.458s-2.333-2.33-2.678-5.159-.344-6.687-.5-7.719S-.907 5.821.316 2.535 4.672.012 6.544.242a4.674 4.674 0 0 1 2.486 1.2 2.717 2.717 0 0 0 1.057.475 2.717 2.717 0 0 0 1.059-.477A4.67 4.67 0 0 1 13.63.242c1.873-.23 5.006-.994 6.229 2.293s-1.49 7.265-1.644 8.292-.153 4.891-.5 7.719-1.222 5.083-2.674 5.159h-.054c-1.418.002-2.359-2.949-3.038-6.458z" transform="translate(20.691 19.355)" style="fill:#bdf0e1"/>
        </g>
        <g data-name="그룹 13096">
            <g data-name="타원 30" transform="translate(37 34)" style="stroke-miterlimit:10;stroke:#333;fill:#fff">
                <circle cx="10.5" cy="10.5" r="10.5" style="stroke:none"/>
                <circle cx="10.5" cy="10.5" r="10" style="fill:none"/>
            </g>
            <path data-name="패스 5479" d="m11.43 15.307 2.17 6.564a.49.49 0 0 0 .962-.049l1.569-6.363a.492.492 0 0 1 .973-.011l1.673 6.333a.49.49 0 0 0 .966.018l1.913-6.492" transform="translate(30.977 26.346)" style="stroke-linejoin:round;stroke-linecap:round;fill:none;stroke-miterlimit:10;stroke:#333"/>
            <path data-name="선 83" transform="translate(41.241 44.231)" style="stroke-linecap:round;fill:none;stroke-miterlimit:10;stroke:#333" d="M0 0h12.52"/>
        </g>
    </g>
</svg>
