<svg xmlns="http://www.w3.org/2000/svg" width="36" height="36" viewBox="0 0 36 36">
    <defs>
        <clipPath id="l6cftc06ma">
            <path data-name="사각형 9194" transform="translate(36 2254)" style="stroke:#707070;fill:#fff" d="M0 0h36v36H0z"/>
        </clipPath>
    </defs>
    <g data-name="마스크 그룹 13750" transform="translate(-36 -2254)" style="clip-path:url(#l6cftc06ma)">
        <path data-name="패스 18073" d="M34.949 31.547a2.921 2.921 0 0 0-3.849-2.639 2.993 2.993 0 0 1-2.252-.075l-.048-.021-1.285-.51a32.864 32.864 0 0 1-4.129-1.983c-1.389-.791-3.012-1.721-3.169-1.839a6.065 6.065 0 0 1-2.451-4.508c0-.037-.009-.557.014-.835l1.126-13.629.422-4.352A1.055 1.055 0 0 0 18.278 0H2.989a1.054 1.054 0 0 0-1.054 1.088 64.045 64.045 0 0 0 1.109 10.3c.092.443.191.881.3 1.31a20.4 20.4 0 0 1 .523 5.018 35.723 35.723 0 0 1-.815 7.114 16.965 16.965 0 0 0-.552 3.127c-.193 2.451.281 4.269 1.407 5.4 1.292 1.3 3.285 1.574 5.925.808a6.3 6.3 0 0 0 1.784-.912 1.494 1.494 0 0 1 1.687 0 7.712 7.712 0 0 0 4.426 1.332H31.9a3.124 3.124 0 0 0 2.246-.957 2.826 2.826 0 0 0 .8-2.089z" style="fill:#ffe4c2" transform="translate(36 2254)"/>
        <path data-name="패스 18074" d="M34.949 31.547a2.921 2.921 0 0 0-3.849-2.639 2.993 2.993 0 0 1-2.252-.075l-.048-.021-1.285-.51a32.864 32.864 0 0 1-4.129-1.983c-1.389-.791-3.012-1.721-3.169-1.839a6.065 6.065 0 0 1-2.451-4.508c0-.037-.009-.557.014-.835l1.126-13.629.422-4.352A1.055 1.055 0 0 0 18.278 0h-7.644v33.849a8.357 8.357 0 0 0 .978-.591 1.494 1.494 0 0 1 1.687 0 7.712 7.712 0 0 0 4.426 1.332H31.9a3.124 3.124 0 0 0 2.246-.957 2.826 2.826 0 0 0 .8-2.089z" style="fill:#f2d1a5" transform="translate(36 2254)"/>
        <g data-name="그룹 16641">
            <path data-name="패스 18075" d="M5.044 35.677A6.707 6.707 0 0 0 7.17 36h6.092l3.682-1.477L20.421 36h6.8a1.055 1.055 0 0 0 1.055-1.055v-7.168a1.055 1.055 0 0 0-.625-.963c-.441-.2-1.064-.478-1.693-.774l-2.752.4-1.344-2.615a29.09 29.09 0 0 1-.823-.486 4.675 4.675 0 0 1-1.848-3.217l-.906-.15.942-1.237.354-4.27-8.467-.189-8.659 3.753a34.818 34.818 0 0 1-.767 6.453 18.573 18.573 0 0 0-.513 2.579z" style="fill:#fff" transform="translate(36 2254)"/>
        </g>
        <g data-name="그룹 16642">
            <path data-name="패스 18076" d="M27.647 26.814c-.441-.2-1.064-.478-1.693-.774l-2.752.4-1.344-2.615a29.09 29.09 0 0 1-.823-.486 4.675 4.675 0 0 1-1.848-3.217l-.906-.15.942-1.237.354-4.27-8.467-.189-.475.206V36h2.628l3.682-1.477L20.421 36h6.8a1.055 1.055 0 0 0 1.055-1.055v-7.168a1.055 1.055 0 0 0-.625-.963z" style="fill:#e1ebf0" transform="translate(36 2254)"/>
            <path data-name="패스 18077" d="M19.881 10.775a1.055 1.055 0 0 0-1.051-1.142H2.548a1.056 1.056 0 0 0-1.036 1.253q.074.4.156.791c.1.474.2.933.311 1.365a18.892 18.892 0 0 1 .481 4.666v.32l17.12-3.567z" style="fill:#e1ebf0" transform="translate(36 2254)"/>
            <path data-name="패스 18078" d="M19.169 19.909c0-.12 0-.494.01-.657l.043-.52-18.047 8.329c-.032.253-.06.516-.081.786-.226 2.878.383 5.066 1.811 6.5a5.358 5.358 0 0 0 2.139 1.325l14.143-15.553a3.716 3.716 0 0 1-.018-.21z" style="fill:#e1ebf0" transform="translate(36 2254)"/>
        </g>
        <path data-name="패스 18079" d="M24.079 25.1c-1.07-.609-1.767-1.01-2.221-1.273L13.262 36h7.159l5.534-9.96c-.7-.328-1.4-.675-1.875-.944z" style="fill:#cde1e6" transform="translate(36 2254)"/>
        <path data-name="패스 18080" d="M18.83 9.633h-8.2v6.692l8.942-1.863.305-3.688a1.055 1.055 0 0 0-1.047-1.141z" style="fill:#cde1e6" transform="translate(36 2254)"/>
        <path data-name="패스 18081" d="M19.169 19.909c0-.12 0-.494.01-.657l.043-.52-8.588 3.968v6.832l8.553-9.409c-.007-.07-.014-.14-.018-.21z" style="fill:#cde1e6" transform="translate(36 2254)"/>
    </g>
</svg>
