<svg xmlns="http://www.w3.org/2000/svg" width="36" height="36" viewBox="0 0 36 36">
    <defs>
        <clipPath id="7s858u6kra">
            <path data-name="사각형 9193" transform="translate(36 2265)" style="fill:#faf2f2;stroke:#707070" d="M0 0h36v36H0z"/>
        </clipPath>
    </defs>
    <g data-name="마스크 그룹 13749" transform="translate(-36 -2265)" style="clip-path:url(#7s858u6kra)">
        <g data-name="Flat">
            <path data-name="패스 18064" d="M124.966 4.356V0h3.724v12.414h-6.207V8.069A2.483 2.483 0 0 0 120 5.586V1.862a6.191 6.191 0 0 1 4.966 2.494z" transform="translate(-72.518 2265)" style="fill:#fa7360"/>
            <path data-name="패스 18065" d="M73.379 4.966V0h4.966v18.621A17.379 17.379 0 0 1 60.966 36 4.966 4.966 0 0 1 56 31.034V19.862A11.172 11.172 0 0 1 67.172 8.69h2.483a3.724 3.724 0 0 0 3.724-3.724z" transform="translate(-13.483 2265)" style="fill:#ff8777"/>
            <path data-name="패스 18066" d="M93.1 33.379V16h-3.721v3.724a4.966 4.966 0 0 1-4.966 4.966h-2.482A9.931 9.931 0 0 0 72 34.621v12.413a4.94 4.94 0 0 0 .891 2.833 4.94 4.94 0 0 0 2.833.891A17.379 17.379 0 0 0 93.1 33.379z" transform="translate(-28.242 2250.241)" style="fill:#fa7360"/>
            <path data-name="패스 18067" d="M223.926 192a5 5 0 0 0-5.057 4.918 7.487 7.487 0 0 1-2.979 6.006l-1.49 1.117.745.993 1.2-.9a9 9 0 0 0 3.763-7.137 3.728 3.728 0 0 1 3.7-3.753h.641V192z" transform="translate(-159.594 2087.901)" style="fill:#f8504c"/>
            <path data-name="패스 18068" d="M172.414 128a8.069 8.069 0 0 0-8.069 8.069 3.618 3.618 0 0 1-1.515 2.945l-2.83 2.02 3.724 4.345 1.986-1.49a7.448 7.448 0 0 0 2.979-5.959 4.966 4.966 0 0 1 4.966-4.966h5.586V128z" transform="translate(-109.414 2146.931)" style="fill:#ff8777"/>
            <path data-name="패스 18069" d="M185.388 144a8.069 8.069 0 0 0-8.069 8.069v.079a3.524 3.524 0 0 1-1.516 2.866l-2.747 1.962 2.711 3.162 1.986-1.49a7.448 7.448 0 0 0 2.979-5.959 4.966 4.966 0 0 1 4.966-4.966h5.586V144z" transform="translate(-121.457 2132.172)" style="fill:#fa7360"/>
            <path data-name="패스 18070" d="M115.724 176a.621.621 0 0 0-.621.621v1.3a3.728 3.728 0 0 0-3.1 3.668.621.621 0 0 0 1.241 0 2.483 2.483 0 0 1 1.862-2.395v1.153a.621.621 0 0 0 1.241 0v-3.724a.621.621 0 0 0-.623-.623z" transform="translate(-65.138 2102.655)" style="fill:#f8504c"/>
            <path data-name="패스 18071" d="M112.621 360a.621.621 0 1 0 0 1.241 2.483 2.483 0 0 1 2.483 2.483.621.621 0 0 0 1.241 0 3.728 3.728 0 0 0-3.724-3.724z" transform="translate(-65.138 1932.931)" style="fill:#f8504c"/>
            <path data-name="패스 18072" d="m2.793 96 .931 5.121-3.724.931 6.517 6.983-.931-5.121 3.724-.931z" transform="translate(38.172 2176.448)" style="fill:#ffc445"/>
        </g>
    </g>
</svg>
