<svg xmlns="http://www.w3.org/2000/svg" width="40" height="40" viewBox="0 0 40 40">
    <defs>
        <clipPath id="nwjdx4wada">
            <path data-name="사각형 9979" transform="translate(36 2264)" style="fill:red;opacity:.28" d="M0 0h40v40H0z"/>
        </clipPath>
    </defs>
    <g data-name="마스크 그룹 13806" transform="translate(-36 -2264)" style="clip-path:url(#nwjdx4wada)">
        <path data-name="패스 18850" d="m52.143 2288.286-1.768-.6-1.375-1.061v-8.812l1.375-.687h11.438l1.25 1.438.25 7-.625 1.813-2.625.911h-3.438l-3.875 3.152h-.607z" style="fill:#deecfb"/>
        <path data-name="패스 18851" d="M29.491 13.981a13.6 13.6 0 0 0-27.178 0A3.2 3.2 0 0 0 .41 16.9v3.588a3.2 3.2 0 0 0 3.2 3.2 2.07 2.07 0 0 0 2.068-2.068v-5.847a2.064 2.064 0 0 0-1.865-2.047 12.115 12.115 0 0 1 24.186 0 2.063 2.063 0 0 0-1.863 2.047v5.844a2.062 2.062 0 0 0 1.89 2.049v1.477a3.019 3.019 0 0 1-3.016 3.016h-2.238a2.22 2.22 0 0 0-2.108-1.5h-2.3a2.21 2.21 0 0 0-.938.206 2.247 2.247 0 0 0-1.3 2.036 2.245 2.245 0 0 0 2.242 2.242h2.3a2.251 2.251 0 0 0 2.11-1.5h2.232a4.5 4.5 0 0 0 4.5-4.5V23.4a3.2 3.2 0 0 0 1.89-2.914V16.9a3.2 3.2 0 0 0-1.9-2.919zm-25.3 1.792v5.844a.586.586 0 0 1-.585.585 1.715 1.715 0 0 1-1.713-1.713V16.9a1.715 1.715 0 0 1 1.713-1.713.586.586 0 0 1 .585.586zm17.216 13.285a.764.764 0 0 1-.744.6h-2.3a.76.76 0 0 1-.315-1.452.737.737 0 0 1 .315-.069h2.3a.763.763 0 0 1 .744.918zm8.5-8.57A1.715 1.715 0 0 1 28.2 22.2a.586.586 0 0 1-.585-.585v-5.842a.586.586 0 0 1 .585-.585 1.715 1.715 0 0 1 1.712 1.712z" style="fill:#333" transform="translate(40.098 2267.995)"/>
        <path data-name="패스 18852" d="M22.9 22.839a3.144 3.144 0 0 0 3.14-3.14V13.3a3.144 3.144 0 0 0-3.14-3.14h-9.6a3.144 3.144 0 0 0-3.14 3.14v6.4a3.144 3.144 0 0 0 3.14 3.14h.059v1.66a1.539 1.539 0 0 0 1.541 1.54 1.507 1.507 0 0 0 1.085-.458l2.758-2.743zm-4.985-1.267-2.985 2.969a.037.037 0 0 1-.051.012.05.05 0 0 1-.034-.056V22.1a.741.741 0 0 0-.741-.741h-.8a1.66 1.66 0 0 1-1.66-1.659v-6.4a1.66 1.66 0 0 1 1.656-1.658h9.6a1.661 1.661 0 0 1 1.657 1.658v6.4a1.66 1.66 0 0 1-1.657 1.656h-4.464a.742.742 0 0 0-.523.216z" transform="translate(37.9 2265.901)" style="fill:#333"/>
        <path data-name="패스 18853" d="M15.444 17.085a1.093 1.093 0 1 0 1.094 1.093 1.1 1.1 0 0 0-1.094-1.093z" transform="translate(36.956 2264.339)" style="fill:#333"/>
        <path data-name="패스 18854" d="M20.091 17.085a1.093 1.093 0 1 0 1.094 1.093 1.1 1.1 0 0 0-1.094-1.093z" transform="translate(35.908 2264.339)" style="fill:#333"/>
        <path data-name="패스 18855" d="M24.738 17.085a1.093 1.093 0 1 0 1.094 1.093 1.1 1.1 0 0 0-1.094-1.093z" transform="translate(34.861 2264.339)" style="fill:#333"/>
    </g>
</svg>
