<svg xmlns="http://www.w3.org/2000/svg" width="60.5" height="60" viewBox="0 0 60.5 60">
    <g data-name="1">
        <g data-name="사각형 1641" style="stroke:#333;fill:#fff" transform="translate(10 10)">
            <rect width="42" height="42" rx="10" style="stroke:none"/>
            <rect x=".5" y=".5" width="41" height="41" rx="9.5" style="fill:none"/>
        </g>
        <path data-name="합치기 7" d="M7.385 24v-7.385H0V7.383h7.385V0h9.234v7.383H24v9.233h-7.381V24z" transform="translate(19 19)" style="fill:#deecfb"/>
        <g data-name="그룹 12930" transform="translate(43.057 32.895)">
            <circle data-name="타원 30" cx="10.5" cy="10.5" r="10.5" transform="translate(-4.057 1.105)" style="stroke-miterlimit:10;stroke:#333;fill:#fff"/>
            <path data-name="패스 5479" d="m11.43 15.307 2.17 6.564a.49.49 0 0 0 .962-.049l1.569-6.363a.492.492 0 0 1 .973-.011l1.673 6.333a.49.49 0 0 0 .966.018l1.913-6.492" transform="translate(-10.08 -6.549)" style="stroke-linejoin:round;stroke-linecap:round;fill:none;stroke-miterlimit:10;stroke:#333"/>
            <path data-name="선 83" transform="translate(.184 11.336)" style="stroke-linecap:round;fill:none;stroke-miterlimit:10;stroke:#333" d="M0 0h12.52"/>
        </g>
    </g>
</svg>
