<svg xmlns="http://www.w3.org/2000/svg" width="32.005" height="34.055" viewBox="0 0 32.005 34.055">
    <g transform="translate(-1 1.06)">
        <path data-name="패스 6572" d="M30.46 8.57H15.92a2.544 2.544 0 0 1-2.25-1.36l-.48-.91a2.544 2.544 0 0 0-2.25-1.36h-7.4A2.54 2.54 0 0 0 1 7.48v22.55A2.965 2.965 0 0 0 3.965 33h26.5A2.54 2.54 0 0 0 33 30.455v-19.35a2.536 2.536 0 0 0-2.54-2.535z" style="fill:#f8b517"/>
        <path data-name="패스 18082" d="M2 0h21a2 2 0 0 1 2 2v30a2 2 0 0 1-2 2H2a2 2 0 0 1-2-2V2a2 2 0 0 1 2-2z" transform="translate(5 -1.06)" style="fill:#fff"/>
        <path data-name="패스 6573" d="M12.88 19.07a2.965 2.965 0 0 0-2.965 2.965V37.1a2.965 2.965 0 0 1-2.965 2.96h26.065a2.965 2.965 0 0 0 2.965-2.96V19.07z" transform="translate(-2.975 -7.065)" style="fill:#fbd303"/>
        <circle data-name="타원 806" cx="7.305" cy="7.305" r="7.305" transform="translate(11.73 15.2)" style="fill:#fcfcfd"/>
        <path data-name="패스 6574" d="M35.2 32.41h-3.17v-3.17h-2.61v3.17h-3.17v2.608h3.17v3.17h2.608v-3.17H35.2z" transform="translate(-11.688 -11.209)" style="fill:#53bba5"/>
        <path data-name="선 159" transform="translate(9.5 4.44)" style="fill:none;stroke:#ddd;stroke-linecap:round;stroke-width:2px" d="M0 0h16"/>
        <path data-name="선 160" transform="translate(9.5 8.44)" style="fill:none;stroke:#ddd;stroke-linecap:round;stroke-width:2px" d="M0 0h16"/>
    </g>
</svg>
