<svg xmlns="http://www.w3.org/2000/svg" width="40" height="40" viewBox="0 0 40 40">
    <g data-name="그룹 13466">
        <g data-name="News - 192x192">
            <path data-name="패스 6099" d="M3 4v22.5a3.215 3.215 0 0 0 3.215 3.215h22.5a3.215 3.215 0 0 0 3.218-3.215V10.429H25.5" transform="translate(1.128 3)" style="stroke:#292929;stroke-linecap:round;stroke-linejoin:round;fill:none"/>
            <path data-name="패스 6100" d="M3 4h22.5v22.5a3.215 3.215 0 0 0 3.215 3.215h0" transform="translate(1.128 3)" style="stroke:#292929;stroke-linecap:round;stroke-linejoin:round;fill:none"/>
            <path data-name="패스 6101" d="M16.644 8H7" transform="translate(3.557 5.429)" style="stroke:#292929;stroke-linecap:round;stroke-linejoin:round;fill:none"/>
            <path data-name="패스 6102" d="M15.429 12H9" transform="translate(1.772 7.859)" style="stroke:#292929;stroke-linecap:round;stroke-linejoin:round;fill:none"/>
        </g>
        <g data-name="그룹 13465">
            <path data-name="패스 6068" d="M10.424 14.7 9 20.4l5.694-1.424 10.04-10.043a2.847 2.847 0 0 0 0-4.027l-.244-.244a2.847 2.847 0 0 0-4.027 0z" transform="translate(10.56 8.887)" style="fill:#deecfb;stroke:#292929;stroke-linecap:round;stroke-linejoin:round"/>
            <path data-name="패스 6069" d="m15 6 4.271 4.271" transform="translate(13.765 9.807)" style="stroke:#292929;stroke-linecap:round;stroke-linejoin:round;fill:none"/>
        </g>
    </g>
</svg>
