<svg xmlns="http://www.w3.org/2000/svg" width="40" height="40" viewBox="0 0 40 40">
    <g data-name="그룹 13966">
        <g data-name="Profile Circle - 192x192" transform="translate(2.445 5)">
            <path data-name="패스 5583" d="M29 16A13 13 0 1 1 16 3a12.94 12.94 0 0 1 13 13z" transform="translate(-1.445 -3)" style="stroke:#292929;fill:none"/>
            <circle data-name="타원 723" cx="4.5" cy="4.5" r="4.5" transform="translate(10.055 5)" style="stroke:#292929;fill:none"/>
            <path data-name="패스 9231" d="M708.247 6946.147s1.154-3.522 4.735-3.522H725s2.308-.237 4.587 2.9" transform="translate(-704.192 -6925)" style="stroke:#292929;fill:none"/>
        </g>
        <path data-name="Search - 192x192" d="m17 17-3.378-3.378m0 0a6.222 6.222 0 1 0-4.4 1.822 6.2 6.2 0 0 0 4.4-1.822z" transform="translate(18 18)" style="fill:#deecfb;stroke-linecap:round;stroke-linejoin:round;stroke:#292929"/>
    </g>
</svg>
