<svg xmlns="http://www.w3.org/2000/svg" width="40" height="40" viewBox="0 0 40 40">
    <g data-name="그룹 13459">
        <g data-name="News - 192x192">
            <path data-name="패스 6099" d="M3 4v22.5a3.215 3.215 0 0 0 3.215 3.215h22.5a3.215 3.215 0 0 0 3.218-3.215V10.429H25.5" transform="translate(0 1)" style="stroke:#292929;stroke-linecap:round;stroke-linejoin:round;fill:none"/>
            <path data-name="패스 6100" d="M3 4h22.5v22.5a3.215 3.215 0 0 0 3.215 3.215h0" transform="translate(0 1)" style="stroke:#292929;stroke-linecap:round;stroke-linejoin:round;fill:none"/>
            <path data-name="패스 6101" d="M16.644 8H7" transform="translate(2.429 3.429)" style="stroke:#292929;stroke-linecap:round;stroke-linejoin:round;fill:none"/>
            <path data-name="패스 6102" d="M15.429 12H9" transform="translate(3.644 5.859)" style="stroke:#292929;stroke-linecap:round;stroke-linejoin:round;fill:none"/>
        </g>
        <path data-name="Search - 192x192" d="m21 21-4.343-4.343m0 0A8 8 0 1 0 11 19a7.975 7.975 0 0 0 5.657-2.343z" transform="translate(16 16)" style="fill:#deecfb;stroke:#292929;stroke-linecap:round;stroke-linejoin:round"/>
    </g>
</svg>
