<svg xmlns="http://www.w3.org/2000/svg" width="40" height="40" viewBox="0 0 40 40">
    <g data-name="그룹 13955">
        <g data-name="Profile Circle - 192x192" transform="translate(2.445 6)">
            <path data-name="패스 5583" d="M29 16A13 13 0 1 1 16 3a12.94 12.94 0 0 1 13 13z" transform="translate(-1.445 -3)" style="stroke:#292929;fill:none"/>
            <circle data-name="타원 723" cx="4.5" cy="4.5" r="4.5" transform="translate(10.055 5)" style="stroke:#292929;fill:none"/>
            <path data-name="패스 9231" d="M708.247 6946.147s1.154-3.522 4.735-3.522H725s2.308-.237 4.587 2.9" transform="translate(-704.192 -6925)" style="stroke:#292929;fill:none"/>
        </g>
        <g data-name="Comment Dots - 192x192" transform="translate(18 18)">
            <path data-name="패스 5570" d="M11 3a8 8 0 1 1-7.111 4.331L3 3l4.331.889A7.967 7.967 0 0 1 11 3z" style="stroke-linejoin:round;fill:#deecfb;stroke-linecap:round;stroke:#292929"/>
            <path data-name="사각형 3270" transform="translate(7 11)" style="stroke-width:2px;stroke-linejoin:round;stroke:#292929;fill:none" d="M0 0h.009v.009H0z"/>
            <rect data-name="사각형 3271" transform="translate(11 11)" style="stroke-width:2px;stroke-linejoin:round;stroke:#292929;fill:none"/>
            <path data-name="사각형 3272" transform="translate(15 11)" style="stroke-width:2px;stroke-linejoin:round;stroke:#292929;fill:none" d="M0 0h.009v.009H0z"/>
        </g>
    </g>
</svg>
