<svg xmlns="http://www.w3.org/2000/svg" width="40" height="40" viewBox="0 0 40 40">
    <g data-name="News - 192x192">
        <g data-name="그룹 13486">
            <path data-name="패스 6099" d="M3 6v20.5a3.215 3.215 0 0 0 3.215 3.215h22.5a3.215 3.215 0 0 0 3.218-3.215V10.429H25.5" transform="translate(1.128 1)" style="stroke-linejoin:round;stroke-linecap:round;stroke:#292929;fill:none"/>
            <path data-name="패스 6100" d="M3 6h22.5v20.5a3.215 3.215 0 0 0 3.215 3.215h0" transform="translate(1.128 1)" style="stroke-linejoin:round;stroke-linecap:round;stroke:#292929;fill:none"/>
            <path data-name="패스 9236" d="M9 13h4" transform="translate(-.871 .742)" style="stroke-linecap:round;stroke:#292929;fill:none"/>
            <path data-name="패스 9237" d="M14 13h4" transform="translate(4.415 .742)" style="stroke-linecap:round;stroke:#292929;fill:none"/>
            <path data-name="패스 9238" d="M9 13h4" transform="rotate(90 10.194 12.936)" style="stroke-linecap:round;stroke:#292929;fill:none"/>
            <path data-name="패스 9239" d="M9 13h4" transform="rotate(45 -1.195 16.82)" style="stroke-linecap:round;stroke:#292929;fill:none"/>
            <path data-name="패스 9240" d="M9 13h4" transform="rotate(135 8.547 17.69)" style="stroke-linecap:round;stroke:#292929;fill:none"/>
            <path data-name="패스 9241" d="M14 13h4" transform="translate(4.415 9.742)" style="stroke-linecap:round;stroke:#292929;fill:none"/>
            <path data-name="사각형 3872" transform="translate(20.415 21)" style="stroke-linejoin:round;stroke:#292929;fill:none" d="M0 0h.01v.01H0z"/>
            <path data-name="사각형 3873" transform="rotate(30 -35.462 50.338)" style="stroke-linejoin:round;stroke:#292929;fill:none" d="M0 0h.01v.01H0z"/>
        </g>
        <g data-name="그룹 13487">
            <g data-name="Sign - Division Circle - 192x192" transform="translate(16 15.001)">
                <circle data-name="타원 152" cx="9" cy="9" r="9" transform="translate(3 2.999)" style="fill:#deecfb;stroke-linejoin:round;stroke-linecap:round;stroke:#292929"/>
            </g>
            <g data-name="Playlist - Repeat List - 192x192">
                <path data-name="패스 5886" d="m12.823 5 .97.97m0 0-.97.97m.97-.97H7" transform="translate(18.574 18.604)" style="stroke-linejoin:round;stroke-linecap:round;stroke:#292929;fill:none"/>
                <path data-name="패스 5887" d="M3.97 16.941 3 15.97m0 0 .97-.97m-.97.97h6.793" transform="translate(20.633 13.456)" style="stroke-linejoin:round;stroke-linecap:round;stroke:#292929;fill:none"/>
                <path data-name="패스 5888" d="M3 8.941A1.941 1.941 0 0 1 4.941 7" transform="translate(20.633 17.574)" style="stroke-linecap:round;stroke:#292929;fill:none"/>
                <path data-name="패스 5889" d="M18.941 13A1.941 1.941 0 0 1 17 14.941" transform="translate(13.426 14.486)" style="stroke-linecap:round;stroke:#292929;fill:none"/>
            </g>
        </g>
    </g>
</svg>
