<svg xmlns="http://www.w3.org/2000/svg" width="40" height="40" viewBox="0 0 40 40">
    <g data-name="그룹 13489">
        <g data-name="그룹 13488">
            <g data-name="합치기 14" style="fill:#fff">
                <path d="M-766-4908.53h-14c-1.93 0-3.5-1.57-3.5-3.5v-6.968h-1.145a410.277 410.277 0 0 0-1.5.003 3.244 3.244 0 0 1 .135-4.422l10.57-9.697.007-.008.008-.007a3.218 3.218 0 0 1 2.29-.95c.866 0 1.68.338 2.291.95l.008.007.008.008 10.568 9.697c.608.61.943 1.421.943 2.283 0 .803-.29 1.56-.821 2.155-.224.004-.729.01-1.864.012h-.498v6.937c0 1.93-1.57 3.5-3.5 3.5z" style="stroke:none" transform="translate(791 4939.029)"/>
                <path d="M-766-4909.03c1.654 0 3-1.345 3-3v-7.435l.997-.002c.854-.002 1.345-.006 1.627-.01.362-.473.559-1.05.559-1.657 0-.725-.28-1.407-.79-1.923l-10.59-9.719a2.72 2.72 0 0 0-1.938-.802 2.72 2.72 0 0 0-1.937.802l-.03.03-10.56 9.689a2.744 2.744 0 0 0-.246 3.56h.003a411.8 411.8 0 0 1 1.26-.001H-783v7.468c0 1.655 1.346 3 3 3h14m0 1h-14a4 4 0 0 1-4-4v-6.468c-1.464 0-2.36 0-2.356.008a3.74 3.74 0 0 1 0-5.288l10.577-9.705a3.74 3.74 0 0 1 5.289 0l10.576 9.705a3.738 3.738 0 0 1 0 5.288c.013.012-.776.02-2.086.023v6.437a4 4 0 0 1-4 4z" style="fill:#292929;stroke:none" transform="translate(791 4939.029)"/>
            </g>
            <g data-name="그룹 13483">
                <g data-name="사각형 3869" transform="translate(17 14)" style="stroke:#292929;fill:#deecfb">
                    <rect width="20" height="20" rx="4" style="stroke:none"/>
                    <rect x=".5" y=".5" width="19" height="19" rx="3.5" style="fill:none"/>
                </g>
                <path data-name="패스 5783" d="M9 13h4" transform="translate(12.129 6.742)" style="stroke-linecap:round;fill:none;stroke:#292929"/>
                <path data-name="패스 5784" d="M14 13h4" transform="translate(15.415 6.742)" style="stroke-linecap:round;fill:none;stroke:#292929"/>
                <path data-name="패스 9232" d="M9 13h4" transform="rotate(90 13.693 22.436)" style="stroke-linecap:round;fill:none;stroke:#292929"/>
                <path data-name="패스 9233" d="M9 13h4" transform="rotate(45 -.73 35.012)" style="stroke-linecap:round;fill:none;stroke:#292929"/>
                <path data-name="패스 9234" d="M9 13h4" transform="rotate(135 14.011 22.883)" style="stroke-linecap:round;fill:none;stroke:#292929"/>
                <path data-name="패스 9235" d="M14 13h4" transform="translate(15.415 14.742)" style="stroke-linecap:round;fill:none;stroke:#292929"/>
                <path data-name="사각형 3870" transform="translate(31.415 26)" style="stroke-linejoin:round;fill:none;stroke:#292929" d="M0 0h.01v.01H0z"/>
                <path data-name="사각형 3871" transform="rotate(30 -39.292 73.364)" style="stroke-linejoin:round;fill:none;stroke:#292929" d="M0 0h.01v.01H0z"/>
            </g>
        </g>
    </g>
</svg>
