<svg xmlns="http://www.w3.org/2000/svg" width="40" height="40" viewBox="0 0 40 40">
    <g data-name="그룹 13933">
        <g data-name="News - 192x192">
            <path data-name="패스 6099" d="M3 4v22.5a3.215 3.215 0 0 0 3.215 3.215h22.5a3.215 3.215 0 0 0 3.218-3.215V10.429H25.5" transform="translate(0 1)" style="stroke-linejoin:round;stroke:#292929;stroke-linecap:round;fill:none"/>
            <path data-name="패스 6100" d="M3 4h22.5v22.5a3.215 3.215 0 0 0 3.215 3.215h0" transform="translate(0 1)" style="stroke-linejoin:round;stroke:#292929;stroke-linecap:round;fill:none"/>
            <path data-name="패스 6101" d="M16.644 8H7" transform="translate(2.429 3.429)" style="stroke-linejoin:round;stroke:#292929;stroke-linecap:round;fill:none"/>
            <path data-name="패스 6102" d="M15.429 12H9" transform="translate(3.644 5.859)" style="stroke-linejoin:round;stroke:#292929;stroke-linecap:round;fill:none"/>
        </g>
        <g data-name="그룹 13934">
            <g data-name="Sign - Division Circle - 192x192" transform="translate(16 16.001)">
                <circle data-name="타원 152" cx="9" cy="9" r="9" transform="translate(3 2.999)" style="fill:#deecfb;stroke-linejoin:round;stroke:#292929;stroke-linecap:round"/>
            </g>
            <g data-name="Playlist - Repeat List - 192x192">
                <path data-name="패스 5886" d="m12.823 5 .97.97m0 0-.97.97m.97-.97H7" transform="translate(18.574 19.604)" style="stroke-linejoin:round;stroke:#292929;stroke-linecap:round;fill:none"/>
                <path data-name="패스 5887" d="M3.97 16.941 3 15.97m0 0 .97-.97m-.97.97h6.793" transform="translate(20.633 14.456)" style="stroke-linejoin:round;stroke:#292929;stroke-linecap:round;fill:none"/>
                <path data-name="패스 5888" d="M3 8.941A1.941 1.941 0 0 1 4.941 7" transform="translate(20.633 18.574)" style="stroke:#292929;stroke-linecap:round;fill:none"/>
                <path data-name="패스 5889" d="M18.941 13A1.941 1.941 0 0 1 17 14.941" transform="translate(13.426 15.486)" style="stroke:#292929;stroke-linecap:round;fill:none"/>
            </g>
        </g>
    </g>
</svg>
