<svg xmlns="http://www.w3.org/2000/svg" width="40" height="40" viewBox="0 0 40 40">
    <defs>
        <clipPath id="205v4tu3na">
            <path data-name="사각형 10598" transform="translate(159 458)" style="fill:#fff" d="M0 0h40v40H0z"/>
        </clipPath>
    </defs>
    <g data-name="마스크 그룹 13824" transform="translate(-159 -458)" style="clip-path:url(#205v4tu3na)">
        <g data-name="그룹 13111">
            <g data-name="그룹 13106">
                <g data-name="그룹 13102">
                    <path data-name="패스 190" d="M181.477 494.746c-7.518 0-14.619 0-14.619-9.035 0-6.97 5.2-13.656 10.236-16.093a.174.174 0 0 1 .073-.017h8.475a.173.173 0 0 1 .073.017c5.1 2.471 10.38 9.166 10.38 16.093.001 9.035-7.1 9.035-14.618 9.035zm-4.271-24.808c-4.928 2.405-10.012 8.951-10.012 15.773 0 8.7 6.619 8.7 14.283 8.7s14.282 0 14.282-8.7c0-6.779-5.157-13.334-10.155-15.773z"/>
                    <path data-name="패스 191" d="M185.347 469.807a.168.168 0 0 1-.168-.168v-1.734a.17.17 0 0 1 .046-.115l2.7-2.859a1.021 1.021 0 0 0-.136-1.138 1.214 1.214 0 0 0-1.3-.373l-1.949.6a2.993 2.993 0 0 1-2.78-.552l-.64-.538a5.439 5.439 0 0 0-6.475-.353l-.718.476a.445.445 0 0 0-.155.593l3.687 4.151a.167.167 0 0 1 .042.112v1.734a.168.168 0 0 1-.336 0v-1.67l-3.656-4.115a.171.171 0 0 1-.019-.025.777.777 0 0 1 .25-1.058l.718-.477a5.777 5.777 0 0 1 6.877.376l.64.538a2.652 2.652 0 0 0 2.465.488l1.949-.6a1.55 1.55 0 0 1 1.655.479 1.366 1.366 0 0 1 .165 1.53.168.168 0 0 1-.027.037l-2.667 2.828v1.667a.168.168 0 0 1-.168.166z"/>
                </g>
                <path data-name="패스 192" d="M185.346 468.073h-8.015a.168.168 0 1 1 0-.336h8.014a.168.168 0 0 1 0 .336z"/>
                <g data-name="그룹 13105">
                    <g data-name="그룹 13103">
                        <path data-name="패스 193" d="M1057.552 2403.976h-8.475c-4.918 2.381-10.141 9-10.141 15.941 0 8.688 6.47 8.866 14.451 8.866s14.451-.178 14.451-8.866c-.001-6.942-5.368-13.56-10.286-15.941z" transform="translate(-871.91 -1934.207)" style="fill:#fff"/>
                        <path data-name="패스 194" d="M1050.891 2426.792c-4.453 0-7.806-.087-10.419-1.216-3.053-1.32-4.537-3.987-4.537-8.154 0-7.1 5.3-13.914 10.426-16.4a.5.5 0 0 1 .22-.05h8.475a.5.5 0 0 1 .22.05c5.2 2.516 10.57 9.337 10.57 16.4 0 4.167-1.484 6.834-4.537 8.154-2.609 1.13-5.965 1.216-10.418 1.216zm-4.193-24.807c-4.813 2.387-9.753 8.778-9.753 15.437 0 3.773 1.248 6.069 3.928 7.228 2.623 1.134 6.552 1.134 10.018 1.134s7.4 0 10.018-1.134c2.68-1.159 3.928-3.455 3.928-7.228 0-6.617-5.014-13.017-9.9-15.437z" transform="translate(-869.414 -1931.711)" style="fill:#1e1e1e"/>
                    </g>
                    <g data-name="그룹 13104">
                        <path data-name="패스 195" d="M1081.5 2362.976v-1.734l-3.7-4.164a.613.613 0 0 1 .2-.832l.718-.476a5.631 5.631 0 0 1 6.676.365l.64.538a2.811 2.811 0 0 0 2.622.52l1.949-.6a1.3 1.3 0 0 1 1.622 1.77l-2.713 2.877v1.734" transform="translate(-904.168 -1893.338)" style="fill:#fff"/>
                        <path data-name="패스 196" d="M1087.027 2360.961a.5.5 0 0 1-.5-.5v-1.734a.5.5 0 0 1 .138-.346l2.66-2.82a.692.692 0 0 0-.113-.732.868.868 0 0 0-.94-.266l-1.95.6a3.329 3.329 0 0 1-3.095-.616l-.64-.538a5.1 5.1 0 0 0-6.072-.33l-.718.476a.116.116 0 0 0-.057.126l3.655 4.114a.5.5 0 0 1 .127.335v1.734a.5.5 0 0 1-1.009 0v-1.543l-3.571-4.02a.5.5 0 0 1-.055-.075 1.121 1.121 0 0 1 .352-1.511l.718-.477a6.116 6.116 0 0 1 7.279.4l.64.538a2.312 2.312 0 0 0 2.149.424l1.95-.6a1.886 1.886 0 0 1 2.013.586 1.7 1.7 0 0 1 .2 1.9.5.5 0 0 1-.08.112l-2.576 2.73v1.534a.5.5 0 0 1-.505.499z" transform="translate(-901.68 -1890.818)" style="fill:#1e1e1e"/>
                    </g>
                </g>
                <path data-name="패스 197" d="M185.346 468.073h-8.015a.168.168 0 1 1 0-.336h8.014a.168.168 0 0 1 0 .336z"/>
                <path data-name="패스 198" d="M187.569 480.063a.168.168 0 0 1-.167-.151c-.543-5.467-4.907-9.712-4.951-9.755a.168.168 0 0 1 .233-.242c.045.043 4.5 4.371 5.053 9.963a.168.168 0 0 1-.151.184z"/>
                <path data-name="패스 199" d="M177.842 476.599h-.018a.168.168 0 0 1-.15-.185 19.961 19.961 0 0 1 2.244-6.194.168.168 0 1 1 .293.165 20.047 20.047 0 0 0-2.2 6.064.168.168 0 0 1-.169.15z"/>
            </g>
            <g data-name="그룹 13109">
                <g data-name="그룹 13108">
                    <g data-name="그룹 13107">
                        <path data-name="패스 200" d="M1022 2486.376a8.454 8.454 0 1 1-8.454-8.453 8.453 8.453 0 0 1 8.454 8.453z" transform="translate(-843.666 -1999.453)" style="fill:#deecfb"/>
                        <path data-name="패스 201" d="M1011.978 2493.687a8.882 8.882 0 1 1 8.883-8.883 8.893 8.893 0 0 1-8.883 8.883zm0-16.907a8.025 8.025 0 1 0 8.022 8.02 8.034 8.034 0 0 0-8.022-8.021z" transform="translate(-842.095 -1997.881)" style="fill:#1e1e1e"/>
                    </g>
                </g>
                <path data-name="패스 202" d="M1038.371 2512.488h-.931l.528-1.608a.412.412 0 1 0-.783-.257l-.612 1.865h-1.3l-.669-1.875a.389.389 0 0 0-.393-.273.411.411 0 0 0-.386.281l-.622 1.867h-1.352l-.69-1.878a.412.412 0 1 0-.774.284l.586 1.594h-.986a.412.412 0 0 0 0 .824h1.288l.916 2.493a.412.412 0 0 0 .387.27h.006a.411.411 0 0 0 .385-.282l.827-2.48h.9l.889 2.489a.391.391 0 0 0 .394.273.412.412 0 0 0 .386-.283l.813-2.479h1.2a.412.412 0 1 0 0-.824zm-5.816 1.928-.406-1.1h.774zm1.512-1.928.158-.474.169.474zm1.882 1.9-.385-1.079h.739z" transform="translate(-864.315 -2025.805)" style="fill:#1e1e1e"/>
            </g>
        </g>
    </g>
</svg>
