<svg data-name="그룹 73800" xmlns="http://www.w3.org/2000/svg" width="54" height="54" viewBox="0 0 54 54">
    <defs>
        <clipPath id="jglh2cfyda">
            <path data-name="사각형 14318" style="fill:none" d="M0 0h54v54H0z"/>
        </clipPath>
    </defs>
    <g data-name="그룹 73799" style="clip-path:url(#jglh2cfyda)">
        <path data-name="패스 24130" d="M54 27a26.934 26.934 0 0 1-9.069 20.178c-.035.035-.075.064-.11.1-.22.2-.452.388-.678.579-.434.365-.88.712-1.344 1.037-.568.417-1.153.805-1.755 1.17-.475.29-.956.568-1.448.828a9.292 9.292 0 0 1-.423.214c-.214.1-.423.214-.637.313a27.044 27.044 0 0 1-15.926 2.222 26.047 26.047 0 0 1-3.012-.666 26.818 26.818 0 0 1-8.606-4.228c-.1-.069-.2-.139-.29-.214a28.834 28.834 0 0 1-1.83-1.523 26.639 26.639 0 0 1-2.763-2.9c-.122-.151-.243-.3-.365-.458a10.15 10.15 0 0 1-.434-.579.318.318 0 0 1-.041-.052A27 27 0 1 1 54 27" style="fill:#110828"/>
        <path data-name="패스 24131" d="M48.68 72.228c-.22.2-.452.388-.678.579-.434.365-.88.712-1.344 1.037-.568.417-1.153.805-1.755 1.17-.475.29-.956.568-1.448.828a9.292 9.292 0 0 1-.423.214c-.214.1-.423.214-.637.313a27.044 27.044 0 0 1-15.927 2.224 26.047 26.047 0 0 1-3.012-.666 26.818 26.818 0 0 1-8.605-4.227c-.1-.069-.2-.139-.29-.214a28.834 28.834 0 0 1-1.83-1.523 26.639 26.639 0 0 1-2.763-2.9c-.122-.151-.243-.3-.365-.458a10.15 10.15 0 0 1-.434-.579 21.439 21.439 0 0 1 9.116-7.367 18.046 18.046 0 0 1 4.361-1.135c.1-.012.18-.023.278-.029a5.06 5.06 0 0 1 .423-.046.052.052 0 0 1 .029-.006c.122-.006.237-.012.359-.023.185-.012.365-.023.527-.029.388-.035.788-.064 1.164-.075 10.766-.417 16.5 3.857 16.83 4.112a.2.2 0 0 1 .069.069c.11.116.365.4.747.834a52.534 52.534 0 0 1 5.606 7.894" transform="translate(-3.859 -24.952)" style="fill:#9364ed"/>
        <path data-name="패스 24132" d="M34.515 27.592a7.049 7.049 0 0 0 3.243-1.817c1.034-1.271 1.205-4.414 1.205-4.414s4 2.08 5.048 1.849 3.111-4.938 1.723-6.971-4.194.484-4.194.484A2.887 2.887 0 0 0 37.9 14.5a6.42 6.42 0 0 0-4.535 4.454s-.242-3.97-2.749-2.227-1.6 6.294-1.6 6.294-2.005.87-1.6 2.758 3.108 3.707 3.108 3.707z" transform="translate(-11.51 -6.057)" style="fill:#fff"/>
        <path data-name="패스 24133" d="m38.722 47.023-.522 5.986s.967 1.812 4.568 2.394c2.683.433 3.683-.079 3.683-.079l-.111-3.063-.112-2.987-6.428-1.927z" transform="translate(-16.075 -19.79)" style="fill:#fd8753"/>
        <path data-name="패스 24134" d="M23.725 27.558a1.917 1.917 0 0 0 .129.592c1.125 3.1 4.86 4.059 6.408 4.321l-.112-2.987z"/>
        <path data-name="패스 24135" d="M46.206 25.709s2.595 7.772.946 11.837-5.526 3.024-7.8 1.986a7.771 7.771 0 0 1-3.228-2.542 3.4 3.4 0 0 1-3.55-1.615c-1.269-2.124-.125-4.31 1.189-4.709a3.568 3.568 0 0 1 2.72.624l-.949-2.278s6.081-10.517 10.674-3.3" transform="translate(-13.476 -9.756)" style="fill:#fd8753"/>
        <path data-name="패스 24136" d="M22.513 24.798a.288.288 0 0 1-.184-.066l-2.622-2.168a.29.29 0 0 1 .369-.447l2.622 2.168a.29.29 0 0 1-.185.513"/>
        <path data-name="패스 24137" d="M27.329 19.25a.29.29 0 0 1-.21-.489 2.01 2.01 0 0 1 2.537-.418.29.29 0 0 1-.309.49 1.433 1.433 0 0 0-1.808.327.289.289 0 0 1-.21.09"/>
        <path data-name="패스 24138" d="M33.319 18.952a.285.285 0 0 1-.2-.079 1.231 1.231 0 0 0-1.316-.237.29.29 0 0 1-.243-.526 1.809 1.809 0 0 1 1.956.343.289.289 0 0 1-.2.5"/>
        <path data-name="패스 24139" d="M31.258 24.556a.29.29 0 0 1-.268-.4c.811-2-.115-2.716-.155-2.745a.29.29 0 0 1 .336-.471c.056.039 1.349.987.354 3.434a.289.289 0 0 1-.268.181"/>
        <path data-name="패스 24140" d="M33.039 21.822a.29.29 0 0 1-.284-.237l-.268-1.4a.29.29 0 0 1 .569-.109l.268 1.405a.29.29 0 0 1-.231.339.293.293 0 0 1-.054.005"/>
        <path data-name="패스 24141" d="M28.548 21.822a.29.29 0 0 1-.288-.237l-.264-1.4a.29.29 0 0 1 .569-.109l.268 1.405a.29.29 0 0 1-.231.339.293.293 0 0 1-.054.005"/>
        <path data-name="패스 24142" d="M30.027 26.814a2.4 2.4 0 0 1-2.21-1.464.29.29 0 1 1 .54-.207 1.83 1.83 0 0 0 1.671 1.092.271.271 0 0 1 .291.287.289.289 0 0 1-.286.292z"/>
        <path data-name="패스 24143" d="M37.517 30.27a4.708 4.708 0 0 0 3.243-2.348 8.368 8.368 0 0 0 .746-3.679 4.024 4.024 0 0 0 3.269 1.091 3.279 3.279 0 0 0 2.643-2.349l-1.9-2.227s-7.806 1.648-8 1.405-3.034 4.821-3.034 4.821z" transform="translate(-14.512 -8.735)" style="fill:#fff"/>
        <path data-name="패스 24144" d="M46.527 74.315A27.044 27.044 0 0 1 30.6 76.539a26.047 26.047 0 0 1-3.012-.666 26.818 26.818 0 0 1-8.606-4.228c1.077-6.5 2.212-11.838 3.093-12.44a6.446 6.446 0 0 1 .654-.376A12.721 12.721 0 0 1 26.68 57.8c.087-.012.162-.023.249-.029.127-.017.255-.029.382-.041s.237-.012.353-.023c.168-.012.33-.023.475-.029.643-.035 1.048-.029 1.048-.029a.242.242 0 0 1 .006-.041c.029-.371.284-3.266 1.071-3.2.834.069 2.861 1.465 5 1.639a22.426 22.426 0 0 0 3.724-.017c.434 0 .521 2.293.521 2.293a14.537 14.537 0 0 1 4.917 3.012.23.23 0 0 1 .064.064c.1.1.33.359.671.753a6.392 6.392 0 0 1 .678 1.042c.59 1.153.741 5.7.683 11.12" transform="translate(-7.989 -22.898)" style="fill:#9364ed"/>
        <path data-name="패스 24145" d="M39.95 61.4a.309.309 0 0 1-.045 0 12.075 12.075 0 0 1-3.652-1.345.29.29 0 1 1 .291-.5 11.7 11.7 0 0 0 3.45 1.274.29.29 0 0 1-.045.576" transform="translate(-15.196 -25.044)" style="fill:#fff"/>
        <path data-name="패스 24146" d="M19.971 24.745a.29.29 0 0 1-.137-.545l1.505-.8a.29.29 0 0 1 .273.511l-1.506.8a.288.288 0 0 1-.136.034"/>
        <path data-name="패스 24147" d="M47.676 37.7h-1.337a1.662 1.662 0 0 1-1.66-1.66v-1.383a.8.8 0 0 1 .8-.8h3.061a.8.8 0 0 1 .8.8v1.386a1.662 1.662 0 0 1-1.66 1.66m-2.2-3.264a.218.218 0 0 0-.217.218v1.386a1.082 1.082 0 0 0 1.081 1.081h1.336a1.082 1.082 0 0 0 1.081-1.081v-1.386a.218.218 0 0 0-.217-.218z" transform="translate(-18.803 -14.25)" style="fill:#e2209e"/>
        <path data-name="패스 24148" d="M57.022 37.823h-.91a1.548 1.548 0 0 1-1.545-1.546v-1.543a.755.755 0 0 1 .754-.754h2.492a.754.754 0 0 1 .753.754v1.543a1.547 1.547 0 0 1-1.545 1.546m-1.7-3.264a.175.175 0 0 0-.175.175v1.543a.967.967 0 0 0 .966.967h.91a.967.967 0 0 0 .965-.967v-1.543a.175.175 0 0 0-.174-.175z" transform="translate(-22.964 -14.3)" style="fill:#e2209e"/>
        <path data-name="패스 24149" d="M51.232 37.058a.289.289 0 0 1-.133-.547 3.049 3.049 0 0 1 2.341-.12.289.289 0 1 1-.218.536 2.5 2.5 0 0 0-1.86.1.285.285 0 0 1-.13.032" transform="translate(-21.439 -15.236)" style="fill:#e2209e"/>
        <path data-name="패스 24150" d="M35.561 35.653a.29.29 0 0 1-.108-.558 7.344 7.344 0 0 1 5.685.009.289.289 0 0 1-.256.519 6.9 6.9 0 0 0-5.214.009.294.294 0 0 1-.108.021" transform="translate(-14.844 -14.534)" style="fill:#e2209e"/>
    </g>
</svg>
