<svg data-name="그룹 73810" xmlns="http://www.w3.org/2000/svg" width="54" height="54" viewBox="0 0 54 54">
    <defs>
        <clipPath id="5pqep1rkda">
            <path data-name="사각형 14323" style="fill:none" d="M0 0h54v54H0z"/>
        </clipPath>
    </defs>
    <g data-name="그룹 73810" style="clip-path:url(#5pqep1rkda)">
        <path data-name="패스 24211" d="M54 27a27.673 27.673 0 0 1-.284 3.944c-.064.429-.139.846-.214 1.263a8.201 8.201 0 0 1-.081.371c-.081.423-.18.834-.3 1.245a26.64 26.64 0 0 1-2.577 6.4 27.672 27.672 0 0 1-1 1.639 25.423 25.423 0 0 1-1.778 2.38c-.052.069-.1.133-.162.2-.3.359-.614.707-.932 1.048a26.888 26.888 0 0 1-4.445 3.81 25.927 25.927 0 0 1-3.637 2.085c-.069.041-.145.069-.214.1a1.08 1.08 0 0 1-.116.058 24.748 24.748 0 0 1-2.432.973c-.226.081-.463.156-.695.232a25.414 25.414 0 0 1-2.67.695c-.324.069-.654.127-.984.185A27.146 27.146 0 0 1 27 54a26.84 26.84 0 0 1-13.562-3.649c-.521-.3-1.025-.614-1.517-.944-.151-.11-.3-.214-.452-.319-.064-.046-.133-.093-.2-.139-.278-.2-.55-.405-.817-.614-.069-.052-.139-.1-.2-.162a9.596 9.596 0 0 1-.307-.243.614.614 0 0 1-.069-.058 26.994 26.994 0 0 1-2.322-2.137c-.226-.243-.457-.486-.678-.736q-.86-.964-1.633-2.01A27 27 0 1 1 54 27" style="fill:#110828"/>
        <path data-name="패스 24212" d="m20.092 60.51-.192 1.025-2.484 13.338c-.151-.11-.3-.214-.452-.319-.064-.046-.133-.093-.2-.139-.278-.2-.55-.405-.817-.614-.069-.052-.139-.1-.2-.162a9.596 9.596 0 0 1-.307-.243.612.612 0 0 1-.069-.058A26.994 26.994 0 0 1 13.05 71.2a49.663 49.663 0 0 1 7.024-10.668.08.08 0 0 1 .017-.023" transform="translate(-5.493 -25.466)" style="fill:#e2209e"/>
        <path data-name="패스 24213" d="M63.441 39.454a26.64 26.64 0 0 1-2.577 6.4 27.672 27.672 0 0 1-1 1.639 26.294 26.294 0 0 1-1.94 2.577c-.3.359-.614.707-.932 1.048a26.888 26.888 0 0 1-4.447 3.811 25.991 25.991 0 0 1-3.851 2.189 37.796 37.796 0 0 1-2.571-.683 54.773 54.773 0 0 1-3.029-1.031 64.788 64.788 0 0 1-4.216-1.749 81.334 81.334 0 0 1-12.045-6.863 20.906 20.906 0 0 1-.973-2.45 26.492 26.492 0 0 1-.753-2.71 5.767 5.767 0 0 1-.064-.313.241.241 0 0 0-.012-.035c-.041-.2-.081-.4-.116-.608a22.9 22.9 0 0 1-.318-6.243c.191-2.131 1.616-4.929 3.046-8.027a84.56 84.56 0 0 0 1.274-2.942c.266-.66.515-1.332.741-2.01A19.907 19.907 0 0 0 30.6 17.5a8.831 8.831 0 0 0 .087-.938 12.212 12.212 0 0 0-.029-1.842 8.89 8.89 0 0 1 9.81.307 6.834 6.834 0 0 1 2.572 3.033 13.021 13.021 0 0 1 .764 3.51c.208 1.662.463 3.116 2.125 3.961 3.776 1.94 7.389 4.222 7.239 8.1s2 8.409 5.073 6.266a5.873 5.873 0 0 1 5.2-.44" transform="translate(-10.316 -5.632)" style="fill:#5e1dbb"/>
        <path data-name="패스 24214" d="M43.283 74.451c-.226.081-.463.156-.695.232a25.416 25.416 0 0 1-2.67.695c-.324.069-.654.127-.984.185a27.146 27.146 0 0 1-4.476.371 26.84 26.84 0 0 1-13.562-3.649c-.521-.3-1.025-.614-1.517-.944-.151-.11-.3-.214-.452-.319-.064-.046-.133-.093-.2-.139-.278-.2-.55-.405-.817-.614-.069-.052-.139-.1-.2-.162 0-.017.006-.035.006-.052.012-.075.029-.156.041-.237.156-.927.336-1.836.533-2.728.006-.041.017-.075.023-.11A30.262 30.262 0 0 1 20.669 60a14.21 14.21 0 0 1 .759-1.344c.139-.232.284-.446.434-.654.1-.145.2-.284.307-.417.058-.075.122-.156.185-.232a9.086 9.086 0 0 1 .932-1c.417-.394.834-.741 1.257-1.071.029-.012.046-.017.052-.029a14.965 14.965 0 0 1 4.048-2.23 16.244 16.244 0 0 1 8.316-.649c.145.023.284.046.417.081a20.3 20.3 0 0 1 2.6.678 17.393 17.393 0 0 1 3.052 1.3c.012.006.232 18.3.232 18.3z" transform="translate(-7.454 -21.934)" style="fill:#e2209e"/>
        <path data-name="패스 24215" d="M74.067 41.609c-.081.423-.18.834-.3 1.245a26.64 26.64 0 0 1-2.577 6.4 27.672 27.672 0 0 1-1 1.639 86.888 86.888 0 0 1-4.413-2.293c-3.66-2-6.845-3.985-6.845-3.985l-1.216-2.421-4.754-9.5-1.21-2.415-.376-.764-1.123-2.236-.22-.44-.116-.232-.869-1.732.776-.608c.006 0 .753-.6.753-.6l2.793-2.207a9.05 9.05 0 0 0 .764 3.51 4.392 4.392 0 0 0 2.843 2.554c2.907.8 5.478.985 7.146 4.755 1.633 3.695-.55 6.336 2.548 8.369 2.785 1.83 3.961-.2 7.395.961" transform="translate(-20.646 -9.031)" style="fill:#5e1dbb"/>
        <path data-name="패스 24216" d="m44.446 42.681.454 6.349s-1.015 1.907-4.707 2.474c-2.751.422-3.728-.936-3.728-.936l.273-5.6 6.6-1.954z" transform="translate(-15.348 -17.962)" style="fill:#fd8753"/>
        <path data-name="패스 24217" d="M27.99 25.048a2.092 2.092 0 0 1-.141.626c-1.194 3.273-5.029 4.234-6.617 4.491l.157-3.163z"/>
        <path data-name="패스 24218" d="M31.511 19.9s-2.763 8.2-1.134 12.527 5.61 3.279 7.954 2.211a8.03 8.03 0 0 0 3.337-2.649 3.422 3.422 0 0 0 3.654-1.663c1.328-2.233.188-4.564-1.149-5.005a3.56 3.56 0 0 0-2.791.624l1-2.4S36.311 12.321 31.511 19.9" transform="translate(-12.569 -7.269)" style="fill:#fd8753"/>
        <path data-name="패스 24219" d="M41.766 25.272s-3.327 1.013-6.049-2.536-2.655-5.12-2.655-5.12l-1.972 4.125s-.786-2.652.128-4.48 2.071-1.579 2.071-1.579l7.661 1.146 2.55 5.807z" transform="translate(-12.954 -6.595)" style="fill:#5e1dbb"/>
        <path data-name="패스 24220" d="M21.644 24.738a1.35 1.35 0 0 1-.192-.012.29.29 0 0 1 .086-.573 2.07 2.07 0 0 0 1.86-1.058.29.29 0 0 1 .475.332 2.73 2.73 0 0 1-2.229 1.311"/>
        <path data-name="패스 24221" d="M20.155 22.672a.29.29 0 0 1-.268-.178 4.537 4.537 0 0 1 .395-3.577.29.29 0 0 1 .5.288 4.017 4.017 0 0 0-.363 3.067.29.29 0 0 1-.157.379.286.286 0 0 1-.111.022"/>
        <path data-name="패스 24222" d="M21.867 18.865a.289.289 0 0 1-.231-.463 1.742 1.742 0 0 1 1.206-.681 1.436 1.436 0 0 1 1.107.617.29.29 0 0 1-.455.359.857.857 0 0 0-.64-.4 1.149 1.149 0 0 0-.757.451.289.289 0 0 1-.23.114"/>
        <path data-name="패스 24223" d="M19.259 18.867a.289.289 0 0 1-.269-.183c-.042-.1-.21-.411-.423-.45-.192-.035-.422.159-.578.329a.29.29 0 1 1-.427-.388 1.228 1.228 0 0 1 1.112-.507 1.322 1.322 0 0 1 .855.807.291.291 0 0 1-.164.375.3.3 0 0 1-.106.02"/>
        <path data-name="패스 24224" d="M23.331 16.514a.285.285 0 0 1-.184-.066 1.254 1.254 0 0 0-.929-.4.411.411 0 0 0-.264.208.292.292 0 0 1-.382.141.287.287 0 0 1-.147-.377.983.983 0 0 1 .651-.535 1.71 1.71 0 0 1 1.437.514.289.289 0 0 1-.184.513"/>
        <path data-name="패스 24225" d="M17.996 16.431a.289.289 0 0 1-.235-.459 1.334 1.334 0 0 1 1.919-.126.29.29 0 1 1-.321.482c-.763-.509-1.114-.038-1.129-.018a.287.287 0 0 1-.235.12"/>
        <path data-name="패스 24226" d="M29.471 22.385a.29.29 0 0 1-.229-.468l1.931-2.473a.29.29 0 0 1 .457.357l-1.931 2.473a.291.291 0 0 1-.229.111"/>
        <path data-name="패스 24227" d="m31.684 21.563-1.52-.086a.29.29 0 1 1 .033-.578l1.5.086a.29.29 0 0 1-.016.579"/>
        <path data-name="패스 24228" d="M46.192 74.057c-.069.041-.145.069-.214.1a1.082 1.082 0 0 1-.116.058 24.749 24.749 0 0 1-2.432.973c-.226.081-.463.156-.695.232a25.412 25.412 0 0 1-2.67.695c-.324.07-.654.127-.984.185a27.147 27.147 0 0 1-4.476.371 26.84 26.84 0 0 1-13.562-3.649c-.521-.3-1.025-.614-1.517-.944-.151-.11-.3-.214-.452-.319-.064-.046-.133-.093-.2-.139-.278-.2-.55-.405-.817-.614.927-3.237 2.606-8.826 3.515-11.612a13.42 13.42 0 0 1 .608-1.656.08.08 0 0 1 .017-.023l.753-.5a8.688 8.688 0 0 1 1.737-1.187c.029-.012.046-.017.052-.029s-2.9 15.533-2.9 15.533l14.3-.834.689-.041s.394-3.5 1.309-7.958c1.135-5.542 1.975-8.82 1.975-8.82a5.656 5.656 0 0 1 3.052 1.3c.012.006 3.017 18.875 3.017 18.875" transform="translate(-7.602 -22.675)" style="fill:#fff"/>
        <path data-name="패스 24229" d="M71.365 67.868c-.052.069-.1.133-.162.2-.3.359-.614.707-.932 1.048a26.887 26.887 0 0 1-4.447 3.811 25.927 25.927 0 0 1-3.637 2.085c-.069.041-.145.069-.214.1a1.078 1.078 0 0 1-.116.058 24.749 24.749 0 0 1-2.432.973c-.226.081-.463.156-.695.232a25.416 25.416 0 0 1-2.67.695l1-8.687c.208-2.583 2.125-12.243 2.125-12.243a15.848 15.848 0 0 1 1.488.649 23.289 23.289 0 0 1 8.055 6.405 17.879 17.879 0 0 1 2.641 4.674" transform="translate(-23.596 -23.626)" style="fill:#e2209e"/>
        <path data-name="패스 24230" d="M39.006 55.855c-2.189 0-2.952-1.059-2.99-1.114a.289.289 0 0 1 .475-.331c.02.028 1.023 1.331 4.153.683 3.2-.665 4.138-2.694 4.146-2.714a.291.291 0 0 1 .382-.148.288.288 0 0 1 .149.38c-.041.095-1.046 2.319-4.559 3.049a8.623 8.623 0 0 1-1.756.2" transform="translate(-15.138 -21.971)" style="fill:#ffb700"/>
    </g>
</svg>
