<svg xmlns="http://www.w3.org/2000/svg" width="54" height="54.002" viewBox="0 0 54 54.002">
    <defs>
        <clipPath id="aibc48xxba">
            <path data-name="사각형 14324" style="fill:none" d="M0 0h54v54.002H0z"/>
        </clipPath>
    </defs>
    <g data-name="그룹 73811" style="clip-path:url(#aibc48xxba)">
        <path data-name="패스 24231" d="M54 27a26.937 26.937 0 0 1-3.95 14.073 26.113 26.113 0 0 1-2.71 3.683c-.44.51-.9 1-1.384 1.471a26.699 26.699 0 0 1-1.853 1.674 26.8 26.8 0 0 1-3.828 2.624 32.78 32.78 0 0 1-1.17.62c-.122.064-.249.122-.371.185-.151.069-.307.145-.463.214-.2.1-.411.185-.62.278-.261.11-.521.214-.782.319-.2.081-.405.156-.608.232-.133.046-.266.1-.405.139-.156.058-.319.11-.475.162-.214.069-.429.139-.649.2a27.051 27.051 0 0 1-22.94-3.568A27.329 27.329 0 0 1 6.62 44.7c-.191-.22-.376-.44-.562-.666A27 27 0 1 1 54 27" style="fill:#110828"/>
        <path data-name="패스 24232" d="M33 24.8s-12.3-8.11-8.033-12.771 9.633 6.957 9.633 6.957z" transform="translate(-10.13 -4.598)" style="fill:#5e1dbb"/>
        <path data-name="패스 24233" d="M72.55 70.479c-.44.51-.9 1-1.384 1.471a26.699 26.699 0 0 1-1.853 1.674 26.8 26.8 0 0 1-3.828 2.624 32.78 32.78 0 0 1-1.17.62c-.122.064-.249.122-.371.185-.151.07-.307.145-.463.214-.2.1-.411.185-.62.278-.261.11-.521.214-.782.319-.2.081-.405.156-.608.232-.133.046-.266.1-.405.139-.156.058-.319.11-.475.162-.214.069-.429.139-.649.2-.394-11.3 2.4-17.479 2.4-17.479s7.187 3.811 10.2 9.359" transform="translate(-25.211 -25.722)" style="fill:#e2209e"/>
        <path data-name="패스 24234" d="M43.972 19.03s-6.465-4.2-10.385 1.037c-3.807 5.086-.087 10.856-.087 10.856l8.8-6.858z" transform="translate(-13.413 -7.338)" style="fill:#5e1dbb"/>
        <path data-name="패스 24235" d="M50.686 71.4a27.005 27.005 0 0 1-34.958-.654 17.641 17.641 0 0 1 .423-6.515c2.34-6.145 13.228-8.4 13.228-8.4a69.6 69.6 0 0 1 9.77 1.305c2.536.712 7.842 2.556 9.909 6.656a20.6 20.6 0 0 1 1.627 7.61" transform="translate(-6.583 -23.494)" style="fill:#e2209e"/>
        <path data-name="패스 24236" d="m38.845 46.21-.276 6.045s1.011 1.787 4.534 2.236c2.625.334 3.577-.219 3.577-.219l-.228-3.078-.226-3-6.321-1.7z" transform="translate(-16.232 -19.447)" style="fill:#fd8753"/>
        <path data-name="패스 24237" d="M23.673 27.045a1.984 1.984 0 0 0 .149.591c1.215 3.081 4.883 3.9 6.4 4.107l-.226-3z"/>
        <path data-name="패스 24238" d="M45.4 24.2s2.827 7.724 1.384 11.878-5.252 3.253-7.506 2.3a7.634 7.634 0 0 1-3.237-2.436 3.254 3.254 0 0 1-3.514-1.491c-1.318-2.089-.291-4.333.971-4.784a3.385 3.385 0 0 1 2.668.525l-1.012-2.256s5.5-10.816 10.246-3.73" transform="translate(-13.432 -9.17)" style="fill:#fd8753"/>
        <path data-name="패스 24239" d="M38.014 29.5s3.186.881 5.687-2.558 2.4-4.931 2.4-4.931l1.973 4.189s.683-2.859-.23-4.574-2.007-1.45-2.007-1.45l-7.254 1.276-2.283 5.583z" transform="translate(-15.277 -8.486)" style="fill:#5e1dbb"/>
        <path data-name="패스 24240" d="M38.99 61.916a2.306 2.306 0 0 1-.468-.049 1.512 1.512 0 0 1-.989-.706c-.931-1.472-.162-4.741-.129-4.879a.29.29 0 0 1 .515-.1 6.99 6.99 0 0 0 8.107 2 .294.294 0 0 1 .324.093c.555.7 1.783 2.4 1.166 3.078a1.143 1.143 0 0 1-.845.371c-1.29.054-3.28-1.634-3.992-2.286-.527.7-2.025 2.486-3.689 2.486m-1.135-4.942c-.173.966-.427 2.939.168 3.878a.935.935 0 0 0 .618.448c1.44.3 2.924-1.379 3.5-2.125a7.7 7.7 0 0 1-4.288-2.2m5.5 2.282c.9.784 2.411 1.894 3.3 1.882a.582.582 0 0 0 .435-.181c.171-.189-.339-1.213-1.067-2.168a8.82 8.82 0 0 1-2.665.468" transform="translate(-15.603 -23.593)" style="fill:#ffb700"/>
        <path data-name="패스 24241" d="M16.2 74.874a27.329 27.329 0 0 1-5.172-4.6c-.191-.22-.376-.44-.562-.666 4.538-7.014 9.075-8.861 9.075-8.861s-4.5 8.647-3.342 14.131" transform="translate(-4.403 -25.564)" style="fill:#e2209e"/>
        <path data-name="패스 24242" d="M66.339 78.814c-.191.116-.388.226-.585.342a15.769 15.769 0 0 0-.127-3.434 9.359 9.359 0 0 0-4.917-7.158.276.276 0 0 1-.145-.365.281.281 0 0 1 .365-.151 9.762 9.762 0 0 1 5.247 7.593 16.213 16.213 0 0 1 .162 3.174" transform="translate(-25.479 -28.629)" style="fill:#ffb700"/>
        <path data-name="패스 24243" d="M31.408 24.614a.3.3 0 0 1-.092-.014.29.29 0 0 1-.183-.367 4.069 4.069 0 0 0-.588-3.081.29.29 0 1 1 .481-.322 4.6 4.6 0 0 1 .656 3.586.289.289 0 0 1-.275.2"/>
        <path data-name="패스 24244" d="M22.255 24.614a.29.29 0 0 1-.215-.1l-2.131-2.363a.29.29 0 1 1 .43-.388l2.132 2.362a.29.29 0 0 1-.215.484"/>
        <path data-name="패스 24245" d="M19.958 23.943a.29.29 0 0 1-.036-.577l1.515-.2a.29.29 0 0 1 .074.575l-1.516.2h-.037"/>
        <path data-name="패스 24246" d="M32.797 18.007a.283.283 0 0 1-.057-.006l-1.1-.219a.29.29 0 1 1 .114-.568l1.1.219a.29.29 0 0 1-.057.573"/>
        <path data-name="패스 24247" d="M27.164 18.86a.289.289 0 0 1-.125-.551l1.9-.905a.29.29 0 1 1 .249.523l-1.9.9a.287.287 0 0 1-.124.028"/>
        <path data-name="패스 24248" d="M32.467 21.37a.29.29 0 0 1-.279-.211l-.409-1.462a.29.29 0 0 1 .059-.267l.459-.533a.29.29 0 1 1 .439.378l-.358.416.367 1.312a.29.29 0 0 1-.2.357.3.3 0 0 1-.078.01"/>
        <path data-name="패스 24249" d="M28.21 21.656a.29.29 0 0 1-.279-.211l-.409-1.462a.289.289 0 0 1 .063-.272l.634-.7a.29.29 0 0 1 .43.388l-.526.584.366 1.309a.289.289 0 0 1-.2.357.28.28 0 0 1-.078.011"/>
        <path data-name="패스 24250" d="M30.458 26.598a3.23 3.23 0 0 1-2.065-.925.29.29 0 0 1 .412-.406 2.415 2.415 0 0 0 2.109.686.29.29 0 0 1 .165.555 2.177 2.177 0 0 1-.621.09"/>
    </g>
</svg>
