<svg data-name="그룹 73802" xmlns="http://www.w3.org/2000/svg" width="54" height="54" viewBox="0 0 54 54">
    <defs>
        <clipPath id="lt056e9d3a">
            <path data-name="사각형 14319" style="fill:none" d="M0 0h54v54H0z"/>
        </clipPath>
    </defs>
    <g data-name="그룹 73801" style="clip-path:url(#lt056e9d3a)">
        <path data-name="패스 24151" d="M54 27a26.822 26.822 0 0 1-3.133 12.63c-.151.29-.313.573-.475.857a27.029 27.029 0 0 1-31.27 12.343c-.51-.156-1.019-.33-1.517-.515a25.645 25.645 0 0 1-3.915-1.83 5.444 5.444 0 0 1-.318-.18 26.734 26.734 0 0 1-7.042-5.941c-.2-.232-.394-.469-.585-.712A27 27 0 1 1 54 27" style="fill:#110828"/>
        <path data-name="패스 24152" d="m41.321 65.474-17.6 9.752c-.51-.156-1.019-.33-1.517-.515a25.644 25.644 0 0 1-3.915-1.83 5.822 5.822 0 0 1-.319-.18 26.734 26.734 0 0 1-7.04-5.941c2.143-4.274 6.845-11.02 15.879-13.221a10.076 10.076 0 0 1 5.09-.012c7.082 1.934 9.422 11.947 9.422 11.947" transform="translate(-4.601 -22.396)" style="fill:#5e1dbb"/>
        <path data-name="패스 24153" d="M60.343 62.638a27.029 27.029 0 0 1-31.271 12.34c-.51-.156-1.019-.33-1.517-.515a25.644 25.644 0 0 1-3.915-1.83c.666-7.447 1.343-13.562 1.865-14.755.955-2.224 7.378-3.781 11.744-4.6a84.48 84.48 0 0 1 4.094-.66 28.773 28.773 0 0 1 15.618 6.19 20.308 20.308 0 0 1 3.382 3.828" transform="translate(-9.95 -22.148)" style="fill:#5e1dbb"/>
        <path data-name="패스 24154" d="M35.14 18.6s-2.888 3.267-1.3 6.869 3.29-6.543 3.29-6.543z" transform="translate(-14.043 -7.828)" style="fill:#fff"/>
        <path data-name="패스 24155" d="m46.929 43.949.11 6.481s-1.137 1.883-4.923 2.255c-2.82.277-3.823-.344-3.823-.344l.338-3.289.334-3.208 6.821-1.622z" transform="translate(-16.118 -18.499)" style="fill:#fd8753"/>
        <path data-name="패스 24156" d="M29.667 25.724c-.013.177 1.043.734.942.976-1.4 3.262-6.594 4.9-8.222 5.075l.459-4.429z"/>
        <path data-name="패스 24157" d="M35.879 18.473A6.113 6.113 0 0 0 34 21.28c-.847 2.5-2.557 8.341-1.437 11.922 1.455 4.653 5.65 3.782 8.145 2.8A8.334 8.334 0 0 0 44.32 33.4a3.527 3.527 0 0 0 3.889-1.535c1.5-2.272.446-4.794-.92-5.337a3.659 3.659 0 0 0-2.934.493l1.173-2.467s-4.723-10.1-9.649-6.086" transform="translate(-13.551 -7.379)" style="fill:#fd8753"/>
        <path data-name="패스 24158" d="M31.148 22.819a.29.29 0 0 1-.173-.522l2.367-1.764a.29.29 0 1 1 .346.464l-2.367 1.764a.289.289 0 0 1-.173.057"/>
        <path data-name="패스 24159" d="M33.81 22.732a.27.27 0 0 1-.07 0l-1.931-.462a.288.288 0 0 1-.214-.349.285.285 0 0 1 .349-.214l1.931.462a.289.289 0 0 1-.067.571"/>
        <path data-name="패스 24160" d="M20.421 18.663a.273.273 0 0 1-.071-.009.288.288 0 0 1-.209-.352l.38-1.493a.29.29 0 1 1 .561.142l-.381 1.49a.288.288 0 0 1-.28.218"/>
        <path data-name="패스 24161" d="M24.527 18.883a.276.276 0 0 1-.071-.009.288.288 0 0 1-.209-.352l.38-1.493a.287.287 0 0 1 .352-.21.29.29 0 0 1 .21.352l-.381 1.493a.288.288 0 0 1-.28.218"/>
        <path data-name="패스 24162" d="M20.186 15.404a.29.29 0 0 1-.031-.577l1.229-.134a.29.29 0 0 1 .063.576l-1.229.133h-.032"/>
        <path data-name="패스 24163" d="M25.763 16.392a.294.294 0 0 1-.112-.023l-1.672-.7a.29.29 0 1 1 .224-.534l1.672.7a.289.289 0 0 1-.112.557"/>
        <path data-name="패스 24164" d="M45.518 26.1s-.672 2.7-1.189 2.368-1-4.218-.616-5.959.667-2.616.667-2.616-7.079-.629-8.946-2.312 2.076-2.768 6.108-2 5.622 2.278 5.622 2.278 2.526-.376 3.47 1.165-1.2 7.4-1.2 7.4-.636-1.469-3.912-.317" transform="translate(-14.714 -6.451)" style="fill:#fff"/>
        <path data-name="패스 24165" d="M29.878 37.36s1.978-2.191 2.985-1.862 1.373 1.8 1.373 1.8 1.194-1.654 2.513-1.189 4.143.638 4.173 1.1-.788.621-.788.621-6.651.768-10.256-.466" transform="translate(-12.576 -14.928)" style="fill:#fff"/>
        <path data-name="패스 24166" d="M44.254 33.927s-.119 4.374-.034 6.379-5.489 5.132-9.34 3.405-2.794-6.772-2.794-6.772l3.431.317a6.594 6.594 0 0 1 1.69-.634 4.417 4.417 0 0 1 2.1.305z" transform="translate(-13.45 -14.28)" style="fill:#fff"/>
        <path data-name="패스 24167" d="M22.606 23.991a.289.289 0 0 1-.03-.577 2.192 2.192 0 0 0 1.587-.977.29.29 0 0 1 .518.259 2.74 2.74 0 0 1-2.044 1.293h-.031"/>
        <path data-name="패스 24168" d="M21.538 21.905a.291.291 0 0 1-.259-.16 4.287 4.287 0 0 1 .48-4.026.29.29 0 1 1 .475.331 3.777 3.777 0 0 0-.437 3.436.29.29 0 0 1-.259.419"/>
        <path data-name="패스 24169" d="M39.135 57.162a15.172 15.172 0 0 1-3.5-.4.29.29 0 0 1 .146-.561c.067.019 6.728 1.688 10.053-2.253a.29.29 0 0 1 .442.374c-1.947 2.307-4.857 2.843-7.144 2.843" transform="translate(-14.909 -22.663)" style="fill:#ffb700"/>
    </g>
</svg>
