<svg xmlns="http://www.w3.org/2000/svg" width="48" height="48" viewBox="0 0 48 48">
    <defs>
        <clipPath id="zrmzh29ssa">
            <path data-name="사각형 14311" transform="translate(20 21)" style="fill:#fff;stroke:#707070" d="M0 0h48v48H0z"/>
        </clipPath>
    </defs>
    <g data-name="마스크 그룹 13823" transform="translate(-20 -21)" style="clip-path:url(#zrmzh29ssa)">
        <g data-name="024-graphic" transform="translate(19 20.811)">
            <path data-name="패스 24017" d="M243.824 1.406v45.183a1.412 1.412 0 0 1-2.824 0V1.406a1.412 1.412 0 0 1 2.824 0z" transform="translate(-217.412 .193)" style="fill:#985e33"/>
            <path data-name="패스 24018" d="M257.412 1.406v45.183A1.409 1.409 0 0 1 256 48V0a1.409 1.409 0 0 1 1.412 1.406z" transform="translate(-231 .193)" style="fill:#7d4a3b"/>
            <path data-name="패스 24019" d="M152.3 338.728a1.412 1.412 0 0 1-1.965-.352l-9.383-13.487-9.383 13.487a1.412 1.412 0 1 1-2.317-1.613l10.541-15.153a1.412 1.412 0 0 1 2.317 0l10.541 15.153a1.412 1.412 0 0 1-.351 1.965z" transform="translate(-115.953 -290.793)" style="fill:#c6865c"/>
            <path data-name="패스 24020" d="M267.348 338.723a1.412 1.412 0 0 1-1.965-.352L256 324.884V321a1.41 1.41 0 0 1 1.159.605l10.541 15.153a1.412 1.412 0 0 1-.352 1.965z" transform="translate(-231 -290.788)" style="fill:#985e33"/>
            <path data-name="패스 24021" d="M49 53.235v19.953a4.24 4.24 0 0 1-4.235 4.235H5.235A4.24 4.24 0 0 1 1 73.188V53.235A4.24 4.24 0 0 1 5.235 49h39.53A4.24 4.24 0 0 1 49 53.235z" transform="translate(0 -44.388)" style="fill:#f9f9f9"/>
            <path data-name="패스 24022" d="M280 53.235v19.953a4.24 4.24 0 0 1-4.235 4.235H256V49h19.765A4.24 4.24 0 0 1 280 53.235z" transform="translate(-231 -44.388)" style="fill:#e2dff4"/>
            <ellipse data-name="타원 2654" cx="7.882" cy="8.276" rx="7.882" ry="8.276" transform="translate(7.306 10.247)" style="fill:#4793ff"/>
            <path data-name="패스 24023" d="M81.353 207.071a8.194 8.194 0 0 1-11.893-4.482L77.228 200z" transform="translate(-62.017 -181.176)" style="fill:#afea93"/>
            <path data-name="패스 24024" d="M73.129 113v8.188l-7.768 2.589A8.2 8.2 0 0 1 73.129 113z" transform="translate(-57.917 -102.365)" style="fill:#ff6378"/>
            <path data-name="패스 24025" d="M322.458 126.78v.3a1.412 1.412 0 1 1-2.824 0v-.136a5.112 5.112 0 0 1-2-.849 1.412 1.412 0 0 1 1.546-2.362 2.521 2.521 0 0 0 1.86.478 1.339 1.339 0 0 0 1.333-1.139.942.942 0 0 0-.707-1.127 11.764 11.764 0 0 1-3.226-1.558c-1.944-1.524-1.347-4.995 1.191-5.918v-.2a1.412 1.412 0 0 1 2.824 0v.116a4.6 4.6 0 0 1 1.59.858 1.412 1.412 0 0 1-1.91 2.08 1.7 1.7 0 0 0-1.5-.209.783.783 0 0 0-.5.621.553.553 0 0 0 .054.435 10.167 10.167 0 0 0 2.425 1.117c3.718 1.313 3.265 6.258-.156 7.493z" transform="translate(-286.259 -102.229)" style="fill:#00cb75"/>
        </g>
    </g>
</svg>
