<svg xmlns="http://www.w3.org/2000/svg" width="48" height="48" viewBox="0 0 48 48">
    <defs>
        <clipPath id="clhalxak9a">
            <path data-name="사각형 14310" transform="translate(20 21)" style="fill:#fff;stroke:#707070" d="M0 0h48v48H0z"/>
        </clipPath>
    </defs>
    <g data-name="마스크 그룹 13822" transform="translate(-20 -21)" style="clip-path:url(#clhalxak9a)">
        <g data-name="016-protection" transform="translate(34 23.581)">
            <path data-name="패스 24043" d="M54.245 7.352v12.416c0 9.654-6.916 18.493-17.9 22.857a1.986 1.986 0 0 1-1.441 0C23.927 38.265 17 29.43 17 19.768V7.352A1.452 1.452 0 0 1 18.581 6.1c.1 0 10.382-.165 15.781-5.613a1.884 1.884 0 0 1 2.52 0C42.282 5.935 52.564 6.1 52.667 6.1a1.453 1.453 0 0 1 1.578 1.253z" transform="translate(-31 -.003)" style="fill:#f9f9f9"/>
            <path data-name="패스 24044" d="M210.623 7.349v12.415c0 9.654-6.916 18.493-17.9 22.857a1.952 1.952 0 0 1-.72.135V0a1.785 1.785 0 0 1 1.26.484c5.4 5.448 15.681 5.612 15.785 5.613a1.453 1.453 0 0 1 1.575 1.252z" transform="translate(-187.708)" style="fill:#e2dff4"/>
            <path data-name="패스 24045" d="M104.624 94.7v8.352c0 6.571-4.634 13.589-11.02 16.688a1.841 1.841 0 0 1-1.583 0C85.634 116.639 81 109.621 81 103.05V94.7a1.469 1.469 0 0 1 1.474-1.352c.056 0 5.993-.45 9.078-3.819a1.779 1.779 0 0 1 2.52 0c3.085 3.369 9.022 3.815 9.081 3.82a1.471 1.471 0 0 1 1.471 1.351z" transform="translate(-88.189 -82.803)" style="fill:#afea93"/>
            <path data-name="패스 24046" d="M203.812 94.695v8.352c0 6.571-4.634 13.589-11.02 16.688a1.813 1.813 0 0 1-.792.179V89a1.712 1.712 0 0 1 1.26.523c3.085 3.369 9.022 3.815 9.081 3.82a1.471 1.471 0 0 1 1.471 1.352z" transform="translate(-187.647 -82.8)" style="fill:#00cb75"/>
            <ellipse data-name="타원 2656" cx="13.055" cy="13.209" rx="13.055" ry="13.209" transform="translate(7.743 16.421)" style="fill:#ffe278"/>
            <path data-name="패스 24047" d="M365.124 198.124A13.139 13.139 0 0 1 352 211.248V185a13.139 13.139 0 0 1 13.124 13.124z" transform="translate(-331.124 -168.495)" style="fill:#ffb454"/>
            <path data-name="패스 24048" d="M222.187 185.04a13.124 13.124 0 1 0 13.062 13.124 13.136 13.136 0 0 0-13.062-13.124z" transform="translate(-201.248 -168.532)" style="fill:#ffb454"/>
            <path data-name="패스 24049" d="M365.742 198.164a13.14 13.14 0 0 1-13.062 13.124V185.04a13.14 13.14 0 0 1 13.062 13.124z" transform="translate(-331.742 -168.532)" style="fill:#ff8659"/>
            <circle data-name="타원 2657" cx="10.371" cy="10.371" r="10.371" transform="translate(10.505 19.262)" style="fill:#ffe278"/>
            <path data-name="패스 24050" d="M362.988 225.42a10.382 10.382 0 0 1-10.308 10.37v-20.74a10.382 10.382 0 0 1 10.308 10.37z" transform="translate(-331.742 -195.787)" style="fill:#ffb454"/>
            <path data-name="패스 24051" d="M305.566 259.933a4.259 4.259 0 0 1-2.062 1.36v.839a1.377 1.377 0 1 1-2.753 0v-.832a5.139 5.139 0 0 1 0-9.9v-1.024a1.377 1.377 0 1 1 2.753 0v1.017a5.127 5.127 0 0 1 1.509.694 1.377 1.377 0 1 1-1.54 2.283 2.383 2.383 0 1 0-1.362 4.358h.106a1.59 1.59 0 0 0 1.236-.565 1.377 1.377 0 0 1 2.113 1.766z" transform="translate(-281.048 -226.622)" style="fill:#ffb454"/>
            <g data-name="그룹 73689">
                <path data-name="패스 24052" d="M354.042 254.37a2.34 2.34 0 0 0-1.362-.407V249a1.377 1.377 0 0 1 1.393 1.377v1.017a5.126 5.126 0 0 1 1.509.694 1.377 1.377 0 1 1-1.54 2.283z" transform="translate(-331.632 -226.621)" style="fill:#ff8659"/>
                <path data-name="패스 24053" d="M356.135 345.759a4.259 4.259 0 0 1-2.062 1.36v.839a1.377 1.377 0 0 1-1.393 1.377v-4.781h.106a1.59 1.59 0 0 0 1.236-.565 1.377 1.377 0 0 1 2.113 1.766z" transform="translate(-331.632 -312.447)" style="fill:#ff8659"/>
            </g>
        </g>
    </g>
</svg>
