<svg xmlns="http://www.w3.org/2000/svg" width="27.634" height="27.765" viewBox="0 0 27.634 27.765">
    <g data-name="그룹 73675">
        <path data-name="패스 23994" d="M42.4 17.541c-9.87 1.67-8.382 3.025-10.053 12.894-1.67-9.87-.33-11.224-10.2-12.894 9.87-1.67 8.529-3.025 10.2-12.894 1.67 9.87.183 11.224 10.053 12.894" transform="translate(-20.926 -4.391)" style="fill:#ffd00d"/>
        <path data-name="패스 23995" d="M397.648 27.536a2.253 2.253 0 1 1-2.253-2.253 2.253 2.253 0 0 1 2.253 2.253" transform="translate(-371.479 -23.89)" style="fill:#ffd00d"/>
        <path data-name="패스 23996" d="M89.365 415.242a1.465 1.465 0 1 1-1.465-1.465 1.465 1.465 0 0 1 1.465 1.465" transform="translate(-61.732 -388.941)" style="fill:#ffd00d"/>
        <path data-name="패스 23997" d="M7.127 51.058a1.239 1.239 0 1 1-1.239-1.239 1.239 1.239 0 0 1 1.239 1.239" transform="translate(-4.392 -47.074)" style="fill:#ffd00d"/>
        <path data-name="사각형 14284" style="fill:none" d="M0 0h26.425v26.3H0z"/>
    </g>
</svg>
