<svg xmlns="http://www.w3.org/2000/svg" width="54" height="54" viewBox="0 0 54 54">
    <defs>
        <clipPath id="1n1iqc2d7a">
            <path data-name="사각형 14317" style="fill:none" d="M0 0h54v54H0z"/>
        </clipPath>
    </defs>
    <g data-name="그룹 73798">
        <g data-name="그룹 73797" style="clip-path:url(#1n1iqc2d7a)">
            <path data-name="패스 24112" d="M54 27a26.9 26.9 0 0 1-6.017 16.992c-.093.116-.191.232-.29.347a5.038 5.038 0 0 1-.232.272c-.11.127-.22.255-.336.382a27.007 27.007 0 0 1-6.358 5.23c-.133.081-.266.162-.405.237a26.391 26.391 0 0 1-5.061 2.23c-.278.093-.562.18-.845.261a27.11 27.11 0 0 1-16.087-.359 26.514 26.514 0 0 1-2.907-1.176c-.237-.11-.469-.226-.7-.347a27.067 27.067 0 0 1-5.067-3.353 1.532 1.532 0 0 1-.122-.1c-.2-.168-.4-.342-.6-.515a26.818 26.818 0 0 1-3.139-3.347c-.064-.069-.116-.145-.174-.214A27 27 0 1 1 54 27" style="fill:#110828"/>
            <path data-name="패스 24113" d="M43.562 21.243s4.9-3.916 2.668-7.162-7.011.056-7.011.056a3.719 3.719 0 0 0-4.5-.356c-2.635 1.508-2.936 5.185-2.936 5.185s-2.684-.061-2.838 3.206 3.362 6.175 3.362 6.175z" transform="translate(-12.182 -5.325)" style="fill:#5e1dbb"/>
            <path data-name="패스 24114" d="M47.292 71.712c-.133.081-.266.162-.405.237a26.391 26.391 0 0 1-5.061 2.23c-.278.093-.562.18-.845.261a27.11 27.11 0 0 1-16.087-.359 26.515 26.515 0 0 1-2.907-1.176c-.237-.11-.469-.226-.7-.347a27.067 27.067 0 0 1-5.069-3.358 1.532 1.532 0 0 1-.122-.1c-.2-.168-.4-.342-.6-.515.116-4.222.168-4.535.845-5.8a22.881 22.881 0 0 1 2.884-3.822c.012-.006.735-3.909.735-3.909C24.939 50.51 33.127 51.2 33.127 51.2s4.973-1.3 12.445 3.943z" transform="translate(-6.524 -21.488)" style="fill:#ffb700"/>
            <path data-name="패스 24115" d="m39.3 42.857-.062 6.225s1.1 1.8 4.743 2.132c2.71.247 3.669-.357 3.669-.357L47.3 47.7l-.343-3.078-6.557-1.51z" transform="translate(-16.514 -18.036)" style="fill:#fd8753"/>
            <path data-name="패스 24116" d="M23.882 25.078a2.034 2.034 0 0 0 .175.6c1.362 3.123 5.163 3.831 6.728 3.987l-.344-3.078z"/>
            <path data-name="패스 24117" d="M45.349 19.728s3.189 7.836 1.859 12.16-5.28 3.537-7.632 2.635a7.858 7.858 0 0 1-3.417-2.386 3.347 3.347 0 0 1-3.667-1.4c-1.43-2.1-.457-4.444.822-4.955a3.484 3.484 0 0 1 2.762.442l-1.123-2.282s5.255-11.321 10.4-4.21" transform="translate(-13.378 -7.315)" style="fill:#fd8753"/>
            <path data-name="패스 24118" d="M22.437 22.305a.289.289 0 0 1-.171-.056l-2.785-2.044a.29.29 0 0 1 .343-.467l2.784 2.044a.29.29 0 0 1-.171.523"/>
            <path data-name="패스 24119" d="M19.882 22.245a.289.289 0 0 1-.069-.57l1.851-.457a.29.29 0 1 1 .138.562l-1.851.457a.263.263 0 0 1-.069.009"/>
            <path data-name="패스 24120" d="M26.727 15.686a.29.29 0 0 1-.1-.562 11.642 11.642 0 0 1 2.437-.291.3.3 0 0 1 .3.281.291.291 0 0 1-.281.3 11.176 11.176 0 0 0-2.257.256.3.3 0 0 1-.1.017"/>
            <path data-name="패스 24121" d="M32.768 15.453a.31.31 0 0 1-.046 0 6.047 6.047 0 0 0-.975-.109.291.291 0 0 1-.306-.269.287.287 0 0 1 .261-.308 5.609 5.609 0 0 1 1.11.114.29.29 0 0 1-.045.576"/>
            <path data-name="패스 24122" d="M31.73 22.017a.272.272 0 0 1-.085-.013.29.29 0 0 1-.192-.362 3.193 3.193 0 0 0-.975-3.469.29.29 0 0 1 .351-.46 3.83 3.83 0 0 1 1.176 4.1.29.29 0 0 1-.277.2"/>
            <path data-name="패스 24123" d="M32.708 18.444a.289.289 0 0 1-.28-.216l-.375-1.432a.289.289 0 1 1 .559-.147l.376 1.432a.289.289 0 0 1-.206.353.275.275 0 0 1-.074.01"/>
            <path data-name="패스 24124" d="M28.772 18.481a.289.289 0 0 1-.28-.216l-.377-1.434a.29.29 0 0 1 .56-.147l.375 1.432a.289.289 0 0 1-.207.353.268.268 0 0 1-.074.01"/>
            <path data-name="패스 24125" d="M47.2 20.278a2.628 2.628 0 0 0-2.216-1.284 3.358 3.358 0 0 0-2.47 1.059 3.819 3.819 0 0 1-1.47 3.989 5.158 5.158 0 0 1-3.755.964l-1.526-.561L34.66 22.2l4.477-4.731 5.764-2.97 2.9 2.682z" transform="translate(-14.589 -6.1)" style="fill:#5e1dbb"/>
            <path data-name="패스 24126" d="M29.987 23.83a2.355 2.355 0 0 1-2.195-1.348.29.29 0 0 1 .527-.241 1.815 1.815 0 0 0 1.75 1.008.292.292 0 0 1 .313.265.289.289 0 0 1-.264.312h-.131"/>
            <path data-name="패스 24127" d="M46.467 51.222a10.488 10.488 0 0 1 2.048 3.872c.434 1.424.328 3.526.028 3.529S46 55.157 44.574 54.946s-2.626 3.941-3.236 4.086-2.983-1.488-3.826-3.854a3.809 3.809 0 0 1 .669-3.89s7.378 5.6 8.286-.067" transform="translate(-15.682 -21.557)" style="fill:#e2209e"/>
            <path data-name="패스 24128" d="M73.352 68.8a5.038 5.038 0 0 1-.232.272c-.11.127-.22.255-.336.382a26.977 26.977 0 0 1-6.764 5.467 26.391 26.391 0 0 1-5.061 2.23l3.748-19.041a21.477 21.477 0 0 1 8.507 10.332c.046.116.093.232.139.353" transform="translate(-25.659 -24.456)" style="fill:#ffb700"/>
            <path data-name="패스 24129" d="M19 75.466a27.067 27.067 0 0 1-5.067-3.353 1.532 1.532 0 0 1-.122-.1 26.475 26.475 0 0 1-3.735-3.863c3.347-7.112 7.6-10.181 7.6-10.181z" transform="translate(-4.243 -24.397)" style="fill:#ffb700"/>
        </g>
    </g>
</svg>
