<svg data-name="그룹 73809" xmlns="http://www.w3.org/2000/svg" width="54" height="54" viewBox="0 0 54 54">
    <defs>
        <clipPath id="4iepnk5x2a">
            <path data-name="사각형 14322" style="fill:none" d="M0 0h54v54H0z"/>
        </clipPath>
    </defs>
    <g data-name="그룹 73809" style="clip-path:url(#4iepnk5x2a)">
        <path data-name="패스 24189" d="M54 27a26.893 26.893 0 0 1-2.629 11.635c-.151.313-.307.625-.469.932a27.171 27.171 0 0 1-8.484 9.6c-.237.168-.475.33-.718.486a27.264 27.264 0 0 1-4.059 2.172c-.127.052-.255.11-.382.156a27.075 27.075 0 0 1-18.652.689q-.643-.208-1.268-.452a26.611 26.611 0 0 1-4.106-1.992 13.998 13.998 0 0 1-.637-.394 21.613 21.613 0 0 1-1.228-.817 26.04 26.04 0 0 1-.88-.654 26.781 26.781 0 0 1-4.795-4.784 5.2 5.2 0 0 1-.255-.324A27 27 0 1 1 54 27" style="fill:#110828"/>
        <path data-name="패스 24190" d="M22.744 75.495q-.643-.208-1.268-.452a26.9 26.9 0 0 1-5.97-3.2 26.04 26.04 0 0 1-.88-.654A26.781 26.781 0 0 1 9.83 66.4c3.266-5.635 8.379-12.18 14.477-12.162 6.99.046 2.426 12.6-1.564 21.255" transform="translate(-4.138 -22.827)" style="fill:#ffb700"/>
        <path data-name="패스 24191" d="M50.576 24.764a14.505 14.505 0 0 1 14.4 5.3c6.142 7.523 2.325 16.783-7.4 16.517S45.577 36.37 45.577 36.37z" transform="translate(-19.184 -10.293)" style="fill:#fff"/>
        <path data-name="패스 24192" d="M50.041 71.38c-.237.168-.475.33-.718.486a27.264 27.264 0 0 1-4.059 2.172c-.127.052-.255.11-.382.156a27.075 27.075 0 0 1-18.652.689q-.643-.208-1.268-.452a26.9 26.9 0 0 1-5.97-3.2 26.04 26.04 0 0 1-.88-.654c.556-6.249 1.343-11.519 2.438-12.9a10.954 10.954 0 0 1 7.244-4.042c1.494-.272 3.087-.423 4.806-.637a39.176 39.176 0 0 1 8.275.035h.035a24.216 24.216 0 0 1 6.266 1.286c1.089.469 2.137 8.247 2.866 17.068" transform="translate(-7.623 -22.216)" style="fill:#ffb700"/>
        <path data-name="패스 24193" d="M33.6 41.8c-.345 1.578-1.293 2.711-2.116 2.531s-1.211-1.605-.866-3.184 1.293-2.711 2.116-2.531 1.211 1.605.866 3.184" transform="translate(-12.836 -16.243)" style="fill:#07cbf5"/>
        <path data-name="패스 24194" d="M74.1 61.944a27.171 27.171 0 0 1-8.484 9.6c-.237.168-.475.33-.718.486a27.264 27.264 0 0 1-4.057 2.17c-.127.052-.255.11-.382.156L55.12 53.187a11.292 11.292 0 0 1 1.332 0h.035c3.046.145 10.69 1.3 17.616 8.757" transform="translate(-23.201 -22.376)" style="fill:#ffb700"/>
        <path data-name="패스 24195" d="M31.455 25.864a8.121 8.121 0 0 1-1.761-6.446c.4-2.677 1.568-3.564 1.568-3.564s-1.879-3.609 3.51-3.491 9.8-.343 12.205 4.293c1.415 2.731.852 8.664.852 8.664z" transform="translate(-12.459 -5.202)" style="fill:#fff"/>
        <path data-name="패스 24196" d="m46.931 42.946-.038 6.577s-1.2 1.883-5.046 2.174c-2.868.216-3.766-1.261-3.766-1.261l.728-5.752 6.955-1.484z" transform="translate(-16.028 -18.074)" style="fill:#fd8753"/>
        <path data-name="패스 24197" d="M30.895 24.471a2.186 2.186 0 0 1-.195.634c-1.491 3.277-6.677 4.614-8.334 4.753l.413-3.246z"/>
        <path data-name="패스 24198" d="M35.161 18.291S31.662 26.517 33 31.107s5.519 3.825 8.019 2.911a8.3 8.3 0 0 0 3.649-2.464 3.537 3.537 0 0 0 3.9-1.422c1.546-2.194.557-4.688-.786-5.248a3.68 3.68 0 0 0-2.926.42l1.224-2.392s-5.37-12.048-10.919-4.621" transform="translate(-13.761 -6.68)" style="fill:#fd8753"/>
        <path data-name="패스 24199" d="M45.776 24.469s-3.508.778-6.03-3.094-2.328-5.486-2.328-5.486l-2.36 4.093s-.6-2.8.489-4.605 2.26-1.462 2.26-1.462l7.8 1.791 2.165 6.185z" transform="translate(-14.687 -5.845)" style="fill:#fff"/>
        <path data-name="패스 24200" d="M21.875 22.044a.291.291 0 0 1-.276-.2 4.679 4.679 0 0 1 .691-3.645.29.29 0 0 1 .479.325 4.164 4.164 0 0 0-.618 3.14.289.289 0 0 1-.186.365.283.283 0 0 1-.09.014"/>
        <path data-name="패스 24201" d="M31.496 22.489a.29.29 0 0 1-.214-.485l2.186-2.394a.29.29 0 0 1 .428.391l-2.187 2.394a.288.288 0 0 1-.214.094"/>
        <path data-name="패스 24202" d="M33.841 21.817h-.039l-1.543-.208a.29.29 0 0 1 .076-.574l1.543.208a.29.29 0 0 1-.038.577"/>
        <path data-name="패스 24203" d="M20.169 15.367a.29.29 0 0 1-.054-.574l1.138-.221a.293.293 0 0 1 .339.229.29.29 0 0 1-.229.339l-1.138.221a.3.3 0 0 1-.056.005"/>
        <path data-name="패스 24204" d="M25.567 15.689a.282.282 0 0 1-.1-.019l-1.743-.65a.289.289 0 1 1 .2-.542l1.743.65a.289.289 0 0 1-.1.561"/>
        <path data-name="패스 24205" d="M20.232 18.728a.275.275 0 0 1-.08-.012.288.288 0 0 1-.2-.358l.383-1.338-.364-.429a.29.29 0 1 1 .441-.375l.464.547a.289.289 0 0 1 .058.268l-.426 1.487a.289.289 0 0 1-.278.21"/>
        <path data-name="패스 24206" d="M24.38 19.046a.3.3 0 0 1-.08-.011.289.289 0 0 1-.2-.358l.381-1.334-.535-.6a.29.29 0 1 1 .432-.385l.641.72a.287.287 0 0 1 .063.272l-.426 1.487a.289.289 0 0 1-.278.21"/>
        <path data-name="패스 24207" d="M23.06 24.18a1.207 1.207 0 0 1-.566-.135.29.29 0 1 1 .268-.513c.649.339 1.829-.683 2.191-1.067a.29.29 0 0 1 .422.4 4.048 4.048 0 0 1-2.315 1.315"/>
        <path data-name="패스 24208" d="m35.689 53.089-3.667.458s.457 4.51 6.627 5.065 10.311-5.593 10.311-5.593l-6.478-.785z" transform="translate(-13.478 -21.983)" style="fill:#fd8753"/>
        <path data-name="패스 24209" d="M56.684 42.71c.1 1.612-.5 2.961-1.342 3.014s-1.6-1.213-1.7-2.825.5-2.962 1.342-3.014 1.6 1.212 1.7 2.825" transform="translate(-22.572 -16.785)" style="fill:#07cbf5"/>
        <path data-name="패스 24210" d="M25.4 67.162c-.041.064-3.8 5.681-3.052 11.137a13.998 13.998 0 0 1-.637-.394c-.533-5.485 3.034-10.807 3.208-11.068a.29.29 0 0 1 .405-.075.282.282 0 0 1 .075.4" transform="translate(-9.115 -28.075)" style="fill:#e2209e"/>
    </g>
</svg>
