<svg xmlns="http://www.w3.org/2000/svg" width="18" height="20" viewBox="0 0 18 20">
    <path data-name="패스 33514" d="M0 0h11s4.974 5 5 5c-.032.019 0 15 0 15H0z" transform="translate(1)" style="fill:#3377fe"/>
    <path data-name="패스 33513" d="m0 0 5 5H0z" transform="translate(12)" style="fill:#acc8ff"/>
    <path data-name="패스 33515" d="M6.341 5.974 4.078 7.8a.931.931 0 0 1-1.157 0L.659 5.974a.821.821 0 0 1-.307-.552L0 2.148a.828.828 0 0 1 .487-.831L3.1.089a.939.939 0 0 1 .8 0l2.61 1.228a.828.828 0 0 1 .49.831l-.353 3.274a.82.82 0 0 1-.306.552" transform="translate(3 3)" style="fill:#fff"/>
    <path data-name="사각형 18762" transform="rotate(-45 10.747 -1.912)" style="fill:#3177fd" d="M0 0h1v2.464H0z"/>
    <path data-name="사각형 18763" transform="rotate(45 -2.585 12.538)" style="fill:#3177fd" d="M0 0h1v3.64H0z"/>
    <path data-name="사각형 18760" transform="translate(3 13)" style="fill:#fff" d="M0 0h8v1.5H0z"/>
    <path data-name="사각형 18761" transform="translate(3 16)" style="fill:#fff" d="M0 0h12v1.5H0z"/>
</svg>
