<svg xmlns="http://www.w3.org/2000/svg" width="54" height="54" viewBox="0 0 54 54">
    <defs>
        <clipPath id="dn06djox5a">
            <path data-name="사각형 14325" style="fill:none" d="M0 0h54v54H0z"/>
        </clipPath>
    </defs>
    <g data-name="그룹 73812" style="clip-path:url(#dn06djox5a)">
        <path data-name="패스 24251" d="M54 27a26.937 26.937 0 0 1-3.95 14.073c-.434.712-.9 1.4-1.4 2.062a27.325 27.325 0 0 1-6.521 6.232 26.819 26.819 0 0 1-11.288 4.361 25.9 25.9 0 0 1-3.307.261C27.359 54 27.18 54 27 54a26.92 26.92 0 0 1-20.38-9.3 29.26 29.26 0 0 1-1.569-1.981A27 27 0 1 1 54 27" style="fill:#eff1fd"/>
        <path data-name="패스 24252" d="M33.667 29.432s-7.678-2.669-8.644 5.249 11.123 11.2 12.9 4.29a7.991 7.991 0 0 0-4.258-9.54" transform="translate(-10.508 -12.204)" style="fill:#fff"/>
        <path data-name="패스 24253" d="M64.335 65.848a27.325 27.325 0 0 1-6.521 6.232 26.819 26.819 0 0 1-11.288 4.361l-3.359-7.2-2.931-6.284-1.413-3.672-1.563-4.064 2.207-.255 1.3-.151 3.365-.394L48 53.97a21.7 21.7 0 0 1 15.376 10.1c.319.527.637 1.124.961 1.778" transform="translate(-15.681 -22.713)" style="fill:#e2209e"/>
        <path data-name="패스 24254" d="M57.153 71.63a26.819 26.819 0 0 1-11.288 4.361 25.9 25.9 0 0 1-3.307.261c-.18.012-.359.012-.539.012a27.134 27.134 0 0 1-6.33-.747l2.473-16.68.643-4.32.237-1.616.319.075 4.106 1 4.025.973s8.253 4.743 9.66 16.685" transform="translate(-15.02 -22.263)" style="fill:#9364ed"/>
        <path data-name="패스 24255" d="M50.4 28.3a7.623 7.623 0 0 0 1.743-6.025c-.336-2.519-1.424-3.367-1.424-3.367s1.814-3.36-3.246-3.325A14.209 14.209 0 0 0 39.354 18a2.371 2.371 0 0 0-3.4 1.445c-1.128 2.658-.226 6.667-.226 6.667z" transform="translate(-14.893 -6.557)" style="fill:#fff"/>
        <path data-name="패스 24256" d="m41.869 44.078-.055 6.174s1.1 1.784 4.707 2.11c2.688.243 3.553-1.132 3.553-1.132l-.6-5.408-6.513-1.492z" transform="translate(-17.597 -18.55)" style="fill:#fd8753"/>
        <path data-name="패스 24257" d="M24.284 25.151a2.017 2.017 0 0 0 .174.6c1.354 3.1 6.2 4.423 7.756 4.576l-.342-3.052z"/>
        <path data-name="패스 24258" d="M47.854 21.125s3.171 7.769 1.856 12.058-5.234 3.517-7.568 2.617a7.8 7.8 0 0 1-3.392-2.363 3.32 3.32 0 0 1-3.638-1.389c-1.421-2.081-.458-4.407.811-4.915a3.452 3.452 0 0 1 2.74.436l-1.116-2.263s5.2-11.233 10.307-4.186" transform="translate(-14.48 -7.913)" style="fill:#fd8753"/>
        <path data-name="패스 24259" d="M40.42 26.814s3.282.78 5.7-2.82 2.262-5.117 2.262-5.117l2.158 3.875s.6-2.615-.395-4.329-2.1-1.4-2.1-1.4L40.7 18.592l-2.117 5.775z" transform="translate(-16.237 -7.153)" style="fill:#fff"/>
        <path data-name="패스 24260" d="M32.789 23.016a.3.3 0 0 1-.094-.016.29.29 0 0 1-.18-.368 3.9 3.9 0 0 0-.535-2.939.29.29 0 0 1 .484-.319 4.413 4.413 0 0 1 .6 3.447.29.29 0 0 1-.274.2"/>
        <path data-name="패스 24261" d="M23.752 23.3a.287.287 0 0 1-.217-.1l-2.017-2.275a.29.29 0 0 1 .433-.384l2.019 2.277a.29.29 0 0 1-.216.482"/>
        <path data-name="패스 24262" d="M21.56 22.639a.29.29 0 0 1-.034-.577l1.451-.174a.29.29 0 1 1 .069.575l-1.451.174h-.035"/>
        <path data-name="패스 24263" d="M34.483 16.772a.265.265 0 0 1-.06-.006l-1.357-.284a.29.29 0 0 1 .119-.566l1.357.284a.289.289 0 0 1-.059.573"/>
        <path data-name="패스 24264" d="M28.779 17.476a.29.29 0 0 1-.1-.56l2.195-.845a.29.29 0 0 1 .208.541l-2.194.845a.3.3 0 0 1-.1.019"/>
        <path data-name="패스 24265" d="M34.375 19.928a.289.289 0 0 1-.279-.214l-.379-1.4a.291.291 0 0 1 .062-.266l.444-.507a.29.29 0 0 1 .436.382l-.341.39.338 1.252a.289.289 0 0 1-.28.365"/>
        <path data-name="패스 24266" d="M30.479 20.169a.289.289 0 0 1-.279-.214l-.379-1.4a.29.29 0 0 1 .067-.271l.612-.667a.29.29 0 1 1 .426.392l-.5.55.337 1.248a.289.289 0 0 1-.28.365"/>
        <path data-name="패스 24267" d="M47.668 57.613a10.905 10.905 0 0 1-4.642-1.338.29.29 0 0 1 .284-.5c.048.027 4.852 2.684 6.99.177a.29.29 0 1 1 .441.376 3.857 3.857 0 0 1-3.073 1.29" transform="translate(-18.045 -23.455)" style="fill:#fff"/>
        <path data-name="패스 24268" d="M59.663 35.527h-.1a2.654 2.654 0 0 1 .253-5.263 2.19 2.19 0 0 1 1.623.865 2.886 2.886 0 0 1-.177 3.693 2.2 2.2 0 0 1-1.6.708m.05-4.689a2.088 2.088 0 0 0-.125 4.108 1.633 1.633 0 0 0 1.252-.528 2.306 2.306 0 0 0 .141-2.932 1.619 1.619 0 0 0-1.2-.646h-.072" transform="translate(-24.137 -12.735)" style="fill:#07cbf5"/>
        <path data-name="패스 24269" d="M49.389 35.722h-.128a2.625 2.625 0 1 1 .128 0m0-4.691a2.053 2.053 0 1 0 .1 0h-.1" transform="translate(-19.676 -12.816)" style="fill:#07cbf5"/>
        <path data-name="패스 24270" d="M56.406 34.292a.289.289 0 0 1-.174-.058 1.532 1.532 0 0 0-1.088-.018.289.289 0 0 1-.165-.555 2.078 2.078 0 0 1 1.6.111.29.29 0 0 1-.175.521" transform="translate(-23.051 -14.118)" style="fill:#07cbf5"/>
        <path data-name="패스 24271" d="M43.782 34.1a.29.29 0 0 1-.235-.12c-.6-.834-3.27-.972-4.253-.954a.3.3 0 0 1-.294-.279.29.29 0 0 1 .284-.295c.392-.006 3.846-.034 4.733 1.194a.29.29 0 0 1-.065.4.286.286 0 0 1-.169.055" transform="translate(-16.413 -13.657)" style="fill:#07cbf5"/>
        <path data-name="패스 24272" d="M31.156 68.716c.116 2.9.1 5.56.052 7.459-.18.012-.359.012-.539.012a26.92 26.92 0 0 1-20.38-9.3 29.26 29.26 0 0 1-1.569-1.981C18.456 53.044 27.9 52.72 27.9 52.72a1.9 1.9 0 0 1 .116.18 9.8 9.8 0 0 1 .741 1.39c1.6 3.6 2.207 9.359 2.4 14.427" transform="translate(-3.67 -22.187)" style="fill:#e2209e"/>
        <path data-name="패스 24273" d="M31.947 25.039a2.525 2.525 0 0 1-1.549-.682.29.29 0 0 1 .4-.418c.008.008.821.773 1.554.43a.29.29 0 1 1 .246.524 1.521 1.521 0 0 1-.652.145"/>
    </g>
</svg>
