<svg xmlns="http://www.w3.org/2000/svg" width="54" height="54" viewBox="0 0 54 54">
    <defs>
        <clipPath id="ixar2z9xua">
            <path data-name="사각형 14315" style="fill:none" d="M0 0h54v54H0z"/>
        </clipPath>
    </defs>
    <g data-name="그룹 73793" style="clip-path:url(#ixar2z9xua)">
        <path data-name="패스 24075" d="M54 27a26.977 26.977 0 0 1-19.735 26.01c-.55.156-1.112.3-1.679.411a17.1 17.1 0 0 1-1.106.208c-.255.046-.51.081-.77.116q-.9.13-1.824.191c-.3.017-.573.035-.851.041-.343.017-.685.023-1.035.023-.237 0-.475 0-.712-.012-.2 0-.405-.012-.608-.017-.735-.035-1.471-.1-2.195-.2L23 53.7l-.631-.1a27.857 27.857 0 0 1-2.322-.51 25.665 25.665 0 0 1-3.023-1A27.016 27.016 0 0 1 4.3 41.618a30.64 30.64 0 0 1-1.008-1.7A27 27 0 1 1 54 27" style="fill:#eff1fd"/>
        <path data-name="패스 24076" d="M46.635 75.041c-.55.156-1.112.3-1.679.411a17.1 17.1 0 0 1-1.106.208c-.255.046-.51.081-.77.116q-.9.13-1.824.191c-.3.017-.573.035-.851.041-.342.017-.683.023-1.031.023-.237 0-.475 0-.712-.012-.2 0-.405-.012-.608-.017-.735-.035-1.471-.1-2.195-.2l-.492-.069-.631-.1a27.857 27.857 0 0 1-2.322-.51 25.662 25.662 0 0 1-3.023-1l1.917-19.3 3.492-.822c.012-.006 6.961-1.645 6.961-1.645l1.963.585c.017 0 2.195.649 2.195.649z" transform="translate(-12.371 -22.031)" style="fill:#ffb700"/>
        <path data-name="패스 24077" d="M33.186 18.509s-3.966-4.888-2.894-5.534a1.816 1.816 0 0 1 2.086.339s8.085-1.274 11.035-.437 4.925 5.667 4.925 5.667 1.479-.137 2.1 1.88-3.726 11.941-6.506 11.421-10.75-13.337-10.75-13.337" transform="translate(-12.673 -5.3)" style="fill:#fff"/>
        <path data-name="패스 24078" d="m47.413 43.077.137 6.751s-1.178 1.965-5.12 2.366c-2.937.3-3.984-.346-3.984-.346l.341-3.427.337-3.342 7.1-1.713z" transform="translate(-16.182 -18.129)" style="fill:#fd8753"/>
        <path data-name="패스 24079" d="M30.039 25.237a2.214 2.214 0 0 1-.183.656c-1.443 3.4-5.556 4.213-7.253 4.4l.337-3.343z"/>
        <path data-name="패스 24080" d="M34.837 18.138s-3.371 8.536-1.88 13.21 5.766 3.778 8.307 2.773a8.527 8.527 0 0 0 3.68-2.626 3.63 3.63 0 0 0 3.956-1.564c1.528-2.293.446-4.825-.947-5.364a3.775 3.775 0 0 0-2.99.51l1.192-2.489s-5.826-12.22-11.322-4.45" transform="translate(-13.712 -6.545)" style="fill:#fd8753"/>
        <path data-name="패스 24081" d="M36.48 17.4s2.627-1.058 3.748-.131 2.443 8.752 6.382 7.07 1.9-6.7 1.9-6.7-9.91-8.482-12.03-.239" transform="translate(-15.355 -5.807)" style="fill:#fff"/>
        <path data-name="패스 24082" d="M25.731 52.31s-.006.069-.023.2l-.029.278c-.006.052-.012.1-.017.162-.029.266-.069.608-.11 1.025a3455.594 3455.594 0 0 1-2.386 21.127 25.665 25.665 0 0 1-3.023-1A27.016 27.016 0 0 1 7.42 63.632a28.982 28.982 0 0 1 8.472-8.178 21.771 21.771 0 0 1 9.833-3.145z" transform="translate(-3.123 -22.015)" style="fill:#e2209e"/>
        <path data-name="패스 24083" d="M41.374 57.237a12.58 12.58 0 0 1-3.22-.416.29.29 0 0 1 .162-.557c.058.017 5.779 1.619 8.8-1.93a.29.29 0 0 1 .441.376 7.875 7.875 0 0 1-6.186 2.526" transform="translate(-15.972 -22.824)" style="fill:#fff"/>
        <path data-name="패스 24084" d="M74.751 58.43A27.057 27.057 0 0 1 57.025 74.2c-.55.156-1.112.3-1.679.411-.822-8.9-1.268-24.23-1.268-24.23a28.406 28.406 0 0 1 20.673 8.049" transform="translate(-22.762 -21.192)" style="fill:#e2209e"/>
        <path data-name="패스 24085" d="M31.556 22.296a.289.289 0 0 1-.208-.491l2.126-2.2a.289.289 0 1 1 .416.4l-2.126 2.2a.286.286 0 0 1-.208.089"/>
        <path data-name="패스 24086" d="M33.683 22.272a.292.292 0 0 1-.2-.076l-1.086-.994a.29.29 0 0 1 .391-.427l1.086.994a.29.29 0 0 1-.2.5"/>
        <path data-name="패스 24087" d="M20.568 15.427a.288.288 0 0 1-.232-.459 2.019 2.019 0 0 1 1.968-.551.29.29 0 1 1-.083.573c-1.028-.151-1.409.307-1.424.327a.3.3 0 0 1-.229.109"/>
        <path data-name="패스 24088" d="M26.926 15.508a.289.289 0 0 1-.185-.067 1.9 1.9 0 0 0-1.613-.39.29.29 0 0 1-.153-.558 2.484 2.484 0 0 1 2.137.5.29.29 0 0 1-.185.512"/>
        <path data-name="패스 24089" d="M20.848 18.791a.3.3 0 0 1-.289-.313l.128-1.57a.285.285 0 0 1 .312-.265.29.29 0 0 1 .265.312l-.128 1.571a.289.289 0 0 1-.288.266"/>
        <path data-name="패스 24090" d="M25.496 18.983a.294.294 0 0 1-.289-.313l.128-1.572a.285.285 0 0 1 .312-.265.29.29 0 0 1 .265.312l-.128 1.571a.289.289 0 0 1-.288.266"/>
        <path data-name="패스 24091" d="M21.977 22.542a.289.289 0 0 1-.264-.171 3.979 3.979 0 0 1 .555-4.057.29.29 0 0 1 .442.374 3.4 3.4 0 0 0-.469 3.447.289.289 0 0 1-.146.382.286.286 0 0 1-.118.025"/>
        <path data-name="패스 24092" d="M23.816 23.955a.29.29 0 0 1 0-.579 1.549 1.549 0 0 0 1.375-.859.29.29 0 1 1 .534.223 2.13 2.13 0 0 1-1.908 1.216"/>
    </g>
</svg>
