<svg xmlns="http://www.w3.org/2000/svg" width="54" height="54.005" viewBox="0 0 54 54.005">
    <defs>
        <clipPath id="7y1pyy75qa">
            <path data-name="사각형 14316" style="fill:none" d="M0 0h54v54.005H0z"/>
        </clipPath>
    </defs>
    <g data-name="그룹 73795" style="clip-path:url(#7y1pyy75qa)">
        <path data-name="패스 24093" d="M50.7 39.963a27.017 27.017 0 0 1-.9 1.517l-.139.214c-.081.133-.168.261-.255.394-.342.5-.695.99-1.071 1.465a27.909 27.909 0 0 1-3.255 3.515c-.266.243-.544.481-.828.707-.122.11-.249.214-.376.313-.22.185-.452.359-.689.533a5 5 0 0 1-.324.237c-.133.1-.266.2-.4.29s-.261.18-.4.266l-.11.075c-.041.029-.075.058-.122.087s-.081.052-.122.081c-.058.035-.11.069-.168.1a26.766 26.766 0 0 1-2.7 1.517c-.237.116-.475.226-.718.342a26.679 26.679 0 0 1-5.3 1.743c-.232.058-.463.1-.7.151-.2.041-.388.075-.585.1-.405.069-.817.127-1.228.18-.064.012-.122.017-.185.023a23.42 23.42 0 0 1-1.292.11c-.017 0-.041.006-.058.006-.162.017-.319.023-.481.035a27.2 27.2 0 0 1-6.359-.446 25.811 25.811 0 0 1-4.835-1.404 26.017 26.017 0 0 1-3.556-1.7c-.423-.243-.84-.5-1.251-.77-.145-.093-.29-.185-.429-.284a21.492 21.492 0 0 1-1-.712 26.682 26.682 0 0 1-3.382-2.988 19.837 19.837 0 0 1-.678-.741 20.23 20.23 0 0 1-.562-.654c-.052-.052-.093-.11-.139-.162-.1-.116-.191-.232-.284-.347a26.3 26.3 0 0 1-2-2.9 1.386 1.386 0 0 1-.075-.122 22.943 22.943 0 0 1-.712-1.28 27 27 0 1 1 50.935-13.738A26.9 26.9 0 0 1 50.7 39.963" style="fill:#eff1fd"/>
        <path data-name="패스 24094" d="M48.781 69.619c-.122.11-.249.214-.376.313-.22.185-.452.359-.689.533a5 5 0 0 1-.324.237c-.133.1-.266.2-.4.29-.168.116-.336.226-.51.342-.041.029-.075.058-.122.087s-.081.052-.122.081a27.327 27.327 0 0 1-2.873 1.622c-.237.116-.475.226-.718.342a26.679 26.679 0 0 1-5.3 1.743c-.232.058-.463.1-.7.151-.6.116-1.2.208-1.813.284-.064.012-.122.017-.185.023a23.42 23.42 0 0 1-1.292.11c-.18.023-.359.029-.539.041a27.205 27.205 0 0 1-6.359-.446 27.781 27.781 0 0 1-8.38-3.116c-.423-.243-.84-.5-1.251-.77a20.772 20.772 0 0 1-1.425-1 26.682 26.682 0 0 1-3.381-2.986 19.837 19.837 0 0 1-.678-.741 20.23 20.23 0 0 1-.562-.654c.365-4.158 3.782-8.021 4.448-8.884 2.415-3.151 9.533-5.183 16.616-5.317 0 0 9.6.342 13.813 4.431 1.737 1.685 2.67 6.909 3.122 13.286" transform="translate(-4.538 -21.843)" style="fill:#ffb700"/>
        <path data-name="패스 24095" d="M14.642 74.445a21.492 21.492 0 0 1-1-.712 26.682 26.682 0 0 1-3.382-2.988 19.837 19.837 0 0 1-.678-.741 20.23 20.23 0 0 1-.562-.654c-.052-.052-.093-.11-.139-.162-.1-.116-.191-.232-.284-.347a26.3 26.3 0 0 1-2-2.9 67.883 67.883 0 0 1 7.662-6.324z" transform="translate(-2.779 -25.088)" style="fill:#ffb700"/>
        <path data-name="패스 24096" d="M75.507 66.758c-.081.133-.168.261-.255.394-.342.5-.695.99-1.071 1.465a27.909 27.909 0 0 1-3.255 3.515c-.388.347-.788.689-1.2 1.019-.22.185-.452.359-.689.533a5 5 0 0 1-.324.237c-.133.1-.266.2-.4.29-.168.116-.336.226-.51.342-.041.029-.075.058-.122.087s-.081.052-.122.081a27.328 27.328 0 0 1-2.873 1.622c-.237.116-.475.226-.718.342L61.433 74.8l5.543-15.243z" transform="translate(-25.854 -25.062)" style="fill:#ffb700"/>
        <path data-name="패스 24097" d="m37.489 43.686-.187 5.58s.459 1.668 4.124 2.09a4.738 4.738 0 0 0 4.131-1.392l-.1-1.2-.273-3.115-6.587-1.682z" transform="translate(-15.698 -18.385)" style="fill:#fd8753"/>
        <path data-name="패스 24098" d="M22.896 25.584a2.036 2.036 0 0 0 .162.612c1.3 3.185 5.12 3.99 6.7 4.184l-.273-3.115z"/>
        <path data-name="패스 24099" d="M44.047 20.653s3.034 7.986 1.587 12.319-5.414 3.445-7.767 2.478a7.934 7.934 0 0 1-3.393-2.489 3.38 3.38 0 0 1-3.668-1.505c-1.394-2.153-.356-4.5.948-4.981a3.515 3.515 0 0 1 2.778.511l-1.079-2.331s5.573-11.3 10.594-4" transform="translate(-12.685 -7.658)" style="fill:#fd8753"/>
        <path data-name="패스 24100" d="M30.528 22.952a.289.289 0 0 1-.272-.39 3.97 3.97 0 0 0-.471-3.01.29.29 0 1 1 .491-.306 4.481 4.481 0 0 1 .524 3.517.29.29 0 0 1-.272.189"/>
        <path data-name="패스 24101" d="M21.325 23.017a.29.29 0 0 1-.222-.1l-2-2.368a.29.29 0 0 1 .443-.373l2 2.368a.289.289 0 0 1-.035.408.286.286 0 0 1-.186.068"/>
        <path data-name="패스 24102" d="M19.11 22.289a.29.29 0 0 1-.027-.578l1.481-.141a.29.29 0 0 1 .055.576l-1.481.141h-.028"/>
        <path data-name="패스 24103" d="M27.149 19.839a.289.289 0 0 1-.291-.269l-.1-1.467a.289.289 0 0 1 .268-.309.286.286 0 0 1 .309.268l.1 1.466a.29.29 0 0 1-.268.31h-.021"/>
        <path data-name="패스 24104" d="M31.491 19.733a.29.29 0 0 1-.288-.264l-.133-1.464a.29.29 0 1 1 .577-.053l.133 1.465a.29.29 0 0 1-.262.314h-.027"/>
        <path data-name="패스 24105" d="M26.299 17.118a.289.289 0 0 1-.245-.443 1.793 1.793 0 0 1 1.995-.606.29.29 0 0 1-.169.554c-.038-.012-.941-.272-1.336.359a.288.288 0 0 1-.246.136"/>
        <path data-name="패스 24106" d="M31.968 16.842a.29.29 0 0 1-.24-.127 1.064 1.064 0 0 0-.6-.422.581.581 0 0 0-.463.148.29.29 0 1 1-.356-.457 1.166 1.166 0 0 1 .911-.263 1.632 1.632 0 0 1 .983.669.29.29 0 0 1-.239.452"/>
        <path data-name="패스 24107" d="m43.466 19.076-.536-.709a5.979 5.979 0 0 1-1.953.806 20.347 20.347 0 0 1-4.563.546s.444.583.452 2.758-2.193 3.5-2.193 3.5a7.135 7.135 0 0 0-2.073-.947 4.3 4.3 0 0 0-.668-.105 1.818 1.818 0 0 0-1.756.761s-3.225-4.636.079-8.234a8.359 8.359 0 0 1 7.322-2.287 9.8 9.8 0 0 1 1.155.221l.061.014s5.134-1.479 6.035-.75-.736 4.427-1.361 4.425" transform="translate(-12.105 -6.081)" style="fill:#5e1dbb"/>
        <path data-name="패스 24108" d="M28.852 25.262a1.682 1.682 0 0 1-.566-.1 1.06 1.06 0 0 1-.639-.557 1.366 1.366 0 0 1 0-.989.29.29 0 0 1 .385-.158l1.985.872a.29.29 0 0 1 .069.487 2.089 2.089 0 0 1-1.232.444m-.722-1.126a.571.571 0 0 0 .045.235.491.491 0 0 0 .305.247 1.176 1.176 0 0 0 .756 0z"/>
        <path data-name="패스 24109" d="M50.288 77.769c-.405.07-.817.127-1.228.18-.064.012-.122.017-.185.023a23.42 23.42 0 0 1-1.292.11c-.017 0-.041.006-.058.006l-2.942-20.7H46.6z" transform="translate(-18.762 -24.149)" style="fill:#e29d03"/>
        <path data-name="패스 24110" d="M45.57 52.142s2.673 6.45 1.98 6.385-5.1-3.239-5.1-3.239-2.6 3.952-3.56 4.069-1.611-6.774-1.611-6.774.826 1.918 4.457 2.077 3.831-2.518 3.831-2.518" transform="translate(-15.69 -21.943)" style="fill:#fff"/>
        <path data-name="패스 24111" d="m70.339 78.152-.11.075c-.041.029-.075.058-.122.087s-.081.052-.122.081c-.058.035-.11.069-.168.1l-2.6-9.846a.3.3 0 0 1 .214-.359.292.292 0 0 1 .365.209z" transform="translate(-28.285 -28.736)" style="fill:#fff"/>
    </g>
</svg>
