<svg xmlns="http://www.w3.org/2000/svg" width="54" height="54" viewBox="0 0 54 54">
    <defs>
        <clipPath id="1ru45resqa">
            <path data-name="사각형 14321" style="fill:none" d="M0 0h54v54H0z"/>
        </clipPath>
    </defs>
    <g data-name="그룹 73808" style="clip-path:url(#1ru45resqa)">
        <path data-name="패스 24170" d="M54 27a26.861 26.861 0 0 1-4.245 14.537 26.284 26.284 0 0 1-1.546 2.172c-.11.139-.22.278-.33.411-.075.1-.151.191-.232.284a27.94 27.94 0 0 1-1.569 1.708 25.893 25.893 0 0 1-2.826 2.45c-.029.023-.058.041-.087.064-.133.1-.272.2-.411.307l-.226.156c-.127.093-.255.185-.388.272l-.394.261a1.857 1.857 0 0 1-.18.11 23.791 23.791 0 0 1-2.27 1.309c-.18.093-.359.185-.544.272A27.353 27.353 0 0 1 36.17 52.4a26.081 26.081 0 0 1-3.614 1.025A27 27 0 0 1 27 54a25.278 25.278 0 0 1-2.426-.11c-.029 0-.052-.006-.081-.006a2.601 2.601 0 0 1-.2-.023 22.622 22.622 0 0 1-2.183-.313q-.678-.122-1.338-.278a27.151 27.151 0 0 1-6.781-2.618l-.064-.035c-.116-.064-.232-.127-.342-.2a17.261 17.261 0 0 1-.811-.481 22.481 22.481 0 0 1-1.169-.765 22.93 22.93 0 0 1-1.61-1.21 3.45 3.45 0 0 1-.185-.145Q8.707 46.9 7.7 45.875a17.936 17.936 0 0 1-.556-.585c-.237-.249-.463-.51-.683-.77a19.46 19.46 0 0 1-.539-.654c-.087-.1-.168-.2-.249-.307a.121.121 0 0 1-.023-.035 25.69 25.69 0 0 1-1.274-1.79A27 27 0 1 1 54 27" style="fill:#eff1fd"/>
        <path data-name="패스 24171" d="M49.97 39.706s-.478-25.846-9.619-26.778-10.224 5.493-10.224 5.493-2.279.812-2.74 4.287-.678 17.337-.678 17.337l20.641 1.181z" transform="translate(-11.243 -5.402)" style="fill:#5e1dbb"/>
        <path data-name="패스 24172" d="M56.475 65.455c-.11.139-.22.278-.33.411-.075.1-.151.191-.232.284a27.94 27.94 0 0 1-1.569 1.708 25.893 25.893 0 0 1-2.826 2.45c-.029.023-.058.041-.087.064-.133.1-.272.2-.411.307l-.226.156c-.127.093-.255.185-.388.272l-.394.261a1.857 1.857 0 0 1-.18.11 23.79 23.79 0 0 1-2.27 1.309c-.18.093-.359.185-.544.272a27.355 27.355 0 0 1-2.583 1.089 26.082 26.082 0 0 1-3.614 1.025 27 27 0 0 1-5.553.573 25.278 25.278 0 0 1-2.426-.11c-.029 0-.052-.006-.081-.006-.8-.075-1.6-.185-2.386-.336q-.678-.122-1.338-.278a27.151 27.151 0 0 1-6.78-2.616l-.064-.035c-.116-.064-.232-.127-.342-.2a17.261 17.261 0 0 1-.811-.481c-1.575-6.533-2.119-12.342-.058-14.768a3.343 3.343 0 0 1 .371-.388 16.853 16.853 0 0 1 1.621-1.21.509.509 0 0 0 .058-.035 19.963 19.963 0 0 1 3.024-1.583.12.12 0 0 1 .035-.012c6.862-2.861 15.7-2.386 20.529-.371 3.08 1.283 6.88 6.925 9.855 12.138" transform="translate(-8.266 -21.746)" style="fill:#9364ed"/>
        <path data-name="패스 24173" d="M39.34 43.244v6.348s1.145 1.825 4.858 2.127c2.766.225 3.642-1.2 3.642-1.2l-.67-5.555-6.7-1.475z" transform="translate(-16.558 -18.199)" style="fill:#fd8753"/>
        <path data-name="패스 24174" d="M22.791 24.658a2.1 2.1 0 0 0 .184.613c1.421 3.171 6.419 4.491 8.016 4.634l-.38-3.136z"/>
        <path data-name="패스 24175" d="m72.64 74.681-.2 1.784-.226.156a8.957 8.957 0 0 1-.388.272l.255-2.27c.44-3.915-1.506-8.768-1.529-8.815a.275.275 0 0 1 .156-.365.279.279 0 0 1 .365.151c.075.208 2.015 5.033 1.564 9.087" transform="translate(-29.689 -27.532)" style="fill:#fff"/>
        <path data-name="패스 24176" d="M45.316 19.525s3.331 7.959 2.018 12.381-5.348 3.66-7.756 2.764a8.019 8.019 0 0 1-3.508-2.4 3.413 3.413 0 0 1-3.753-1.4c-1.48-2.127-.511-4.527.789-5.061a3.55 3.55 0 0 1 2.821.423l-1.167-2.316s5.244-11.6 10.558-4.4" transform="translate(-13.288 -7.226)" style="fill:#fd8753"/>
        <path data-name="패스 24177" d="M31.512 22.376a.28.28 0 0 1-.091-.015.29.29 0 0 1-.184-.366 4.008 4.008 0 0 0-.577-3.025.29.29 0 0 1 .481-.323 4.526 4.526 0 0 1 .647 3.53.291.291 0 0 1-.275.2"/>
        <path data-name="패스 24178" d="M22.224 22.752a.289.289 0 0 1-.215-.1l-2.1-2.323a.29.29 0 1 1 .43-.388l2.1 2.323a.29.29 0 0 1-.215.484"/>
        <path data-name="패스 24179" d="M19.964 22.091a.29.29 0 0 1-.036-.577l1.49-.192a.29.29 0 0 1 .074.575l-1.491.192h-.037"/>
        <path data-name="패스 24180" d="M33.197 15.94a.279.279 0 0 1-.057-.006l-1.4-.279a.29.29 0 0 1 .114-.568l1.4.28a.29.29 0 0 1-.056.573"/>
        <path data-name="패스 24181" d="M27.339 16.72a.29.29 0 0 1-.125-.551l1.872-.89a.29.29 0 0 1 .248.524l-1.872.89a.3.3 0 0 1-.123.027"/>
        <path data-name="패스 24182" d="M32.553 19.186a.289.289 0 0 1-.279-.211l-.4-1.438a.289.289 0 0 1 .06-.267l.452-.525a.29.29 0 1 1 .439.378l-.351.408.361 1.288a.291.291 0 0 1-.2.357.306.306 0 0 1-.078.01"/>
        <path data-name="패스 24183" d="M27.991 19.47a.289.289 0 0 1-.279-.211l-.402-1.439a.288.288 0 0 1 .064-.272l.623-.691a.29.29 0 1 1 .43.387l-.516.576.359 1.284a.289.289 0 0 1-.2.357.283.283 0 0 1-.078.011"/>
        <path data-name="패스 24184" d="M49.395 21.9a20.007 20.007 0 0 0-3.731-.381l-1.538.058L43.5 19.1l.008 2.7a8.266 8.266 0 0 0-2.161.749 8.413 8.413 0 0 0-1.786 1.251l-1.02-2.081.429 2.62-1.246 1.443-1.881-1.762 1.2-3.652s2.838-3.964 3.057-4.011 4.312-.273 4.312-.273 3.521 1.377 3.607 1.492 1.376 4.324 1.376 4.324" transform="translate(-15.087 -6.77)" style="fill:#5e1dbb"/>
        <path data-name="패스 24185" d="M44.289 56.253a10.051 10.051 0 0 1-5.78-1.926.289.289 0 0 1 .33-.476c4.849 3.352 8.749 1.136 8.913 1.04a.29.29 0 0 1 .295.5 8.072 8.072 0 0 1-3.757.864" transform="translate(-16.156 -22.641)" style="fill:#fff"/>
        <path data-name="패스 24186" d="M28.986 77.071a22.463 22.463 0 0 1-2.186-.313q-.678-.122-1.338-.278a27.151 27.151 0 0 1-6.781-2.618l-.064-.035c-.116-.064-.232-.127-.342-.2a17.261 17.261 0 0 1-.811-.481 22.481 22.481 0 0 1-1.169-.765 22.93 22.93 0 0 1-1.61-1.21 3.45 3.45 0 0 1-.185-.145q-1.1-.921-2.114-1.946a17.936 17.936 0 0 1-.556-.585c-.237-.249-.463-.51-.683-.77a25.377 25.377 0 0 1 6.26-9.347 19.7 19.7 0 0 1 1.992-1.6.509.509 0 0 0 .058-.035 12.408 12.408 0 0 1 3.023-1.587.12.12 0 0 1 .035-.012c.006 0 6.468 21.921 6.468 21.921" transform="translate(-4.693 -23.21)" style="fill:#9364ed"/>
        <path data-name="패스 24187" d="M30.678 24.797a3.2 3.2 0 0 1-1.657-.834.291.291 0 0 1-.083-.323.324.324 0 0 1 .276-.186l2.587.047a.29.29 0 0 1 .2.491 4.356 4.356 0 0 1-.97.721.738.738 0 0 1-.357.084m-.506-.747c.259.136.484.207.59.152.08-.043.159-.09.231-.137z"/>
        <path data-name="패스 24188" d="M37.412 42.066a1.326 1.326 0 1 1-1.327-1.326 1.326 1.326 0 0 1 1.327 1.326" transform="translate(-14.63 -17.145)" style="fill:#07cbf5"/>
    </g>
</svg>
