<svg xmlns="http://www.w3.org/2000/svg" xmlns:xlink="http://www.w3.org/1999/xlink" width="122" height="53" viewBox="0 0 122 53">
  <defs>
    <style>
      .cls-1 {
        fill: #1e1e1e;
      }

      .cls-2 {
        fill: #76f9e4;
        font-size: 10px;
        font-family: SpoqaHanSansNeo-Bold, Spoqa Han Sans Neo;
        font-weight: 700;
        letter-spacing: -0.025em;
      }

      .cls-3 {
        filter: url(#다각형_1);
      }

      .cls-4 {
        filter: url(#사각형_14306);
      }
    </style>
    <filter id="사각형_14306" x="0" y="0" width="122" height="44" filterUnits="userSpaceOnUse">
      <feOffset dx="3" dy="3" input="SourceAlpha"/>
      <feGaussianBlur stdDeviation="2" result="blur"/>
      <feFlood flood-opacity="0.102"/>
      <feComposite operator="in" in2="blur"/>
      <feComposite in="SourceGraphic"/>
    </filter>
    <filter id="다각형_1" x="26" y="28" width="31" height="25" filterUnits="userSpaceOnUse">
      <feOffset dx="3" dy="3" input="SourceAlpha"/>
      <feGaussianBlur stdDeviation="2" result="blur-2"/>
      <feFlood flood-opacity="0.102"/>
      <feComposite operator="in" in2="blur-2"/>
      <feComposite in="SourceGraphic"/>
    </filter>
  </defs>
  <g id="_message" data-name="# message" transform="translate(-62 -5185.61)">
    <g class="cls-4" transform="matrix(1, 0, 0, 1, 62, 5185.61)">
      <rect id="사각형_14306-2" data-name="사각형 14306" class="cls-1" width="110" height="32" rx="8" transform="translate(3 3)"/>
    </g>
    <g class="cls-3" transform="matrix(1, 0, 0, 1, 62, 5185.61)">
      <path id="다각형_1-2" data-name="다각형 1" class="cls-1" d="M7.885,2.21a2,2,0,0,1,3.23,0l5.561,7.61A2,2,0,0,1,15.061,13H3.939A2,2,0,0,1,2.324,9.82Z" transform="translate(48 44) rotate(180)"/>
    </g>
    <text id="직장인이_아니세요_" data-name="직장인이 아니세요?" class="cls-2" transform="translate(120 5208.61)"><tspan x="-39.38" y="0">직장인이 아니세요?</tspan></text>
  </g>
</svg>
